<?xml version="1.0" encoding="UTF-8"?><svg id="Layer_5" xmlns="http://www.w3.org/2000/svg" viewBox="0 0 282.64 272.94"><defs><style>.cls-1{fill:#231f20;stroke:#231f20;stroke-miterlimit:10;stroke-width:3px;}</style></defs><path class="cls-1" d="M88.58,150.12v19.53c0,7.49,11.64,7.5,11.64,0v-19.53c0-7.49-11.64-7.5-11.64,0Z"/><path class="cls-1" d="M179.54,75.76c-12.85,8.12-26.5,14.9-40.74,20.23-6.98,2.59-3.95,13.84,3.1,11.22,15.2-5.63,29.78-12.82,43.52-21.44,6.32-3.98,.5-14.05-5.87-10.09v.07Z"/><path class="cls-1" d="M114.32,71.58c17.19-14.87,37.41-25.83,59.25-32.13,10.43-3.04,21.49-5.34,32.41-4.98,3.78,.12,13.5,.78,13.89,5.97,.57,7.42,12.21,7.48,11.64,0-1.85-24.35-39.24-17.64-54.18-14.04-26.36,6.43-50.79,19.11-71.23,36.95-5.66,4.93,2.6,13.13,8.22,8.22Z"/><path class="cls-1" d="M163.21,60.69V27.41c0-7.49-11.64-7.5-11.64,0V60.69c0,7.49,11.64,7.5,11.64,0h0Z"/><path class="cls-1" d="M151.58,95.75v42.24c0,7.49,11.64,7.5,11.64,0v-42.24c0-7.49-11.64-7.5-11.64,0Z"/><path class="cls-1" d="M100.73,171.62c28.58-33.73,82.52-37.57,116.25-9.19,5.69,4.79,13.96-3.41,8.23-8.23-29.61-24.9-73.03-29.48-107.25-11.36-9.72,5.17-18.37,12.14-25.49,20.54-4.81,5.68,3.38,13.96,8.23,8.23h.02Z"/><path class="cls-1" d="M95.62,159.36c-8.17,9.2-14.37,19.98-18.23,31.66-2.37,7.13,8.87,10.18,11.22,3.1,3.24-9.78,8.42-18.8,15.24-26.53,4.94-5.59-3.26-13.86-8.23-8.23h0Z"/><path class="cls-1" d="M93.81,152.67c7.49,0,7.5-11.64,0-11.64s-7.5,11.64,0,11.64Z"/><path class="cls-1" d="M95.3,139.69c-28.32-6.28-57.54-7.36-86.24-3.2-3.1,.44-4.83,4.41-4.07,7.15,.96,3.34,4.07,4.52,7.17,4.07,26.66-3.76,53.78-2.67,80.05,3.2,7.29,1.62,10.41-9.6,3.1-11.23h-.02Z"/><path class="cls-1" d="M93.78,149.6l-1.31,.86h-3.1l-1.4-1.55v-3.1c-.5,3.62-10.5,5.53-13.41,6.27-5.96,1.48-12.04,2.39-18.17,2.72-7.45,.43-7.49,12.06,0,11.64,11.79-.67,25.76-2.33,35.97-8.81,4.65-2.94,9.07-8.27,6.08-13.96-2.63-5.05-8.77-5.71-12.88-2.26-5.73,4.84,2.54,13.03,8.23,8.23v-.03Z"/><path class="cls-1" d="M123.28,209.15c7.9-19.53,25.42-36.63,45.15-43.97,19.26-7.17,40.26-6.5,59.28,1.08,2.94,1.18,6.36-1.28,7.16-4.06,.95-3.3-1.16-6-4.07-7.16-21.4-8.53-46.22-8.91-67.66-.23-23.19,9.58-41.59,28.03-51.1,51.25-1.19,2.93,1.3,6.36,4.07,7.15,3.31,.95,5.99-1.16,7.16-4.07h0Z"/><path class="cls-1" d="M220.08,162.41c22.08,7.48,39.11,25.28,45.59,47.68,2.06,7.18,13.29,4.13,11.23-3.1-7.65-26.29-27.73-47.15-53.72-55.8-7.12-2.33-10.18,8.88-3.1,11.22Z"/><path class="cls-1" d="M199.51,150.95c10.66,4.54,21.2,9.34,31.61,14.41,6.71,3.27,12.61-6.77,5.88-10.05-10.42-5.06-20.96-9.87-31.62-14.41-2.91-1.24-6.21-.85-7.96,2.09-1.46,2.43-.78,6.73,2.09,7.96h0Z"/><path class="cls-1" d="M222.77,162.63c8.33,4.06,16.15,9.08,23.31,14.96,5.73,4.73,14.01-3.45,8.23-8.23-7.88-6.58-16.5-12.21-25.69-16.77-6.7-3.3-12.6,6.73-5.87,10.05h.02Z"/><path class="cls-1" d="M234.31,167.27c-.54-.23,.22,.12,.33,.19,.47,.26,.93,.5,1.38,.78,.58,.32,1.13,.71,1.63,1.15,.64,.56,1.24,1.15,1.82,1.77,.54,.55,1,1.18,1.37,1.85,1.65,2.72,5.16,3.66,7.95,2.12,2.64-1.55,3.79-5.3,2.09-7.96-3.21-5.03-7.93-8.91-13.48-11.09-2.9-1.21-6.4,1.3-7.15,4.07-.92,3.35,1.15,5.94,4.07,7.16v-.03Z"/><path class="cls-1" d="M210.59,160.99c7.49,0,7.49-11.64,0-11.64s-7.5,11.64,0,11.64Z"/><path class="cls-1" d="M176.03,91.74c10.42-6.48,20.46-13.54,30.09-21.15,8.67-6.85,19.45-14.27,23.99-24.72,1.26-2.9,.84-6.21-2.09-7.96-2.44-1.47-6.71-.78-7.96,2.09-4.1,9.46-14.31,16.16-22.17,22.36-8.88,6.96-18.14,13.41-27.74,19.33-6.35,3.94-.51,14.01,5.87,10.09v-.04Z"/></svg>