<svg id="Layer_34" data-name="Layer 34" xmlns="http://www.w3.org/2000/svg" viewBox="0 0 314.04 291.52"><defs><style>.cls-1{fill:#231f20;}</style></defs><path class="cls-1" d="M87.93,166.21q-.25,51.56-.31,103.13,0,51.38.09,102.77.08,29,.22,58c0,3.92,3.43,7.68,7.5,7.5a7.63,7.63,0,0,0,7.5-7.5q-.25-51.69-.31-103.39,0-51.35.09-102.7.08-28.92.22-57.85c0-3.93-3.47-7.68-7.5-7.5a7.63,7.63,0,0,0-7.5,7.5Z" transform="translate(-87.61 -146.14)"/><path class="cls-1" d="M96.19,437.65H391.85c3.92,0,7.68-3.45,7.5-7.5a7.63,7.63,0,0,0-7.5-7.5H96.19c-3.92,0-7.68,3.45-7.5,7.5a7.63,7.63,0,0,0,7.5,7.5Z" transform="translate(-87.61 -146.14)"/><path class="cls-1" d="M401.65,428.62q-.09-51.49-.11-103,0-51.33,0-102.66,0-29,.08-57.93c0-3.92-3.46-7.68-7.5-7.5a7.63,7.63,0,0,0-7.5,7.5q-.09,51.62-.11,103.22,0,51.28,0,102.58,0,28.89.08,57.77c0,3.92,3.44,7.68,7.5,7.5a7.63,7.63,0,0,0,7.5-7.5Z" transform="translate(-87.61 -146.14)"/><path class="cls-1" d="M106,161.14q53.4.21,106.8.26,53.07,0,106.14-.05,29.88-.06,59.78-.16c3.92,0,7.68-3.44,7.5-7.5a7.63,7.63,0,0,0-7.5-7.5q-53.29.18-106.57.22-53.1,0-106.2-.09-30-.06-59.95-.18c-3.92,0-7.68,3.46-7.5,7.5a7.63,7.63,0,0,0,7.5,7.5Z" transform="translate(-87.61 -146.14)"/><path class="cls-1" d="M134.49,191.78H359.68c3.92,0,7.68-3.45,7.5-7.5a7.62,7.62,0,0,0-7.5-7.5H134.49c-3.92,0-7.68,3.45-7.5,7.5a7.63,7.63,0,0,0,7.5,7.5Z" transform="translate(-87.61 -146.14)"/><path class="cls-1" d="M127.76,183.51V367.34c0,3.92,3.44,7.68,7.5,7.5a7.63,7.63,0,0,0,7.5-7.5V183.51c0-3.92-3.45-7.68-7.5-7.5a7.63,7.63,0,0,0-7.5,7.5Z" transform="translate(-87.61 -146.14)"/><path class="cls-1" d="M349.88,184.28V362c0,3.92,3.45,7.68,7.5,7.5a7.63,7.63,0,0,0,7.5-7.5V184.28c0-3.93-3.45-7.68-7.5-7.5a7.63,7.63,0,0,0-7.5,7.5Z" transform="translate(-87.61 -146.14)"/><path class="cls-1" d="M136,381h.77a5.66,5.66,0,0,0,2.89-.65,6.75,6.75,0,0,0,4-4,5.66,5.66,0,0,0,.65-2.89l-.27-2a7.55,7.55,0,0,0-1.93-3.31L140.57,367a7.4,7.4,0,0,0-3.78-1H136a7.21,7.21,0,0,0-6.85,4.61,5.64,5.64,0,0,0-.65,2.89l.27,2a7.5,7.5,0,0,0,1.93,3.31l1.52,1.17a7.51,7.51,0,0,0,3.78,1Z" transform="translate(-87.61 -146.14)"/><path class="cls-1" d="M139.09,387.1H352c3.92,0,7.68-3.45,7.5-7.5a7.62,7.62,0,0,0-7.5-7.5H139.09c-3.93,0-7.69,3.45-7.5,7.5a7.63,7.63,0,0,0,7.5,7.5Z" transform="translate(-87.61 -146.14)"/><path class="cls-1" d="M363.35,378.06V358.91c0-3.92-3.45-7.68-7.5-7.5a7.64,7.64,0,0,0-7.5,7.5v19.15c0,3.93,3.45,7.69,7.5,7.5a7.63,7.63,0,0,0,7.5-7.5Z" transform="translate(-87.61 -146.14)"/><path class="cls-1" d="M144.45,261.48H351.26c3.92,0,7.68-3.45,7.5-7.5a7.64,7.64,0,0,0-7.5-7.5H144.45c-3.93,0-7.68,3.45-7.5,7.5a7.63,7.63,0,0,0,7.5,7.5Z" transform="translate(-87.61 -146.14)"/><path class="cls-1" d="M202.32,223.62v-.05l.27,2v-.15l-.26,2a1.46,1.46,0,0,1,.05-.2l-.75,1.79a1.62,1.62,0,0,1,.1-.18l-1.17,1.52.15-.15-1.52,1.17a1,1,0,0,1,.23-.13l-1.79.75.2-.06-2,.27a1.34,1.34,0,0,1,.2,0l-2-.27.15.05-1.79-.76.16.09L191,230.12l.12.13L190,228.73a.51.51,0,0,1,.09.16l-.75-1.79a1.11,1.11,0,0,1,.07.26l-.27-2a.88.88,0,0,1,0,.23l.27-2a.79.79,0,0,1-.06.22l.76-1.79a.51.51,0,0,1-.09.16l1.18-1.52a.8.8,0,0,1-.13.13l1.52-1.17a1.64,1.64,0,0,1-.29.16l1.79-.75a2.11,2.11,0,0,1-.36.09l2-.26h-.42l2,.26a1.75,1.75,0,0,1-.51-.14l1.79.76a1.76,1.76,0,0,1-.42-.24l1.52,1.17a2.13,2.13,0,0,1-.34-.33l1.17,1.52a1.68,1.68,0,0,1-.21-.37l.75,1.8a1.54,1.54,0,0,1-.09-.37l.26,2c0-.07,0-.13,0-.19L199,230a1,1,0,0,1,.21-.21L197.71,231a2.14,2.14,0,0,1,.32-.2l-1.79.76a1.88,1.88,0,0,1,.45-.12l-2,.27a1.75,1.75,0,0,1,.56,0l-2-.27a2.55,2.55,0,0,1,.54.15l-1.79-.75a1.83,1.83,0,0,1,.49.28L191,229.94a2.13,2.13,0,0,1,.3.3l-1.18-1.52a1.5,1.5,0,0,1,.19.32l-.75-1.79a1.56,1.56,0,0,1,.1.37l-.27-2a1.29,1.29,0,0,1,0,.34l.27-2a1.89,1.89,0,0,1-.09.34l.75-1.79a1.49,1.49,0,0,1-.18.3l1.17-1.51a1.79,1.79,0,0,1-.28.27l1.52-1.17a2.67,2.67,0,0,1-.43.25l1.79-.76a1.8,1.8,0,0,1-.55.15l2-.26a1.93,1.93,0,0,1-.48,0l2,.27a1.91,1.91,0,0,1-.41-.11l1.79.75a1.17,1.17,0,0,1-.27-.15l1.52,1.17a.92.92,0,0,1-.22-.22l1.17,1.52a1.38,1.38,0,0,1-.17-.29l.76,1.79a.89.89,0,0,1-.07-.28l.26,2a.89.89,0,0,1,0-.28l-.27,2a1.77,1.77,0,0,1,.08-.31l-.75,1.79a1.68,1.68,0,0,1,.21-.36l-1.17,1.52a2.45,2.45,0,0,1,.36-.36l-1.51,1.17a2.33,2.33,0,0,1,.41-.24l-1.8.76a1.78,1.78,0,0,1,.45-.13l-2,.27a1.09,1.09,0,0,1,.36,0l-2-.27a.9.9,0,0,1,.27.07l-1.79-.76a1.49,1.49,0,0,1,.24.14l-1.52-1.17a.77.77,0,0,1,.18.18l5.31-12.8a1.88,1.88,0,0,1-.34,0l2,.27a3,3,0,0,1-.43-.12l1.79.75a2.15,2.15,0,0,1-.49-.28l1.52,1.17a2.52,2.52,0,0,1-.4-.4l1.17,1.51a2.18,2.18,0,0,1-.29-.49l.76,1.79a2.09,2.09,0,0,1-.13-.49l.26,2a1.7,1.7,0,0,1,0-.45l-.27,2s0-.08,0-.11l-5.24,5.23.25,0-2,.27a1.62,1.62,0,0,1,.44,0l-2-.27a2.52,2.52,0,0,1,.47.13l-1.8-.76a2.36,2.36,0,0,1,.51.3l-1.52-1.18a3.33,3.33,0,0,1,.46.46l-1.18-1.51a2.43,2.43,0,0,1,.33.56l-.75-1.8a2.82,2.82,0,0,1,.15.57l-.27-2a1.92,1.92,0,0,1,0,.48l.27-2a1.85,1.85,0,0,1-.11.42l.75-1.79a1.36,1.36,0,0,1-.21.37l1.18-1.51a2.13,2.13,0,0,1-.3.3l1.52-1.18a2.36,2.36,0,0,1-.4.24l1.79-.76a2.38,2.38,0,0,1-.52.15l2-.27a2.28,2.28,0,0,1-.69,0l2,.27a2.72,2.72,0,0,1-.62-.17l1.79.76a2.43,2.43,0,0,1-.52-.3l1.52,1.17a2,2,0,0,1-.36-.35l1.17,1.52a2.3,2.3,0,0,1-.23-.4l.76,1.79a1.56,1.56,0,0,1-.1-.37l-.76,5.78.08-.11-1.17,1.52a1.36,1.36,0,0,1,.24-.24L196.85,231a1.78,1.78,0,0,1,.3-.17l-1.8.76a1.86,1.86,0,0,1,.46-.13l-2,.27a2.35,2.35,0,0,1,.53,0l-2-.27a2.39,2.39,0,0,1,.54.15l-1.79-.75a2.32,2.32,0,0,1,.38.21L190,229.9a2.13,2.13,0,0,1,.3.3l-1.17-1.52a1.43,1.43,0,0,1,.16.3l-.75-1.79a.65.65,0,0,1,.06.21l1.93-7.3-.12.12,1.51-1.17a.78.78,0,0,1-.18.11l1.79-.76a.72.72,0,0,1-.25.07l2-.27a1.6,1.6,0,0,1-.31,0l2,.27a1.32,1.32,0,0,1-.3-.09l1.79.76a1.09,1.09,0,0,1-.23-.14l1.52,1.18-.19-.18,1.17,1.51a1.62,1.62,0,0,1-.1-.18l.75,1.79a1.09,1.09,0,0,1-.05-.17,8.38,8.38,0,0,0-3.44-4.48,5.51,5.51,0,0,0-2.79-.89,5.63,5.63,0,0,0-3,.13l-1.79.76a7.49,7.49,0,0,0-2.7,2.69l-.75,1.79a7.51,7.51,0,0,0,0,4,6.25,6.25,0,0,0,.9,2.13,8.63,8.63,0,0,0,5.06,3.83l.11,0c.5.11,1.52.22,2,.28h.25a8.36,8.36,0,0,0,4.1-1.1,6.15,6.15,0,0,0,1.83-1.41l.59-.75A5.71,5.71,0,0,0,203,227.4l.27-2-.27-2a1.72,1.72,0,0,0-.07-.21,8.88,8.88,0,0,0-2.1-3.61,1.66,1.66,0,0,0-.26-.27c-.43-.36-1.1-.87-1.55-1.2l-.11-.07a1.18,1.18,0,0,0-.19-.11,9.8,9.8,0,0,0-4.5-1.22h-.39a10.5,10.5,0,0,0-2.37.36l-.12,0c-.52.21-1.34.53-1.83.78a.56.56,0,0,0-.17.09l-.09.06c-.43.3-1.15.86-1.55,1.2a1.29,1.29,0,0,0-.17.16,16.7,16.7,0,0,0-1.27,1.64c-.1.15-.71,1.64-.78,1.83a7.76,7.76,0,0,0,0,4,10.26,10.26,0,0,0,.87,2.16,1.29,1.29,0,0,0,.19.32,10.2,10.2,0,0,0,1.42,1.8c.28.25.63.49.89.69s.59.49.9.69a2.75,2.75,0,0,0,.38.2,17.64,17.64,0,0,0,2.12.87,17.27,17.27,0,0,0,2.38.34h.39a14.67,14.67,0,0,0,2.37-.32,9.42,9.42,0,0,0,1.26-.49,6.65,6.65,0,0,0,1.24-.58,10.5,10.5,0,0,0,1.77-1.39.27.27,0,0,1,.07-.08c.35-.43.87-1.1,1.19-1.56l.14-.21a9.28,9.28,0,0,0,1.22-4.6,10,10,0,0,0-1.24-4.69,2.69,2.69,0,0,0-.28-.46,13,13,0,0,0-1.5-1.87l-.09-.08c-.49-.4-1.09-.87-1.6-1.24l-.2-.13-.27-.13c-.54-.24-1.27-.57-1.83-.78l-.14,0a9.24,9.24,0,0,0-4.95,0,7.55,7.55,0,0,0-3.31,1.93,7.39,7.39,0,0,0-1.92,3.31,10.41,10.41,0,0,0-.3,2.42s0,.09,0,.14c.07.62.17,1.43.28,2.05a1.05,1.05,0,0,0,.06.24,11.4,11.4,0,0,0,.92,2.19,1.53,1.53,0,0,0,.14.21c.2.29.44.58.63.83s.43.58.66.85a6.6,6.6,0,0,0,1.09.9,7.4,7.4,0,0,0,1.14.83c.33.16.71.3,1,.42s.65.29,1,.41a1.09,1.09,0,0,0,.24.07l.11,0c.61.11,1.44.22,2.05.28h.29l2-.27,1.79-.76,1.52-1.17a5.6,5.6,0,0,0,1.55-2.41,7.57,7.57,0,0,0,.51-3.89,3.67,3.67,0,0,0-.51-1.89,5.63,5.63,0,0,0-1.55-2.42,6.52,6.52,0,0,0-1.87-1.46,8.58,8.58,0,0,0-4.2-1.13,9.13,9.13,0,0,0-4.67,1.24,9.6,9.6,0,0,0-3.41,3.35,8.29,8.29,0,0,0-.92,2.17,8.75,8.75,0,0,0,0,4.43,7,7,0,0,0,.91,2.23l.06.1c.23.34.93,1.24,1.2,1.55l.19.2a8.92,8.92,0,0,0,3.64,2.12,9.59,9.59,0,0,0,2.46.37,13.43,13.43,0,0,0,2.39-.28,2.35,2.35,0,0,0,.52-.14,9.31,9.31,0,0,0,4-2.44A8.79,8.79,0,0,0,204,228.3a7.61,7.61,0,0,0,.37-2.46,8.58,8.58,0,0,0-1.3-4.65,9.37,9.37,0,0,0-1.5-1.85,10.06,10.06,0,0,0-1.94-1.43,11,11,0,0,0-2.22-.9,10.74,10.74,0,0,0-2.52-.32,9.24,9.24,0,0,0-4.67,1.28,8.76,8.76,0,0,0-3,3,7.16,7.16,0,0,0-1,4,12.89,12.89,0,0,0,.34,2.27,8.74,8.74,0,0,0,1,2.2,9.62,9.62,0,0,0,3.06,3.06,10.46,10.46,0,0,0,2.26,1,9.78,9.78,0,0,0,2.5.39h.33a11.18,11.18,0,0,0,2.27-.32,8.75,8.75,0,0,0,3.8-2.21,8,8,0,0,0,2.12-3.75,8.38,8.38,0,0,0,0-4.22,10.05,10.05,0,0,0-.83-2.05,8.16,8.16,0,0,0-7.05-4.14,8.2,8.2,0,0,0-4.37,1.22,8.5,8.5,0,0,0-2.87,2.88,7.61,7.61,0,0,0-.88,2.08,8.27,8.27,0,0,0,0,4.25,8.38,8.38,0,0,0,3.44,4.48,5.51,5.51,0,0,0,2.79.89,5.63,5.63,0,0,0,3-.13l1.79-.76a7.49,7.49,0,0,0,2.7-2.69l.75-1.79a7.51,7.51,0,0,0,0-4Z" transform="translate(-87.61 -146.14)"/><path class="cls-1" d="M255.51,216.61l-3.21,0,5.3,12.8.16-.14-1.52,1.17a1.94,1.94,0,0,1,.4-.22l-1.79.76a1.82,1.82,0,0,1,.52-.14l-2,.27a2.53,2.53,0,0,1,.55,0l-2-.27a2.3,2.3,0,0,1,.53.14l-1.79-.76a2.67,2.67,0,0,1,.43.25l-1.52-1.17a1.66,1.66,0,0,1,.27.26l5.3-12.81H255l2,.27-.14,0,1.8.76a.46.46,0,0,1-.15-.09l1.52,1.18a1,1,0,0,1-.14-.15l1.17,1.52a1.28,1.28,0,0,1-.11-.2l.75,1.79a1.57,1.57,0,0,1-.08-.29l.27,2a1.22,1.22,0,0,1,0-.27l-.27,2a1.46,1.46,0,0,1,.05-.2l-.75,1.79a.39.39,0,0,1,.08-.14l-1.18,1.52.12-.12-1.51,1.17.12-.07-1.79.75h0l-5.78-.75,0,0L249.49,228a1.93,1.93,0,0,1,.35.35l-1.17-1.51a2.22,2.22,0,0,1,.25.42l-.76-1.79a2.31,2.31,0,0,1,.16.57l-.27-2a2.44,2.44,0,0,1,0,.54l.27-2a2.82,2.82,0,0,1-.07.31,7.22,7.22,0,0,0,2.68,7.88,5.73,5.73,0,0,0,2.55,1.35l2,.26a7.4,7.4,0,0,0,3.78-1l1.52-1.17a7.55,7.55,0,0,0,1.93-3.31,2.82,2.82,0,0,0,.07-.31c.1-.61.21-1.42.28-2v-.07a1.09,1.09,0,0,0,0-.18.76.76,0,0,0,0-.15.28.28,0,0,0,0-.09c-.06-.54-.19-1.49-.27-2,0-.11,0-.22-.07-.33a.87.87,0,0,0-.07-.17c-.23-.6-.51-1.29-.79-1.88a1.92,1.92,0,0,0-.18-.31,14,14,0,0,0-1.34-1.73,7.89,7.89,0,0,0-1-.8,7.59,7.59,0,0,0-.8-.62l-1.79-.75-2-.27-2,.27a8.29,8.29,0,0,0-1.82.77l-.09,0c-.25.15-1.75,1.35-.78.6a9.72,9.72,0,0,0-.81.63,8.23,8.23,0,0,0-2.11,3.6s0,.07,0,.1c-.06.29-.25,1.72-.27,2a.09.09,0,0,1,0,0,1.7,1.7,0,0,0,0,.22,15.09,15.09,0,0,0,.31,2.17.56.56,0,0,0,0,.12c.08.2.67,1.61.76,1.8l0,.07a.61.61,0,0,0,.07.1,8.61,8.61,0,0,0,.6.78,10,10,0,0,0,.62.81,8.14,8.14,0,0,0,1.67,1.3,7.87,7.87,0,0,0,2,.84h0l2,.26h.17l2-.26,1.79-.76,1.52-1.17A5.63,5.63,0,0,0,262,227.1a3.67,3.67,0,0,0,.51-1.89,7.57,7.57,0,0,0-.51-3.89,5.6,5.6,0,0,0-1.55-2.41l-.15-.15-.09-.08c-.45-.38-1.08-.86-1.55-1.2a2,2,0,0,0-.37-.22c-.57-.27-1.27-.56-1.85-.79l-.1,0a.76.76,0,0,0-.2-.06l-.23,0c-.62-.1-1.41-.22-2-.28h-.44c-.65.05-1.41.18-2.06.27a2,2,0,0,0-.41.1l-.11,0c-.56.22-1.29.52-1.83.77l-.2.11a7.87,7.87,0,0,0-.92.69c-.27.21-.64.46-.92.72l-1.17,1.52-.76,1.79-.26,2a5.59,5.59,0,0,0,.64,2.88,7.46,7.46,0,0,0,4,4,5.71,5.71,0,0,0,2.89.65l3.21,0a8.36,8.36,0,0,0,5.3-2.2,5.51,5.51,0,0,0,1.55-2.41,5.66,5.66,0,0,0,.65-2.89l-.27-2a7.46,7.46,0,0,0-1.93-3.31l-1.51-1.17a7.43,7.43,0,0,0-3.79-1Z" transform="translate(-87.61 -146.14)"/><path class="cls-1" d="M295.09,226.9a2.29,2.29,0,0,1,.09-.28l-.76,1.79a2.77,2.77,0,0,1,.22-.37l-1.17,1.52a2.2,2.2,0,0,1,.31-.3l-1.52,1.17a2.22,2.22,0,0,1,.42-.25l-1.79.76a2.38,2.38,0,0,1,.52-.15l-2,.27a2,2,0,0,1,.49,0l-2-.27a2,2,0,0,1,.42.12l-1.79-.76a2,2,0,0,1,.25.14L284.09,220a1.67,1.67,0,0,1-.16.24l1.18-1.52a1.82,1.82,0,0,1-.34.34l1.52-1.17a2.39,2.39,0,0,1-.49.28l1.79-.75a2.91,2.91,0,0,1-.66.17l2-.27a2.22,2.22,0,0,1-.63,0l2,.27a2.67,2.67,0,0,1-.6-.16l1.79.76a2.07,2.07,0,0,1-.45-.27l1.52,1.18a2.27,2.27,0,0,1-.31-.31l2.2,5.31c0-.05,0-.1,0-.16l-.27,2a2.38,2.38,0,0,1,.16-.58l-.76,1.79a2.64,2.64,0,0,1,.34-.55l-1.18,1.52a3,3,0,0,1,.51-.5l-1.52,1.18a3.3,3.3,0,0,1,.65-.39l-1.79.76a2.74,2.74,0,0,1,.73-.2l-2,.27a2.74,2.74,0,0,1,.64,0l-2-.27a2.38,2.38,0,0,1,.58.16l-1.8-.76.14.06L283.2,222a2.11,2.11,0,0,1,0,.25l.27-2a2.38,2.38,0,0,1-.15.52l.76-1.79a3.24,3.24,0,0,1-.28.47l1.17-1.52a2.5,2.5,0,0,1-.46.46L286,217.2a3.37,3.37,0,0,1-.61.36l1.79-.76a2.23,2.23,0,0,1-.67.19l2-.27a2,2,0,0,1-.59,0l2,.27a2.85,2.85,0,0,1-.48-.13l1.79.75a2,2,0,0,1-.4-.23l1.52,1.17a1.44,1.44,0,0,1-.27-.28l1.17,1.52a1.13,1.13,0,0,1-.12-.21l.75,1.79a1,1,0,0,1-.06-.23l.26,2V223l-.27,2a.75.75,0,0,1,0-.16l-.76,1.79.06-.1L292,228l.11-.11-1.52,1.18.13-.08-1.79.75.19-.05-2,.27a.6.6,0,0,1,.19,0l-2-.27.14,0-1.79-.76.09.05-1.52-1.17a.23.23,0,0,1,.07.07l-1.17-1.52,0,.06-.75-1.79,0,.1-.27-2v0a8.42,8.42,0,0,0,2.2,5.31,8.28,8.28,0,0,0,5.3,2.19l2-.27a7.35,7.35,0,0,0,3.3-1.92l1.18-1.52a7.41,7.41,0,0,0,1-3.79c0-.26-.2-1.77-.27-2l0-.09a8.79,8.79,0,0,0-3.56-4.62,8.63,8.63,0,0,0-1.9-.81,7.54,7.54,0,0,0-2.27-.3c-.24,0-1.78.21-2,.27H285l-.08,0q-.46.18-.93.39t-.93.39l-.07,0c-.15.09-1.41,1.07-1.55,1.2a7.19,7.19,0,0,0-.69.86,4.27,4.27,0,0,0-1,1.76,6,6,0,0,0-.68,3.07,8.41,8.41,0,0,0,2.56,6.09l.1.09c.44.37,1.09.87,1.57,1.21l.22.13a10.72,10.72,0,0,0,2.16.9,12.54,12.54,0,0,0,2.36.33,1.85,1.85,0,0,0,.47,0,21.59,21.59,0,0,0,2.14-.29l.2,0a15,15,0,0,0,2.17-.9,2.82,2.82,0,0,0,.38-.21,14.69,14.69,0,0,0,1.83-1.42,2.65,2.65,0,0,0,.33-.34,13.79,13.79,0,0,0,1.41-1.9,10.68,10.68,0,0,0,.9-2.21,11.5,11.5,0,0,0,.18-1.19,12.56,12.56,0,0,0,.15-1.25,7.52,7.52,0,0,0-3.72-6.48l-.13-.06c-.56-.25-1.28-.57-1.84-.78l-.24-.08a13.38,13.38,0,0,0-2.44-.33,2.68,2.68,0,0,0-.49,0,14.4,14.4,0,0,0-2.44.36,17.89,17.89,0,0,0-2.22.92,3.4,3.4,0,0,0-.45.28,9.94,9.94,0,0,0-3.33,3.33,2.75,2.75,0,0,0-.24.41,11.61,11.61,0,0,0-.9,2.24l0,.12c-.11.61-.2,1.43-.27,2a1,1,0,0,0,0,.16l.14,1a5.51,5.51,0,0,0,.89,2.79,7,7,0,0,0,2.23,2.41,6.61,6.61,0,0,0,1.13.81c.31.15.7.3,1,.42s.65.29,1,.41l.26.08a14.78,14.78,0,0,0,2.39.33,13.94,13.94,0,0,0,2.48-.28,3,3,0,0,0,.52-.13,11.2,11.2,0,0,0,2.22-1,9.49,9.49,0,0,0,3.38-3.4,5.51,5.51,0,0,0,.89-2.79,5.64,5.64,0,0,0-.13-3L297,220a7.46,7.46,0,0,0-2.69-2.69.72.72,0,0,0-.21-.12c-.51-.25-1.3-.57-1.83-.78l-.12,0a10.22,10.22,0,0,0-2.39-.35h-.36c-.6.07-1.47.17-2.07.28a3.19,3.19,0,0,0-.44.13c-.5.2-1.35.55-1.84.78l-.11,0-.21.13a10.94,10.94,0,0,0-1.83,1.44l-.08.09c-.37.45-.86,1.09-1.2,1.56l-.13.2,0,.11-.39.92c-.13.31-.27.62-.39.94a1.55,1.55,0,0,0-.07.23,5.64,5.64,0,0,0-.13,3,5.51,5.51,0,0,0,.89,2.79,8.46,8.46,0,0,0,4.48,3.45l2,.27a7.51,7.51,0,0,0,3.79-1l1.52-1.17a7.44,7.44,0,0,0,1.92-3.31Z" transform="translate(-87.61 -146.14)"/><path class="cls-1" d="M322.08,213.39l.33,12.25a7.8,7.8,0,0,0,2.2,5.3,7.5,7.5,0,0,0,12.8-5.3l-.33-12.25a7.81,7.81,0,0,0-2.2-5.3,7.5,7.5,0,0,0-12.8,5.3Z" transform="translate(-87.61 -146.14)"/><path class="cls-1" d="M156.7,215.52c3.93,0,7.68-3.45,7.5-7.5a7.63,7.63,0,0,0-7.5-7.5c-3.92,0-7.68,3.45-7.5,7.5a7.63,7.63,0,0,0,7.5,7.5Z" transform="translate(-87.61 -146.14)"/><path class="cls-1" d="M168.88,316.71l31.42-25.27a7.48,7.48,0,0,0,2.19-5.3,7.6,7.6,0,0,0-2.19-5.3,7.53,7.53,0,0,0-5.31-2.2,8.59,8.59,0,0,0-5.3,2.2L158.28,306.1a7.49,7.49,0,0,0-2.2,5.3,7.66,7.66,0,0,0,2.2,5.31,7.52,7.52,0,0,0,5.3,2.19,8.61,8.61,0,0,0,5.3-2.19Z" transform="translate(-87.61 -146.14)"/><path class="cls-1" d="M100.8,169l7.58-7.74a7.28,7.28,0,0,0,1.55-8.19,5.63,5.63,0,0,0-1.55-2.42,7.56,7.56,0,0,0-5.31-2.19l-2,.26a7.55,7.55,0,0,0-3.31,1.93l-7.58,7.74a7.28,7.28,0,0,0-1.55,8.19A5.63,5.63,0,0,0,90.19,169a7.56,7.56,0,0,0,5.31,2.19l2-.26A7.55,7.55,0,0,0,100.8,169Z" transform="translate(-87.61 -146.14)"/><path class="cls-1" d="M379.19,159.35a44,44,0,0,1,6.37,6.65,5.54,5.54,0,0,0,2.42,1.55,6.75,6.75,0,0,0,5.78,0,5.51,5.51,0,0,0,2.41-1.55l1.17-1.51a7.54,7.54,0,0,0,1-3.79l-.27-2a7.5,7.5,0,0,0-1.93-3.31,43.63,43.63,0,0,0-6.37-6.66,5.63,5.63,0,0,0-2.42-1.55,6.73,6.73,0,0,0-5.77,0,5.63,5.63,0,0,0-2.42,1.55L378,150.26a7.51,7.51,0,0,0-1,3.78l.27,2a7.55,7.55,0,0,0,1.93,3.31Z" transform="translate(-87.61 -146.14)"/></svg>