<svg id="Bass" xmlns="http://www.w3.org/2000/svg" viewBox="0 0 359.69 338.17"><defs><style>.cls-1{fill:#231f20;}</style></defs><g id="Layer_3_copy_2" data-name="Layer 3 copy 2"><path class="cls-1" d="M83.92,367.32l41.36-44.15c6.59-7-4-17.67-10.61-10.6L73.31,356.72c-6.6,7,4,17.67,10.61,10.6Z" transform="translate(-70.76 -80.94)"/><path class="cls-1" d="M135,308.3c3.44-13.67-2.37-25.83-2.77-39.35-.28-9.63-15.28-9.67-15,0,.35,11.71,6.23,23.74,3.31,35.37-2.35,9.36,12.11,13.36,14.46,4Z" transform="translate(-70.76 -80.94)"/><path class="cls-1" d="M132.85,269.3c.35-2.78,8.37-6.18,10.37-7.4,6.76-4.15,13.33-8.64,20-12.9q22.39-14.25,45.14-27.93c29.8-18,60-35.3,90.3-52.37q25.74-14.5,51.6-28.82c8.44-4.68.88-17.64-7.58-12.95-64.44,35.81-128.83,71.85-190.94,111.62-7,4.5-14.09,8.95-21.14,13.41-6.7,4.25-11.72,9.2-12.77,17.34-.52,4,3.82,7.5,7.5,7.5,4.48,0,7-3.47,7.5-7.5Z" transform="translate(-70.76 -80.94)"/><path class="cls-1" d="M362.91,133.86c17.46-9.66,39-.16,47.68,16.75,7.94,15.49,7.33,41.22-8.51,51.73-8,5.32-.5,18.32,7.57,13,23-15.28,25.78-49.13,13.9-72.26-12.49-24.29-43.86-35.6-68.21-22.14-8.45,4.68-.89,17.64,7.57,13Z" transform="translate(-70.76 -80.94)"/><path class="cls-1" d="M263.91,332.09c-30.14,3.85-60.45,8.68-84.43,28.89-7.39,6.23,3.27,16.8,10.61,10.61,20.52-17.3,48.08-21.21,73.82-24.5,4-.52,7.5-3.08,7.5-7.5,0-3.66-3.46-8-7.5-7.5Z" transform="translate(-70.76 -80.94)"/><path class="cls-1" d="M184.42,356.67l-4.31,5.26a8.1,8.1,0,0,0-2.19,5.3,7.69,7.69,0,0,0,2.19,5.31,7.56,7.56,0,0,0,5.31,2.19,7.31,7.31,0,0,0,5.3-2.19c1.44-1.76,2.88-3.51,4.31-5.27a8.06,8.06,0,0,0,2.2-5.3,7.61,7.61,0,0,0-2.2-5.3,7.52,7.52,0,0,0-5.3-2.2,7.3,7.3,0,0,0-5.31,2.2Z" transform="translate(-70.76 -80.94)"/><path class="cls-1" d="M121.57,304.1a62.05,62.05,0,0,1-7.07,9.45c-2.61,2.93-3.1,7.76,0,10.61,2.85,2.62,7.82,3.12,10.61,0a93,93,0,0,0,9.41-12.49,7.56,7.56,0,0,0-2.69-10.26,7.66,7.66,0,0,0-10.26,2.69Z" transform="translate(-70.76 -80.94)"/><path class="cls-1" d="M183,357.67q-20.92,22.68-40.1,46.86c-2.53,3.2-3.06,7.48,0,10.61,2.58,2.64,8.1,3.17,10.61,0q19.17-24.18,40.1-46.86c6.54-7.08-4-17.72-10.61-10.61Z" transform="translate(-70.76 -80.94)"/><path class="cls-1" d="M150.92,418.13a16.31,16.31,0,0,0,5.85-5.79,7.77,7.77,0,0,0,.76-5.78,7.67,7.67,0,0,0-3.45-4.48,7.59,7.59,0,0,0-5.78-.76,7.92,7.92,0,0,0-4.48,3.45,8.32,8.32,0,0,1-.56.85l1.17-1.52a9.45,9.45,0,0,1-1.58,1.58l1.52-1.18a9.42,9.42,0,0,1-1,.67,7.76,7.76,0,0,0-3.45,4.49,7.65,7.65,0,0,0,.76,5.77,7.52,7.52,0,0,0,4.48,3.45,7.87,7.87,0,0,0,5.78-.75Z" transform="translate(-70.76 -80.94)"/><circle class="cls-1" cx="63.11" cy="129.95" r="22.21"/><circle class="cls-1" cx="125.99" cy="89.87" r="22.21"/><circle class="cls-1" cx="189.47" cy="55.92" r="22.21"/><circle class="cls-1" cx="253.52" cy="22.21" r="22.21"/></g><path class="cls-1" d="M274.86,340.83a1087.65,1087.65,0,0,0,67.83-89.4c4.59-6.74,8.6-15.11,14.57-20.76,4.48-4.23,10.84-5.41,16.77-6,14.15-1.35,28.26-.9,39.77-10.54,7.4-6.21-3.26-16.78-10.61-10.61-4.58,3.85-11,4.74-16.75,5.24-7.05.62-14.14.75-21.11,2.07a36.3,36.3,0,0,0-18.67,9.21c-6,5.81-10.16,13.79-14.8,20.67a1053.14,1053.14,0,0,1-67.6,89.49c-6.18,7.34,4.38,18,10.6,10.6Z" transform="translate(-70.76 -80.94)"/><path class="cls-1" d="M268.65,346.08a27.23,27.23,0,0,0,12-14.58c.81-2.28-2.81-3.26-3.61-1a23.32,23.32,0,0,1-10.28,12.35c-2.08,1.22-.19,4.46,1.89,3.23Z" transform="translate(-70.76 -80.94)"/><path class="cls-1" d="M412.66,214.73a38.69,38.69,0,0,0,12-17.36c2.8-8.3.63-17.82,4.82-25.61,1.14-2.12-2.09-4-3.24-1.89-3.77,7-2.54,14.56-4,22.12A34.91,34.91,0,0,1,410,212.08c-1.85,1.55.81,4.19,2.65,2.65Z" transform="translate(-70.76 -80.94)"/><path class="cls-1" d="M353.56,125a43.09,43.09,0,0,1,32.91-3.71c2.32.66,3.32-3,1-3.62a47,47,0,0,0-35.8,4.09c-2.11,1.16-.22,4.4,1.89,3.24Z" transform="translate(-70.76 -80.94)"/><path class="cls-1" d="M118.5,315c4.5-5.41,8.6-10.87,9-18.14.11-2.19-3-2.44-3.68-.5A71.07,71.07,0,0,1,116,312.83l3.24,1.9q3.32-7.26,6.33-14.64l-3.62-1-3.44,9.81c-.69,2,2.51,3.36,3.43,1.44A65.42,65.42,0,0,0,128,288.92c.27-2.4-3.48-2.38-3.75,0a59.92,59.92,0,0,1-5.63,19.54l3.43,1.45,3.44-9.82c.81-2.32-2.73-3.17-3.62-1q-2.84,6.93-6,13.73a1.88,1.88,0,0,0,3.24,1.9,75.84,75.84,0,0,0,8.22-17.36l-3.69-.5c-.31,6.15-4.09,10.94-7.87,15.49-1.53,1.85,1.11,4.51,2.65,2.65Z" transform="translate(-70.76 -80.94)"/><path class="cls-1" d="M154.22,415.18a518.24,518.24,0,0,1,43.54-50.63l-2.65-2.65-39.43,42.73,2.94,2.27a167.46,167.46,0,0,1,63.69-56.5c2.16-1.09.26-4.33-1.89-3.24a171.32,171.32,0,0,0-65,57.85c-1.17,1.77,1.51,3.83,3,2.27l39.43-42.73c1.64-1.76-.95-4.38-2.65-2.65A526.7,526.7,0,0,0,151,413.29c-1.45,1.92,1.81,3.8,3.24,1.89Z" transform="translate(-70.76 -80.94)"/><path class="cls-1" d="M151.86,417.84c4.3-4.44,6.35-10.18,9.24-15.52,1.14-2.13-2.09-4-3.24-1.9-2.72,5-4.61,10.59-8.65,14.76-1.68,1.74,1,4.39,2.65,2.66Z" transform="translate(-70.76 -80.94)"/><path class="cls-1" d="M363.05,216.34c6.7-3.75,14.33-4.48,21.81-5.54l24.22-3.4-1-3.62-30,5.93,1,3.62a141.93,141.93,0,0,0,26.67-9l-1.89-3.24-4.39,2.53a1.88,1.88,0,0,0,1.44,3.43,40.8,40.8,0,0,0,14.05-6.91c1.89-1.44,0-4.7-1.9-3.24a38.1,38.1,0,0,1-13.15,6.54l1.45,3.42,4.39-2.53c2.13-1.23.26-4.21-1.89-3.24a137,137,0,0,1-25.78,8.63c-2.36.55-1.35,4.08,1,3.62l30-5.93c2.41-.48,1.33-4-1-3.62L382,207.45c-7.25,1-14.37,2-20.85,5.65-2.1,1.18-.22,4.42,1.9,3.24Z" transform="translate(-70.76 -80.94)"/><path class="cls-1" d="M348.1,129.7l8.25-4.28c2.18-1.13.27-4.21-1.89-3.24l-10.89,4.9,1.9,3.24a70.88,70.88,0,0,1,9.54-5.27c2.21-1,.29-4.18-1.89-3.24L347,124.47l1.89,3.24a39.47,39.47,0,0,1,5.88-2.41l-1-3.62a25.49,25.49,0,0,0-11.85,8.43c-1.46,1.88,1.17,4.55,2.65,2.65a22.13,22.13,0,0,1,10.2-7.46c2.25-.8,1.32-4.37-1-3.62a46.35,46.35,0,0,0-6.77,2.79c-2.2,1.11-.27,4.17,1.89,3.24l6.17-2.66-1.89-3.24a71,71,0,0,0-9.55,5.27,1.88,1.88,0,0,0,1.9,3.24l10.88-4.9-1.89-3.24-8.25,4.28c-2.14,1.11-.25,4.35,1.89,3.24Z" transform="translate(-70.76 -80.94)"/><path class="cls-1" d="M344.94,130.08a50.82,50.82,0,0,1,11.27-6l-1.82-.48.06-.72c-1,2.17,2.22,4.08,3.24,1.89a3.06,3.06,0,0,0-.3-3.54c-1.13-1.22-2.36-.72-3.72-.17A53.39,53.39,0,0,0,343,126.84c-2,1.37-.09,4.63,1.9,3.24Z" transform="translate(-70.76 -80.94)"/><path class="cls-1" d="M343.05,141.29l21-10.5-1.89-3.24-19.33,10.34c-2.16,1.16-.26,4.24,1.89,3.24l17.71-8.21-1.89-3.24-14.93,7.07c-2.18,1-.28,4.27,1.89,3.24l14.93-7.07c2.19-1,.28-4.25-1.89-3.24l-17.71,8.21,1.89,3.24,19.33-10.34c2.14-1.14.26-4.31-1.89-3.24l-21,10.5c-2.16,1.08-.26,4.31,1.89,3.24Z" transform="translate(-70.76 -80.94)"/><path class="cls-1" d="M344.6,141.22a221.18,221.18,0,0,0,28.11-11.69c2.16-1.08.27-4.32-1.89-3.24a214.1,214.1,0,0,1-27.21,11.32c-2.28.76-1.3,4.39,1,3.61Z" transform="translate(-70.76 -80.94)"/><path class="cls-1" d="M360.18,133.15a68.72,68.72,0,0,1,23.71-3.69c2.41,0,2.41-3.7,0-3.75a71.37,71.37,0,0,0-24.71,3.83c-2.27.77-1.3,4.39,1,3.61Z" transform="translate(-70.76 -80.94)"/><path class="cls-1" d="M358.69,131.07l-2.83.57,1,3.62a153.87,153.87,0,0,1,29.45-5.91c2.37-.24,2.4-4,0-3.75a159.56,159.56,0,0,0-30.45,6,1.88,1.88,0,0,0,1,3.62l2.83-.58c2.36-.48,1.36-4.09-1-3.61Z" transform="translate(-70.76 -80.94)"/><path class="cls-1" d="M119.79,265.22l-.17.22,1.32-.54c.59.51.89.53.92.05a5.06,5.06,0,0,1,.17-.67,4.83,4.83,0,0,1,2.41-2.67l-2.76-1.12c.29.73,0,1.67-.9,1.69l1.32,3.2,6.52-5.84c1.8-1.62-.86-4.26-2.65-2.65l-6.52,5.84a1.89,1.89,0,0,0,1.33,3.2,4.88,4.88,0,0,0,4.52-6.44,1.92,1.92,0,0,0-2.76-1.12,8.46,8.46,0,0,0-4.41,6.28,3.54,3.54,0,0,0,1,3.29,2.29,2.29,0,0,0,3.36-.07c1.49-1.86-1.14-4.53-2.66-2.65Z" transform="translate(-70.76 -80.94)"/><path class="cls-1" d="M75.16,364.54c-1.14-.82-.64-2.59,0-3.53a11.61,11.61,0,0,1,3.76-2.89c2.07-1.24.18-4.48-1.9-3.24-2.43,1.45-5.1,3.2-6,6.07a6,6,0,0,0,2.21,6.82c2,1.4,3.85-1.85,1.89-3.23Z" transform="translate(-70.76 -80.94)"/></svg>