<svg id="Layer_20" data-name="Layer 20" xmlns="http://www.w3.org/2000/svg" viewBox="0 0 330.65 216.37"><defs><style>.cls-1{fill:#231f20;}</style></defs><path class="cls-1" d="M84.85,150.52V348.13c0,9.65,15,9.67,15,0V150.52c0-9.66-15-9.67-15,0Z" transform="translate(-84.85 -141.81)"/><path class="cls-1" d="M96.44,157q118.51-.27,237-.13,33.51,0,67,.11c9.65,0,9.66-15,0-15q-118.5-.24-237-.1-33.53,0-67.05.12c-9.66,0-9.67,15,0,15Z" transform="translate(-84.85 -141.81)"/><path class="cls-1" d="M94.39,358.19c75-1.68,150-.69,225-.29,9.65.06,9.66-14.94,0-15-75-.4-150-1.39-225,.29-9.63.21-9.67,15.21,0,15Z" transform="translate(-84.85 -141.81)"/><path class="cls-1" d="M147.34,350.69v-95c0-9.66-15-9.67-15,0v95c0,9.65,15,9.66,15,0Z" transform="translate(-84.85 -141.81)"/><path class="cls-1" d="M135.75,261.16H146c3.92,0,7.68-3.45,7.5-7.5a7.63,7.63,0,0,0-7.5-7.5H135.75c-3.92,0-7.68,3.45-7.5,7.5a7.63,7.63,0,0,0,7.5,7.5Z" transform="translate(-84.85 -141.81)"/><path class="cls-1" d="M140.7,253.66V158.17c0-9.65-15-9.66-15,0v95.49c0,9.66,15,9.67,15,0Z" transform="translate(-84.85 -141.81)"/><path class="cls-1" d="M154.49,251.62V158.69c0-9.66-15-9.67-15,0v92.93c0,9.65,15,9.67,15,0Z" transform="translate(-84.85 -141.81)"/><path class="cls-1" d="M133.39,159.2q-1.81,31.13-.57,62.3c.39,9.61,15.39,9.66,15,0q-1.24-31.16.57-62.3c.57-9.65-14.43-9.61-15,0Z" transform="translate(-84.85 -141.81)"/><path class="cls-1" d="M134.22,261.67H147a7.5,7.5,0,0,0,0-15H134.22a7.5,7.5,0,1,0,0,15Z" transform="translate(-84.85 -141.81)"/><path class="cls-1" d="M140.19,253.66V156.39c0-9.65-15-9.67-15,0v97.78c0,9.66,15,9.67,15,0V156.39c0-9.65-15-9.67-15,0v97.27c0,9.66,15,9.67,15,0Z" transform="translate(-84.85 -141.81)"/><path class="cls-1" d="M192.79,350.17v-86.8c0-9.66-15-9.67-15,0v86.8c0,9.66,15,9.67,15,0Z" transform="translate(-84.85 -141.81)"/><path class="cls-1" d="M187.68,257.75V156.57c0-9.65-15-9.67-15,0v2.12c0,9.65,15,9.66,15,0v-2.12c0-9.65-15-9.67-15,0V257.75c0,9.65,15,9.67,15,0Z" transform="translate(-84.85 -141.81)"/><path class="cls-1" d="M198.4,257.24V158.69c0-9.66-15-9.67-15,0v98.55c0,9.65,15,9.67,15,0Z" transform="translate(-84.85 -141.81)"/><path class="cls-1" d="M187.17,257.75V152.56c0-9.65-15-9.67-15,0V257.75c0,9.65,15,9.67,15,0Z" transform="translate(-84.85 -141.81)"/><path class="cls-1" d="M237.72,350.17V157.66c0-9.65-15-9.66-15,0V350.17c0,9.66,15,9.67,15,0Z" transform="translate(-84.85 -141.81)"/><path class="cls-1" d="M281.13,348.39v-95c0-9.65-15-9.67-15,0v95c0,9.65,15,9.67,15,0Z" transform="translate(-84.85 -141.81)"/><path class="cls-1" d="M269.54,258.87h10.21c3.93,0,7.69-3.45,7.5-7.5a7.62,7.62,0,0,0-7.5-7.5H269.54c-3.92,0-7.68,3.45-7.5,7.5a7.63,7.63,0,0,0,7.5,7.5Z" transform="translate(-84.85 -141.81)"/><path class="cls-1" d="M274.49,251.37V155.88c0-9.65-15-9.67-15,0v95.49c0,9.65,15,9.66,15,0Z" transform="translate(-84.85 -141.81)"/><path class="cls-1" d="M288.28,249.32V156.39c0-9.65-15-9.67-15,0v92.93c0,9.66,15,9.67,15,0Z" transform="translate(-84.85 -141.81)"/><path class="cls-1" d="M267.18,156.9q-1.81,31.13-.57,62.3c.39,9.62,15.39,9.67,15,0q-1.26-31.15.57-62.3c.56-9.64-14.44-9.61-15,0Z" transform="translate(-84.85 -141.81)"/><path class="cls-1" d="M268,259.38h12.77a7.5,7.5,0,0,0,0-15H268a7.5,7.5,0,0,0,0,15Z" transform="translate(-84.85 -141.81)"/><path class="cls-1" d="M274,251.37V154.09c0-9.65-15-9.67-15,0v97.79c0,9.65,15,9.66,15,0V154.09c0-9.65-15-9.67-15,0v97.28c0,9.65,15,9.66,15,0Z" transform="translate(-84.85 -141.81)"/><path class="cls-1" d="M326.57,347.88V261.07c0-9.65-15-9.67-15,0v86.81c0,9.65,15,9.66,15,0Z" transform="translate(-84.85 -141.81)"/><path class="cls-1" d="M321.47,255.45V154.27c0-9.65-15-9.67-15,0v2.12c0,9.65,15,9.67,15,0v-2.12c0-9.65-15-9.67-15,0V255.45c0,9.65,15,9.67,15,0Z" transform="translate(-84.85 -141.81)"/><path class="cls-1" d="M332.19,254.94V156.39c0-9.65-15-9.67-15,0v98.55c0,9.65,15,9.67,15,0Z" transform="translate(-84.85 -141.81)"/><path class="cls-1" d="M321,255.45V150.26c0-9.65-15-9.67-15,0V255.45c0,9.65,15,9.67,15,0Z" transform="translate(-84.85 -141.81)"/><path class="cls-1" d="M372,348.13V261.32c0-9.65-15-9.66-15,0v86.81c0,9.65,15,9.67,15,0Z" transform="translate(-84.85 -141.81)"/><path class="cls-1" d="M366.91,255.71V154.53c0-9.65-15-9.67-15,0v2.11c0,9.65,15,9.67,15,0v-2.11c0-9.65-15-9.67-15,0V255.71c0,9.65,15,9.66,15,0Z" transform="translate(-84.85 -141.81)"/><path class="cls-1" d="M377.64,255.2V156.64c0-9.65-15-9.66-15,0V255.2c0,9.65,15,9.66,15,0Z" transform="translate(-84.85 -141.81)"/><path class="cls-1" d="M366.4,255.71V150.52c0-9.66-15-9.67-15,0V255.71c0,9.65,15,9.66,15,0Z" transform="translate(-84.85 -141.81)"/><path class="cls-1" d="M400.25,316.46q.08,15.84.17,31.67c.07,9.65,15.07,9.67,15,0q-.09-15.84-.17-31.67c0-9.65-15-9.67-15,0Z" transform="translate(-84.85 -141.81)"/><path class="cls-1" d="M400.42,155.4q-.09,14.11-.16,28.22c0,9.66,15,9.67,15,0q.08-14.1.16-28.22c.07-9.65-14.93-9.66-15,0Z" transform="translate(-84.85 -141.81)"/><path class="cls-1" d="M415.42,338.43v-6.64c0-3.92-3.44-7.68-7.5-7.5a7.63,7.63,0,0,0-7.5,7.5v6.64c0,3.92,3.45,7.68,7.5,7.5a7.63,7.63,0,0,0,7.5-7.5Z" transform="translate(-84.85 -141.81)"/><path class="cls-1" d="M415.48,157.83c.12-3.61-.41-7.17-2.67-10.1a10.77,10.77,0,0,0-11.57-4C397.5,144.9,394.73,149,396,153c1.22,3.75,5.22,6.49,9.23,5.24,1-.31-.74.09-.9.09a4.5,4.5,0,0,1-2.36-.56c-.24-.14-1.2-1.19-.61-.44l-.69-.9c.26.49.26.45,0-.14-.49-1-.14-.1,0,.17.26.81-.05-1.5-.11-.64-.05.68,0,1.38,0,2.06a7.56,7.56,0,0,0,7.5,7.5,7.64,7.64,0,0,0,7.5-7.5Z" transform="translate(-84.85 -141.81)"/><path class="cls-1" d="M412.54,146.93a16.31,16.31,0,0,0-11.26-4.49c-3.92,0-7.68,3.43-7.5,7.5a7.62,7.62,0,0,0,7.5,7.5,11.25,11.25,0,0,1,1.16.05l-2-.27a10,10,0,0,1,2.23.57l-1.79-.75a9.41,9.41,0,0,1,2,1.16L401.35,157a7.2,7.2,0,0,1,.58.5c2.89,2.66,7.79,3.08,10.61,0,2.65-2.89,3.09-7.77,0-10.6Z" transform="translate(-84.85 -141.81)"/></svg>