<?xml version="1.0" encoding="UTF-8"?><svg id="Layer_32" xmlns="http://www.w3.org/2000/svg" viewBox="0 0 393.54 377.74"><defs><style>.cls-1{font-family:MyriadPro-Regular, 'Myriad Pro';font-size:12px;}.cls-1,.cls-2{fill:#231f20;}</style></defs><g id="Layer_25"><path class="cls-2" d="M265.98,56.28c5.35,0,10.7,0,16.05,0,1.92,0,3.94-.84,5.3-2.2s2.28-3.44,2.2-5.3-.72-3.95-2.2-5.3-3.27-2.2-5.3-2.2c-5.35,0-10.7,0-16.05,0-1.92,0-3.94,.84-5.3,2.2s-2.28,3.44-2.2,5.3,.72,3.95,2.2,5.3,3.27,2.2,5.3,2.2h0Z"/><path class="cls-2" d="M205.27,56.28h12.56c1.92,0,3.94-.84,5.3-2.2s2.28-3.44,2.2-5.3-.72-3.95-2.2-5.3-3.27-2.2-5.3-2.2h-12.56c-1.92,0-3.94,.84-5.3,2.2s-2.28,3.44-2.2,5.3,.72,3.95,2.2,5.3,3.27,2.2,5.3,2.2h0Z"/><path class="cls-2" d="M143.6,56.28h14.94c1.92,0,3.94-.84,5.3-2.2s2.28-3.44,2.2-5.3-.72-3.95-2.2-5.3-3.27-2.2-5.3-2.2h-14.94c-1.92,0-3.94,.84-5.3,2.2s-2.28,3.44-2.2,5.3,.72,3.95,2.2,5.3,3.27,2.2,5.3,2.2h0Z"/><path class="cls-2" d="M73.68,56.28h21.67c3.92,0,7.68-3.45,7.5-7.5s-3.3-7.5-7.5-7.5h-21.67c-3.92,0-7.68,3.45-7.5,7.5s3.3,7.5,7.5,7.5h0Z"/><path class="cls-2" d="M64.65,50.32c0,34.8-.01,69.6-.02,104.4s0,68.97,0,103.46c0,19.59,0,39.18,0,58.76,0,3.92,3.45,7.68,7.5,7.5s7.5-3.3,7.5-7.5c0-34.72-.01-69.45-.01-104.17,0-34.51,0-69.02,0-103.52,0-19.64,0-39.28,.01-58.93,0-3.92-3.45-7.68-7.5-7.5s-7.5,3.3-7.5,7.5h0Z"/><path class="cls-2" d="M277.59,50.32c.02,30.15,.03,60.29,.03,90.44,0,29.83,0,59.66,0,89.48,0,16.85,0,33.7-.01,50.56,0,3.92,3.45,7.68,7.5,7.5s7.5-3.3,7.5-7.5c.01-30.04,.02-60.07,.02-90.11,0-29.86,0-59.72-.01-89.58,0-16.93-.01-33.86-.02-50.79,0-3.92-3.45-7.68-7.5-7.5s-7.5,3.3-7.5,7.5h0Z"/><path class="cls-2" d="M271.3,41.28h-10.72c-1.92,0-3.94,.84-5.3,2.2-.73,.68-1.25,1.48-1.55,2.41-.47,.89-.68,1.86-.65,2.89,.09,1.94,.72,3.95,2.2,5.3s3.27,2.2,5.3,2.2h10.72c1.92,0,3.94-.84,5.3-2.2,.73-.68,1.25-1.48,1.55-2.41,.47-.89,.68-1.86,.65-2.89-.09-1.94-.72-3.95-2.2-5.3s-3.27-2.2-5.3-2.2h0Z"/><path class="cls-2" d="M244.73,311.37c-21.33-.03-42.66-.05-63.99-.06-21.39,0-42.78,0-64.18,.02-12.11,.01-24.22,.02-36.33,.04-3.92,0-7.68,3.45-7.5,7.5s3.3,7.51,7.5,7.5c21.4-.03,42.8-.05,64.2-.06,21.37,0,42.74,0,64.12,.02,12.06,.01,24.12,.02,36.18,.04,3.92,0,7.68-3.45,7.5-7.5s-3.3-7.49-7.5-7.5h0Z"/><path class="cls-2" d="M86.22,311.37h-13.17c-1.92,0-3.94,.84-5.3,2.2s-2.28,3.44-2.2,5.3,.72,3.95,2.2,5.3,3.27,2.2,5.3,2.2h13.17c1.92,0,3.94-.84,5.3-2.2s2.28-3.44,2.2-5.3-.72-3.95-2.2-5.3-3.27-2.2-5.3-2.2h0Z"/></g><g id="Layer_29"><path class="cls-2" d="M114.37,115.59H244.31c3.92,0,7.68-3.45,7.5-7.5s-3.3-7.5-7.5-7.5H114.37c-3.92,0-7.68,3.45-7.5,7.5s3.3,7.5,7.5,7.5h0Z"/><path class="cls-2" d="M113.17,168.28H247.3c3.92,0,7.68-3.45,7.5-7.5s-3.3-7.5-7.5-7.5H113.17c-3.92,0-7.68,3.45-7.5,7.5s3.3,7.5,7.5,7.5h0Z"/><text class="cls-1" transform="translate(163.74 164.31)"><tspan x="0" y="0">&lt; 50</tspan></text></g><g id="Layer_29_copy"><path class="cls-2" d="M113.52,220.98H243.46c3.92,0,7.68-3.45,7.5-7.5s-3.3-7.5-7.5-7.5H113.52c-3.92,0-7.68,3.45-7.5,7.5s3.3,7.5,7.5,7.5h0Z"/><path class="cls-2" d="M112.32,273.67h71.96c3.92,0,7.68-3.45,7.5-7.5s-3.3-7.5-7.5-7.5H112.32c-3.92,0-7.68,3.45-7.5,7.5s3.3,7.5,7.5,7.5h0Z"/><text class="cls-1" transform="translate(162.89 269.69)"><tspan x="0" y="0">&lt; 50</tspan></text></g><g id="Layer_31"><path class="cls-2" d="M247.01,314.68v-38.92c0-3.92-3.45-7.68-7.5-7.5s-7.5,3.3-7.5,7.5v38.92c0,3.92,3.45,7.68,7.5,7.5s7.5-3.3,7.5-7.5h0Z"/><path class="cls-2" d="M240.71,282.06h40.12c3.92,0,7.68-3.45,7.5-7.5s-3.3-7.5-7.5-7.5h-40.12c-3.92,0-7.68,3.45-7.5,7.5s3.3,7.5,7.5,7.5h0Z"/><path class="cls-2" d="M251.27,323.43c12.97-11.96,25.67-24.22,38.07-36.77,2.76-2.79,3-7.86,0-10.61s-7.66-2.98-10.61,0c-12.4,12.55-25.1,24.81-38.07,36.77-2.89,2.67-2.9,7.94,0,10.61,3.09,2.84,7.52,2.84,10.61,0h0Z"/><path class="cls-2" d="M281.43,41.31H75.44c-3.92,0-7.68,3.45-7.5,7.5s3.3,7.5,7.5,7.5h205.99c3.92,0,7.68-3.45,7.5-7.5s-3.3-7.5-7.5-7.5h0Z"/></g></svg>