<svg id="Rhythm" xmlns="http://www.w3.org/2000/svg" viewBox="0 0 335.45 329.26"><defs><style>.cls-1{fill:#231f20;}</style></defs><g id="Layer_3_copy" data-name="Layer 3 copy"><path class="cls-1" d="M83.92,367.32l41.36-44.15c6.59-7-4-17.67-10.61-10.6L73.31,356.72c-6.6,7,4,17.67,10.61,10.6Z" transform="translate(-70.76 -89.64)"/><path class="cls-1" d="M135,308.3c3.08-12.37-1.19-23.47-2.57-35.67-.46-4-3.12-7.5-7.5-7.5-3.7,0-8,3.45-7.5,7.5,1.17,10.34,5.69,21.31,3.11,31.69-2.33,9.37,12.13,13.36,14.46,4Z" transform="translate(-70.76 -89.64)"/><path class="cls-1" d="M197.75,348.69A97.91,97.91,0,0,0,179.48,361c-3.09,2.62-2.7,7.91,0,10.61,3.06,3.07,7.5,2.63,10.61,0a80.78,80.78,0,0,1,15.23-9.95c8.57-4.44,1-17.39-7.57-12.95Z" transform="translate(-70.76 -89.64)"/><path class="cls-1" d="M184.42,356.67l-4.31,5.26a8.1,8.1,0,0,0-2.19,5.3,7.69,7.69,0,0,0,2.19,5.31,7.56,7.56,0,0,0,5.31,2.19,7.31,7.31,0,0,0,5.3-2.19c1.44-1.76,2.88-3.51,4.31-5.27a8.06,8.06,0,0,0,2.2-5.3,7.61,7.61,0,0,0-2.2-5.3,7.52,7.52,0,0,0-5.3-2.2,7.3,7.3,0,0,0-5.31,2.2Z" transform="translate(-70.76 -89.64)"/><path class="cls-1" d="M121.57,304.1a62.05,62.05,0,0,1-7.07,9.45c-2.61,2.93-3.1,7.76,0,10.61,2.85,2.62,7.82,3.12,10.61,0a93,93,0,0,0,9.41-12.49,7.56,7.56,0,0,0-2.69-10.26,7.66,7.66,0,0,0-10.26,2.69Z" transform="translate(-70.76 -89.64)"/><path class="cls-1" d="M183,357.67q-20.92,22.68-40.1,46.86c-2.53,3.2-3.06,7.48,0,10.61,2.58,2.64,8.1,3.17,10.61,0q19.17-24.18,40.1-46.86c6.54-7.08-4-17.72-10.61-10.61Z" transform="translate(-70.76 -89.64)"/><path class="cls-1" d="M151.29,417.9a16.84,16.84,0,0,0,5.48-5.56,7.49,7.49,0,0,0-2.69-10.26,7.59,7.59,0,0,0-5.78-.76,8,8,0,0,0-4.48,3.45,8.1,8.1,0,0,1-.62.91l1.17-1.51a9.53,9.53,0,0,1-1.42,1.42l1.52-1.17-.75.53a7.89,7.89,0,0,0-3.45,4.48,5.64,5.64,0,0,0-.13,3,5.51,5.51,0,0,0,.89,2.79,7.51,7.51,0,0,0,10.26,2.69Z" transform="translate(-70.76 -89.64)"/></g><g id="Layer_5_copy" data-name="Layer 5 copy"><path class="cls-1" d="M113.87,228.09l6,5.79L129,222.1,120.37,216l2.69,10.27a58,58,0,0,1,7.25-8.08L127,220.1l1-.34h-4a13.5,13.5,0,0,1,2.45,1.86c.62.46,2.81,3,1.72,1l-1-3.78c.18-3.31-.29-.57-1.24.7a20.86,20.86,0,0,1-2.12,2.3l12.81,5.3-.18-1.38c-.5-4-3.08-7.5-7.5-7.5-3.66,0-8,3.45-7.5,7.5l.18,1.38c.77,6.15,7.76,10.27,12.8,5.3,3-3,6.27-6.89,7.45-11,1.68-5.95-3.16-9.28-7.26-12.35-4.65-3.49-9.76-5.92-14.88-1.54-3.68,3.15-6.67,7.3-9.6,11.12-2.62,3.4-.27,8.16,2.69,10.26l8.62,6.11c7,5,15.14-6,9.09-11.78l-6-5.78c-7-6.69-17.59,3.9-10.61,10.6Z" transform="translate(-70.76 -89.64)"/><path class="cls-1" d="M151.18,184.07l6,5.79,9.09-11.78L157.64,172l1.52,11.78a70.91,70.91,0,0,1,8.69-9.86l-3.31,1.93,1-.36h-4a12.13,12.13,0,0,1,2.47,1.84c.64.46,2.8,3,1.73,1l-1-3.79c.22-3.26-.25-.66-1.1.5a22.46,22.46,0,0,1-2.45,2.71l12.8,5.3-.16-1.4c-.44-4-3.12-7.5-7.5-7.5-3.7,0-7.95,3.45-7.5,7.5l.16,1.4c.69,6.2,7.82,10.23,12.8,5.31,3-3,6.32-6.85,7.53-11,1.71-5.84-2.38-9.09-6.56-12.19s-8.67-6.2-14-3.09c-4.06,2.37-7.38,7.38-10.2,11-3.12,4-2.8,8.74,1.51,11.78l8.66,6.08c7,4.94,15.15-6,9.09-11.78l-6-5.78c-7-6.69-17.59,3.9-10.61,10.6Z" transform="translate(-70.76 -89.64)"/><path class="cls-1" d="M189.18,141.69l6,5.79,9.09-11.78-8.66-6.08,1.52,11.78a70.91,70.91,0,0,1,8.69-9.86l-3.31,1.93,1-.36h-4A12.41,12.41,0,0,1,202,135c.64.47,2.8,3,1.73,1l-1-3.78c.22-3.27-.25-.67-1.1.49a22.46,22.46,0,0,1-2.45,2.71l12.8,5.3-.16-1.4c-.45-4-3.12-7.5-7.5-7.5-3.7,0-7.95,3.45-7.5,7.5l.16,1.4c.69,6.2,7.82,10.23,12.8,5.31,3-3,6.32-6.85,7.53-11,1.71-5.84-2.38-9.09-6.56-12.19s-8.67-6.2-14-3.09c-4.06,2.37-7.38,7.38-10.2,11-3.12,4-2.8,8.74,1.51,11.78l8.66,6.08c7,4.94,15.15-6,9.09-11.78l-6-5.78c-7-6.69-17.59,3.9-10.61,10.6Z" transform="translate(-70.76 -89.64)"/><path class="cls-1" d="M203.05,362.61a113.94,113.94,0,0,1,25.64-.66c9.62.77,9.57-14.23,0-15a130.6,130.6,0,0,0-29.63,1.2c-4,.59-6.23,5.66-5.24,9.22,1.2,4.3,5.19,5.84,9.23,5.24Z" transform="translate(-70.76 -89.64)"/><path class="cls-1" d="M135.22,270.13l112.92-130.8c6.28-7.27-4.28-17.93-10.6-10.61L124.61,259.52c-6.28,7.28,4.29,17.93,10.61,10.61Z" transform="translate(-70.76 -89.64)"/><path class="cls-1" d="M237.09,358.12q69.81-59.87,135.38-124.39c6.89-6.78-3.71-17.38-10.6-10.6q-65.55,64.49-135.38,124.38c-7.34,6.3,3.31,16.86,10.6,10.61Z" transform="translate(-70.76 -89.64)"/><path class="cls-1" d="M367.46,154.79a159.16,159.16,0,0,1,17.31,22.72c5.15,8.14,18.14.62,13-7.57a180,180,0,0,0-19.66-25.76c-6.56-7.11-17.14,3.52-10.6,10.61Z" transform="translate(-70.76 -89.64)"/><path class="cls-1" d="M297.29,108.08A102.93,102.93,0,0,1,320,118.15c8.36,4.87,15.92-8.09,7.57-13a120.07,120.07,0,0,0-26.33-11.59c-9.27-2.74-13.24,11.74-4,14.47Z" transform="translate(-70.76 -89.64)"/><path class="cls-1" d="M174.44,263.13a3.52,3.52,0,0,1-4.57,2.4c-2.81-.73-3.57-2.93-2.39-5.66l4.49-3.45c-1.28.42.95.08,1.44.18-1.54-.32,1.15.67-.1-.09a2,2,0,0,1,1,.85c.35.5.35.47,0-.09a3.64,3.64,0,0,1,.35,2.81c-.5,1-.6,1.22-.33.72s.13-.29-.48.58c.94-1.13-1.28.78,0,.06-1,.39-1.23.5-.68.35s.3-.11-.83.09c1.22-.11-1.13-.27-1.54-.52l-.77-.65c.55.56.42.38-.38-.55l-.42-1c.2.78.18.53,0-.76v.42c0,.81,0,.58.11-.71-.27,1.26.66-1.13.23-.36-.79,1.42.66-.61.18-.13s-.17.23.71-.51c-.53.28-.48.28.15,0a2.82,2.82,0,0,1,1.64-.37c-.64,0-.6,0,.11.05a2.68,2.68,0,0,1,1.56.48c-.52-.32-.5-.29,0,.1s.55.42.11,0l.62.81a6,6,0,0,1-.44-.78l.42,1c-.5-1.43,0,1.62,0,.23s-.38,1.62,0,.26a3.79,3.79,0,0,1-1.84,2.4c1.28-.75-1.64.39-.19.07-1.2.11-1.5.16-.9.14a5,5,0,0,1,.67,0c-1.17-.19-1.47-.21-.89-.06s.31,0-.72-.37a4.83,4.83,0,0,1,.59.32q.72.45-.6-.51c1,.91-.68-1.45-.06-.16l-.4-1c.2.77.19.57,0-.6l.17-1c-.22.78-.14.64.25-.4-.59,1.22,1.09-.87-.06.07.69-.56,1-.49.06-.14-.5.26-.29.18.62-.26-.65.16-.65.18,0,.07s.67-.09,0-.07a2.93,2.93,0,0,1,1.84.54l3.72,6.47.36-4.87c.29-3.92-3.66-7.67-7.5-7.5a7.68,7.68,0,0,0-7.5,7.5l-.36,4.87c-.18,2.33,1.5,5.53,3.71,6.48,3.32,1.41,6.42,2,9.95.89a14.14,14.14,0,0,0,8-6.27,12.47,12.47,0,0,0-4.56-17.08c-5.82-3.3-13.56-2.36-17.38,3.5-3.33,5.09-2.1,12.23,2.19,16.38a11.79,11.79,0,0,0,17-.52c4.13-4.75,4.91-12.6.19-17.31-4.94-4.94-12.87-4.38-17.7.37-5.59,5.48-3.8,14.68,2.53,18.69,3.46,2.19,8.37,2.81,12,.67,4.55-2.66,5.12-9.46,2.6-13.7-5.1-8.59-17.47-6.5-20.37,2.71a7.57,7.57,0,0,0,5.24,9.23,7.66,7.66,0,0,0,9.22-5.24Z" transform="translate(-70.76 -89.64)"/><path class="cls-1" d="M272.61,355.18l5.43,6.35,10.6-10.61-8-6.93V354.6c1.34-1.43,2.7-2.82,4.11-4.18.63-.6,1.27-1.19,1.91-1.77.4-.36,2.09-1.33,1-1.08h-4l1,.37-3.3-1.92c1.21,1,2.35,2.06,3.51,3.12l1.59,1.45c1.18,1.05,1.42,1.28.73.71l-.75-5.78c-.53,1.58-3.21,3.43-4.41,4.41l12.8,5.3,0-1.39c-.26-9.64-15.26-9.68-15,0l0,1.39c.19,6.95,7.86,9.3,12.8,5.3,3.15-2.54,6.63-6,7.92-10,2-6-2.17-9.38-6.13-13s-8.75-6.55-14-3.16c-3.88,2.52-7.26,6.23-10.41,9.58-2.63,2.8-3.15,7.88,0,10.61l8,6.93c7.32,6.36,16.89-3.26,10.6-10.61l-5.43-6.34c-2.63-3.08-7.9-2.71-10.6,0-3.06,3.05-2.64,7.51,0,10.6Z" transform="translate(-70.76 -89.64)"/><path class="cls-1" d="M312.23,318.21l5.43,6.35L328.27,314l-8-6.9v10.6c1.39-1.46,2.79-2.89,4.25-4.28.64-.62,1.3-1.22,2-1.82.32-.29,2-1.41,1.13-1.18h-4l1,.36-3.31-1.92c1.22,1,2.37,2.05,3.53,3.11l1.59,1.45c1.19,1,1.44,1.27.74.7l-.76-5.78c-.56,1.64-3.37,3.58-4.62,4.59l12.8,5.31,0-1.42c-.13-9.64-15.13-9.67-15,0l0,1.42c.09,7,7.92,9.26,12.8,5.3,3.21-2.6,6.78-6.15,8.11-10.13,2-6-2.13-9.39-6.12-13s-8.78-6.52-14-3.11c-4,2.58-7.44,6.38-10.68,9.81-2.63,2.78-3.15,7.9,0,10.6l8,6.91A7.51,7.51,0,0,0,328.27,314l-5.43-6.35c-2.64-3.08-7.9-2.71-10.61,0-3.05,3-2.64,7.52,0,10.61Z" transform="translate(-70.76 -89.64)"/><path class="cls-1" d="M355.12,277.64l5.43,6.34,10.61-10.6-8-6.9v10.6q2.07-2.19,4.24-4.28c.65-.62,1.3-1.23,2-1.83.32-.29,2.05-1.4,1.13-1.17h-4l1,.36-3.31-1.93c1.22,1,2.36,2.06,3.52,3.12l1.6,1.44c1.19,1,1.43,1.27.73.71l-.75-5.78c-.57,1.63-3.38,3.58-4.63,4.59l12.8,5.3V276.2c-.13-9.64-15.13-9.67-15,0v1.41c.1,7,7.92,9.26,12.81,5.31,3.2-2.6,6.77-6.15,8.11-10.13,2-6-2.13-9.4-6.12-13s-8.78-6.51-14-3.11c-4,2.59-7.45,6.39-10.69,9.82-2.62,2.77-3.14,7.89,0,10.6l8,6.9a7.5,7.5,0,0,0,10.61-10.6L365.72,267c-2.63-3.08-7.89-2.71-10.6,0-3.05,3.05-2.64,7.52,0,10.61Z" transform="translate(-70.76 -89.64)"/><path class="cls-1" d="M240.23,149.13c12.23-14.08,23.43-29,36.83-42.06,6.93-6.74-3.68-17.34-10.61-10.61-13.39,13-24.6,28-36.82,42.06-6.3,7.26,4.26,17.92,10.6,10.61Z" transform="translate(-70.76 -89.64)"/><path class="cls-1" d="M369.66,236.38c10.83-12.19,22.77-23.32,33.55-35.56,6.36-7.21-4.21-17.86-10.61-10.6-10.78,12.23-22.72,23.37-33.55,35.56-6.39,7.19,4.18,17.84,10.61,10.6Z" transform="translate(-70.76 -89.64)"/><path class="cls-1" d="M276.26,107c.39-.63.4-.53-.07,0q.42-.47.87-.9c.56-.56.51-.27-.05,0a12.25,12.25,0,0,0,1.36-.78c.81-.55-1,.25-.06,0,.41-.1.8-.27,1.21-.37s.83-.17,1.23-.28c1.07-.3-1.74.14.19,0,3.9-.29,7.69-3.23,7.5-7.5-.17-3.8-3.31-7.82-7.5-7.5-7.19.55-13.71,3.51-17.64,9.78a7.57,7.57,0,0,0,2.7,10.26A7.66,7.66,0,0,0,276.26,107Z" transform="translate(-70.76 -89.64)"/><path class="cls-1" d="M283.42,104.8a51,51,0,0,1,11.09,3.45c3.68,1.7,8.08,1,10.27-2.69,1.89-3.24,1-8.55-2.7-10.26a65.22,65.22,0,0,0-14.67-5c-4-.79-8.1,1.13-9.23,5.24-1,3.69,1.25,8.43,5.24,9.22Z" transform="translate(-70.76 -89.64)"/><path class="cls-1" d="M406.07,188.4A40.68,40.68,0,0,0,397,169.15c-2.56-3.15-7.95-2.66-10.61,0-3.11,3.11-2.56,7.45,0,10.6a26.21,26.21,0,0,1,5.21,12.63c.65,4,5.63,6.23,9.23,5.24,4.26-1.17,5.89-5.21,5.24-9.22Z" transform="translate(-70.76 -89.64)"/><path class="cls-1" d="M239.16,315a3.54,3.54,0,0,1-4.58,2.41c-2.81-.74-3.57-2.93-2.38-5.66l4.48-3.45c-1.27.42.95.07,1.44.18-1.53-.32,1.15.66-.1-.09a2,2,0,0,1,1,.85c.34.5.34.47,0-.09a3.67,3.67,0,0,1,.34,2.81c-.49,1-.6,1.21-.32.71s.12-.28-.49.59c.94-1.13-1.27.78,0,.06-1,.38-1.23.5-.68.34s.3-.11-.83.09c1.22-.1-1.13-.26-1.53-.52l-.78-.65c.55.57.42.39-.38-.54l-.42-1c.2.78.19.52,0-.76l0,.42c-.06.81,0,.57.1-.71-.27,1.26.66-1.13.23-.37-.79,1.43.66-.6.18-.13s-.17.23.71-.51c-.52.29-.48.28.15,0a2.82,2.82,0,0,1,1.64-.37c-.64,0-.6,0,.11.05a2.67,2.67,0,0,1,1.56.49c-.51-.32-.5-.29,0,.09s.56.43.11,0l.62.81a6.69,6.69,0,0,1-.44-.79l.42.95c-.49-1.42,0,1.63,0,.23s-.38,1.63,0,.27a3.78,3.78,0,0,1-1.84,2.4c1.29-.75-1.64.39-.19.06q-1.8.18-.9.15a3.75,3.75,0,0,1,.67,0c-1.17-.19-1.46-.21-.89-.07s.31,0-.72-.37c.21.1.4.21.6.33.48.3.27.12-.61-.52,1,.92-.67-1.45-.06-.15l-.4-1q.3,1.17,0-.6l.17-1c-.23.78-.15.65.24-.4-.59,1.23,1.09-.86-.06.07.69-.56,1-.49.07-.13-.5.26-.3.17.62-.26-.66.15-.66.17,0,.06s.66-.08,0-.06a3,3,0,0,1,1.85.53l3.71,6.48.36-4.88c.29-3.92-3.66-7.67-7.5-7.5a7.69,7.69,0,0,0-7.5,7.5l-.36,4.88c-.17,2.33,1.5,5.53,3.71,6.47,3.32,1.42,6.42,2,9.95.9a14.25,14.25,0,0,0,8-6.27,12.49,12.49,0,0,0-4.57-17.09c-5.82-3.29-13.55-2.35-17.38,3.5-3.33,5.1-2.1,12.23,2.19,16.39a11.78,11.78,0,0,0,17-.53c4.14-4.74,4.91-12.6.19-17.3-4.94-4.94-12.86-4.38-17.7.37-5.59,5.48-3.8,14.67,2.54,18.69,3.46,2.19,8.36,2.8,12,.67,4.55-2.66,5.12-9.47,2.6-13.7-5.09-8.59-17.47-6.5-20.37,2.71a7.56,7.56,0,0,0,5.24,9.22,7.67,7.67,0,0,0,9.23-5.24Z" transform="translate(-70.76 -89.64)"/><path class="cls-1" d="M212.3,220.3a3.53,3.53,0,0,1-4.58,2.4c-2.8-.73-3.57-2.93-2.38-5.66l4.48-3.44c-1.27.41,1,.07,1.45.17-1.54-.32,1.14.67-.11-.09a2,2,0,0,1,1,.86c.34.5.34.47,0-.09a3.67,3.67,0,0,1,.34,2.81c-.49,1-.6,1.21-.32.71s.12-.29-.48.58c.93-1.12-1.28.79,0,.06-1,.39-1.22.5-.68.35s.3-.11-.83.09c1.22-.1-1.12-.26-1.53-.52l-.77-.65c.54.56.42.38-.39-.55l-.42-1c.2.78.19.52,0-.77V216c-.05.81,0,.57.1-.71-.26,1.26.66-1.14.23-.37-.79,1.43.66-.6.18-.13s-.17.23.71-.51c-.52.29-.48.28.15,0a2.82,2.82,0,0,1,1.64-.37c-.64,0-.6,0,.12.05a2.66,2.66,0,0,1,1.55.49c-.51-.33-.5-.3,0,.09s.56.43.11,0l.62.82a7.59,7.59,0,0,1-.44-.79l.42,1c-.49-1.42,0,1.62,0,.23s-.38,1.62,0,.27a3.73,3.73,0,0,1-1.84,2.39c1.29-.75-1.64.4-.19.07-1.2.12-1.5.16-.9.14a5,5,0,0,1,.67,0c-1.17-.18-1.46-.2-.88-.06s.3,0-.73-.37a5.7,5.7,0,0,1,.6.32c.48.3.27.13-.61-.51,1,.92-.67-1.45-.06-.15l-.39-1c.19.77.18.57,0-.6l.17-1c-.23.78-.15.65.24-.4-.59,1.23,1.09-.87-.06.07.69-.56,1-.49.07-.14-.5.27-.3.18.62-.25-.66.15-.66.17,0,.06s.66-.09,0-.06A3,3,0,0,1,211,215l3.71,6.47.36-4.87c.29-3.92-3.65-7.67-7.5-7.5a7.69,7.69,0,0,0-7.5,7.5l-.36,4.87c-.17,2.34,1.5,5.54,3.72,6.48,3.31,1.41,6.41,2,9.94.9a14.25,14.25,0,0,0,8-6.27,12.49,12.49,0,0,0-4.57-17.09c-5.82-3.3-13.55-2.35-17.38,3.5-3.33,5.1-2.1,12.23,2.19,16.38a11.77,11.77,0,0,0,17-.52c4.14-4.75,4.91-12.6.19-17.31-4.94-4.93-12.86-4.37-17.7.38-5.59,5.48-3.8,14.67,2.54,18.69,3.46,2.19,8.36,2.8,12,.67,4.55-2.67,5.12-9.47,2.6-13.71-5.09-8.59-17.47-6.49-20.37,2.71a7.57,7.57,0,0,0,5.24,9.23,7.67,7.67,0,0,0,9.23-5.24Z" transform="translate(-70.76 -89.64)"/><path class="cls-1" d="M250.21,177.5a3.53,3.53,0,0,1-4.58,2.4c-2.8-.73-3.57-2.93-2.38-5.66l4.48-3.44c-1.27.41,1,.07,1.45.17-1.54-.32,1.14.67-.11-.09a2,2,0,0,1,1,.86c.34.5.34.47,0-.09a3.67,3.67,0,0,1,.34,2.81c-.49,1-.6,1.21-.32.71s.12-.29-.48.58c.93-1.12-1.28.79,0,.07-1,.38-1.22.49-.68.34s.3-.11-.83.09c1.22-.1-1.12-.26-1.53-.52l-.77-.65c.54.56.42.38-.39-.55l-.42-1c.2.78.19.52,0-.77v.43c-.05.81,0,.57.1-.71-.26,1.26.66-1.14.24-.37-.8,1.43.65-.6.18-.13s-.18.23.71-.51c-.53.29-.48.28.14,0a2.82,2.82,0,0,1,1.64-.37c-.64,0-.6,0,.12,0a2.64,2.64,0,0,1,1.55.49c-.51-.33-.5-.3,0,.09s.56.43.11,0l.62.82a7.59,7.59,0,0,1-.44-.79l.42.95c-.49-1.42,0,1.62,0,.23s-.38,1.62,0,.27a3.78,3.78,0,0,1-1.84,2.4c1.29-.76-1.63.39-.19.06-1.2.12-1.5.16-.9.14a5,5,0,0,1,.67,0c-1.17-.18-1.46-.2-.88-.06s.3,0-.73-.37a5.7,5.7,0,0,1,.6.32c.48.3.28.13-.61-.51,1,.92-.67-1.45-.06-.15l-.39-1c.19.77.18.57,0-.6l.17-1c-.23.78-.15.65.24-.4-.59,1.23,1.09-.87-.06.07.69-.56,1-.49.07-.14-.5.27-.3.18.62-.25-.66.15-.65.17,0,.06s.66-.09,0-.06a3,3,0,0,1,1.84.53l3.71,6.48.36-4.88c.3-3.92-3.65-7.67-7.5-7.5a7.69,7.69,0,0,0-7.5,7.5l-.36,4.88c-.17,2.33,1.5,5.53,3.72,6.47,3.31,1.41,6.41,2,9.95.9a14.26,14.26,0,0,0,8-6.27,12.49,12.49,0,0,0-4.57-17.09c-5.82-3.29-13.55-2.35-17.38,3.5-3.33,5.1-2.1,12.23,2.19,16.38a11.77,11.77,0,0,0,17-.52c4.14-4.75,4.91-12.6.2-17.31-5-4.93-12.87-4.37-17.71.38-5.58,5.48-3.8,14.67,2.54,18.69,3.46,2.19,8.36,2.8,12,.67,4.55-2.67,5.12-9.47,2.61-13.71-5.1-8.59-17.47-6.49-20.38,2.71a7.57,7.57,0,0,0,5.24,9.23,7.66,7.66,0,0,0,9.23-5.24Z" transform="translate(-70.76 -89.64)"/><path class="cls-1" d="M283,276.4a3.54,3.54,0,0,1-4.58,2.41c-2.81-.74-3.57-2.93-2.38-5.66l4.48-3.45c-1.28.42.95.07,1.44.18-1.53-.32,1.15.66-.1-.09a2,2,0,0,1,1,.85c.34.5.34.47,0-.09a3.67,3.67,0,0,1,.34,2.81c-.49,1-.6,1.21-.32.71s.12-.28-.49.59c.94-1.13-1.28.78,0,.06-1,.38-1.23.5-.68.34s.3-.11-.83.09c1.22-.1-1.13-.26-1.53-.52l-.78-.65c.55.57.42.39-.38-.54l-.42-1c.2.78.19.52,0-.76v.42c-.05.81,0,.57.11-.71-.27,1.26.66-1.13.23-.37-.79,1.43.66-.6.18-.13s-.17.23.71-.51c-.52.29-.48.28.15,0a2.82,2.82,0,0,1,1.64-.37c-.64,0-.6,0,.11.05a2.69,2.69,0,0,1,1.56.49c-.51-.32-.5-.29,0,.09s.56.43.11,0l.62.81a6.69,6.69,0,0,1-.44-.79l.42.95c-.49-1.42,0,1.63,0,.23s-.38,1.63,0,.27a3.78,3.78,0,0,1-1.84,2.4c1.29-.75-1.64.39-.19.06q-1.8.18-.9.15a3.75,3.75,0,0,1,.67,0c-1.17-.19-1.46-.21-.89-.07s.31,0-.72-.37c.21.1.4.21.6.33.48.3.27.12-.61-.52,1,.92-.68-1.45-.06-.15l-.4-1q.3,1.17,0-.6l.17-1c-.23.78-.15.65.24-.4-.59,1.23,1.09-.86-.06.07.69-.56,1-.49.07-.13-.5.26-.3.17.62-.26-.66.15-.66.17,0,.06s.66-.08,0-.06a3,3,0,0,1,1.85.53l3.71,6.48.36-4.88c.29-3.92-3.66-7.67-7.5-7.5a7.69,7.69,0,0,0-7.5,7.5l-.36,4.88c-.17,2.33,1.5,5.53,3.71,6.47,3.32,1.42,6.42,2,9.95.9a14.23,14.23,0,0,0,8-6.27,12.48,12.48,0,0,0-4.56-17.09c-5.82-3.29-13.55-2.35-17.38,3.5-3.33,5.1-2.1,12.23,2.19,16.39a11.78,11.78,0,0,0,17-.53c4.14-4.74,4.91-12.6.19-17.31-4.94-4.93-12.86-4.37-17.7.38-5.59,5.48-3.8,14.67,2.54,18.69,3.46,2.19,8.36,2.8,12,.67,4.55-2.66,5.12-9.47,2.6-13.7-5.09-8.59-17.47-6.5-20.37,2.71a7.56,7.56,0,0,0,5.24,9.22A7.67,7.67,0,0,0,283,276.4Z" transform="translate(-70.76 -89.64)"/><path class="cls-1" d="M326.33,234.85a3.53,3.53,0,0,1-4.57,2.41c-2.81-.74-3.57-2.94-2.39-5.66l4.49-3.45c-1.28.41.95.07,1.44.18-1.54-.32,1.15.66-.11-.09a1.93,1.93,0,0,1,1,.85c.35.5.35.47,0-.09a3.58,3.58,0,0,1,.34,2.81c-.49,1-.59,1.21-.32.71s.13-.29-.48.59c.94-1.13-1.28.78,0,.06-1,.38-1.22.5-.67.34s.3-.11-.83.09c1.22-.1-1.13-.26-1.54-.52l-.77-.65c.55.57.42.38-.38-.54l-.42-1c.19.78.18.52,0-.77v.43c-.05.81,0,.57.11-.71-.27,1.26.66-1.13.23-.37-.79,1.43.65-.6.18-.13s-.17.23.71-.51c-.53.29-.48.28.14,0a2.87,2.87,0,0,1,1.65-.37c-.64,0-.6,0,.11,0a2.69,2.69,0,0,1,1.56.49c-.52-.33-.5-.29,0,.09s.55.43.11,0l.62.82a6.18,6.18,0,0,1-.45-.79l.43.95c-.5-1.42,0,1.62,0,.23s-.38,1.62,0,.27a3.81,3.81,0,0,1-1.84,2.4c1.28-.75-1.64.39-.19.06-1.2.12-1.5.16-.9.14a5,5,0,0,1,.67,0c-1.17-.18-1.47-.2-.89-.06s.31,0-.72-.37a4.91,4.91,0,0,1,.59.33c.48.29.28.12-.6-.52,1,.92-.68-1.45-.06-.15l-.4-1c.2.77.18.57,0-.6l.17-1c-.23.78-.14.65.25-.4-.59,1.23,1.09-.86-.06.07.68-.56,1-.49.06-.13-.5.26-.29.17.62-.26-.65.15-.65.17,0,.06s.67-.09,0-.06a2.92,2.92,0,0,1,1.84.53l3.72,6.48.36-4.88c.29-3.92-3.66-7.67-7.5-7.5a7.68,7.68,0,0,0-7.5,7.5l-.36,4.88c-.18,2.33,1.49,5.53,3.71,6.47,3.32,1.41,6.42,2,9.95.9a14.26,14.26,0,0,0,8-6.27,12.48,12.48,0,0,0-4.57-17.09c-5.81-3.29-13.55-2.35-17.37,3.5-3.33,5.1-2.1,12.23,2.19,16.38a11.77,11.77,0,0,0,17-.52c4.13-4.74,4.91-12.6.19-17.31-4.94-4.93-12.87-4.37-17.71.38-5.58,5.48-3.8,14.67,2.54,18.69,3.46,2.19,8.37,2.8,12,.67,4.56-2.67,5.13-9.47,2.61-13.71-5.1-8.59-17.47-6.49-20.37,2.71a7.57,7.57,0,0,0,5.24,9.23,7.66,7.66,0,0,0,9.22-5.24Z" transform="translate(-70.76 -89.64)"/><path class="cls-1" d="M313.67,116.5c11,5.31,16.19,18.06,26.33,24.82,9.64,6.4,22.34,8.39,29.82,17.76,2.54,3.19,7.94,2.61,10.6,0,3.16-3.09,2.51-7.46,0-10.61-8.14-10.2-21-12.77-31.67-19.35-10.87-6.73-15.66-19.83-27.51-25.57-8.65-4.19-16.27,8.74-7.57,13Z" transform="translate(-70.76 -89.64)"/></g><path class="cls-1" d="M118.5,315c4.5-5.41,8.6-10.87,9-18.14.11-2.19-3-2.44-3.68-.5A71.07,71.07,0,0,1,116,312.83l3.24,1.9q3.32-7.26,6.33-14.64l-3.62-1-3.44,9.81c-.69,2,2.51,3.36,3.43,1.44A65.42,65.42,0,0,0,128,288.92c.27-2.4-3.48-2.38-3.75,0a59.92,59.92,0,0,1-5.63,19.54l3.43,1.45,3.44-9.82c.81-2.32-2.73-3.17-3.62-1q-2.84,6.93-6,13.73a1.88,1.88,0,0,0,3.24,1.9,75.84,75.84,0,0,0,8.22-17.36l-3.69-.5c-.31,6.15-4.09,10.94-7.87,15.49-1.53,1.85,1.11,4.51,2.65,2.65Z" transform="translate(-70.76 -89.64)"/><path class="cls-1" d="M154.22,415.18a518.24,518.24,0,0,1,43.54-50.63l-2.65-2.65-39.43,42.73,2.94,2.27a168.38,168.38,0,0,1,46.94-46.83c2-1.33.13-4.58-1.89-3.24A172.94,172.94,0,0,0,155.38,405c-1.18,1.77,1.51,3.83,3,2.27l39.43-42.73c1.64-1.76-.95-4.38-2.65-2.65A525.33,525.33,0,0,0,151,413.29c-1.45,1.93,1.81,3.8,3.24,1.89Z" transform="translate(-70.76 -89.64)"/><path class="cls-1" d="M154.59,415.27c2.72-4,4.26-8.67,6.51-12.95,1.11-2.14-2.12-4-3.24-1.9-2.25,4.29-3.79,8.92-6.5,12.95-1.35,2,1.89,3.89,3.23,1.9Z" transform="translate(-70.76 -89.64)"/><path class="cls-1" d="M75.16,364.54c-1.14-.82-.64-2.59,0-3.53a11.61,11.61,0,0,1,3.76-2.89c2.07-1.24.18-4.48-1.9-3.24-2.43,1.45-5.1,3.2-6,6.07a6,6,0,0,0,2.21,6.82c2,1.4,3.85-1.85,1.89-3.23Z" transform="translate(-70.76 -89.64)"/></svg>