<svg id="Layer_18" data-name="Layer 18" xmlns="http://www.w3.org/2000/svg" viewBox="0 0 238.53 293.17"><defs><style>.cls-1{fill:#231f20;}</style></defs><path class="cls-1" d="M143.59,293.42,279.91,141.65,319.14,98c6.44-7.16-4.14-17.8-10.61-10.6L172.21,239.14,133,282.82c-6.43,7.16,4.14,17.8,10.61,10.6Z" transform="translate(-115.71 -82.68)"/><path class="cls-1" d="M230,261.18c40.39-44.4,79.33-90.11,120.17-134.1,6.56-7.06-4-17.7-10.6-10.6-40.85,44-79.79,89.7-120.18,134.09-6.49,7.13,4.09,17.77,10.61,10.61Z" transform="translate(-115.71 -82.68)"/><path class="cls-1" d="M174.57,322.54l11.67-13a7.67,7.67,0,0,0,0-10.61c-2.75-2.75-7.89-3-10.61,0l-11.67,13a7.67,7.67,0,0,0,0,10.6c2.75,2.75,7.89,3,10.61,0Z" transform="translate(-115.71 -82.68)"/><path class="cls-1" d="M130,287.74c-3.64,12.77.55,27.38,11.82,34.94a28.15,28.15,0,0,0,35-3.53c6.81-6.87-3.8-17.48-10.6-10.61a13,13,0,0,1-16.59,1.34c-5.64-4.13-7-11.77-5.15-18.15,2.65-9.3-11.82-13.27-14.47-4Z" transform="translate(-115.71 -82.68)"/><path class="cls-1" d="M128.43,330.62l14.33-17c2.6-3.09,3-7.57,0-10.6-2.68-2.68-8-3.12-10.61,0l-14.33,17c-2.6,3.1-3,7.57,0,10.6,2.68,2.68,8,3.12,10.61,0Z" transform="translate(-115.71 -82.68)"/><path class="cls-1" d="M309.85,93.75c5,7.92,15.11,2.52,22.33,7a13.12,13.12,0,0,1,6.16,8.63c.71,3.92-.74,6.89,1.13,10.73A7.34,7.34,0,0,0,346,123.8a8.59,8.59,0,0,0,7.22-4.15c1.36-2,1.48-5.61,0-7.57l-.21-.29c-2.46-3.26-6.45-4.86-10.27-2.69-3.2,1.83-5.12,7-2.69,10.26l.22.29v-7.57l-.28.4,6.48-3.71-.47,0,6.48,3.71-.35-.7,1,3.79c.91-9.15-1.59-18-8.65-24.31a31.4,31.4,0,0,0-12.38-6.79,36.09,36.09,0,0,0-6.75-1.15c-1.83-.16-4.87.62-6.54.13l4.48,3.45-.47-.75c-5.14-8.14-18.13-.62-12.95,7.57Z" transform="translate(-115.71 -82.68)"/><path class="cls-1" d="M185.8,295.68l-4.77-3.4L179,290.83q-2.35-1.8-.7-.36v4c1-3.28,5.19-6.89,7.34-9.57q4.37-5.42,8.88-10.7,4.23-4.94,8.57-9.74c2.5-2.76,5.39-7.23,8.59-9.11l-3.78,1c3.54-.41,7,2.87,9.19,5.35,6.42,7.23,17-3.41,10.6-10.61-5.24-5.91-16.14-13.07-24.09-8.42-3.86,2.26-6.89,6.51-9.87,9.78q-5.29,5.82-10.42,11.82-4.8,5.64-9.43,11.44c-2.92,3.66-6.61,7.43-8.85,11.55-5.6,10.28,6.33,16.46,13.22,21.35,7.88,5.6,15.38-7.4,7.57-12.95Z" transform="translate(-115.71 -82.68)"/><path class="cls-1" d="M191.19,311.38A12.15,12.15,0,0,1,202,309c4.89,1.19,7.27,5.86,12.1,7.27,9.29,2.7,13.25-11.77,4-14.47,1.33,1.07,1.34,1,0-.25a16,16,0,0,0-1.92-1.75,24.93,24.93,0,0,0-4.8-3.2,28.13,28.13,0,0,0-10.62-2.87,27.25,27.25,0,0,0-20.24,7.06c-7.26,6.39,3.38,17,10.61,10.6Z" transform="translate(-115.71 -82.68)"/><path class="cls-1" d="M222.38,251c-6.3,11.64-4.37,24.63,1.37,36.08,2.55,5.08,6,11.66,10.12,15.61,4.63,4.4,12.89,2.75,14.25-3.91,1.91-9.43-12.54-13.46-14.47-4l-.15.75,5.24-5.24-.81.27,5.78.76c.86.49-1.57-2.75-1.6-2.79-1-1.46-1.94-2.94-2.85-4.45a47.93,47.93,0,0,1-4.22-8.41c-2-5.6-2.62-11.72.29-17.11,4.6-8.49-8.34-16.07-13-7.57Z" transform="translate(-115.71 -82.68)"/><path class="cls-1" d="M226.29,326c-.59-10.35,8.46-21.34,19.15-21.68,12.33-.4,13.18,13.31,13.4,22.45.23,9.63,15.23,9.67,15,0-.2-8.42-.79-17.43-5.24-24.83a26.49,26.49,0,0,0-23.16-12.62c-18.49.24-35.2,18.28-34.15,36.68.55,9.6,15.55,9.66,15,0Z" transform="translate(-115.71 -82.68)"/><path class="cls-1" d="M211.76,323.71c-.33,10.52-1.64,21.53-.74,32,.77,8.95,5.48,18,15,19.94s13.45-12.51,4-14.46c-5.65-1.17-4.09-10.1-4-14.31q.36-11.59.74-23.19c.31-9.65-14.69-9.64-15,0Z" transform="translate(-115.71 -82.68)"/></svg>