<?xml version="1.0" encoding="UTF-8"?><svg id="Layer_34" xmlns="http://www.w3.org/2000/svg" viewBox="0 0 393.54 377.74"><defs><style>.cls-1{fill:#231f20;}</style></defs><path class="cls-1" d="M19.06,86.28c-.17,34.38-.27,68.75-.3,103.13-.04,34.26,0,68.51,.09,102.77,.05,19.35,.13,38.69,.22,58.04,.02,3.92,3.44,7.68,7.5,7.5s7.52-3.3,7.5-7.5c-.17-34.46-.27-68.92-.3-103.38-.04-34.23,0-68.47,.09-102.7,.05-19.29,.13-38.57,.22-57.86,.02-3.92-3.46-7.68-7.5-7.5s-7.48,3.3-7.5,7.5h0Z"/><path class="cls-1" d="M27.32,357.72H322.98c3.92,0,7.68-3.45,7.5-7.5s-3.3-7.5-7.5-7.5H27.32c-3.92,0-7.68,3.45-7.5,7.5s3.3,7.5,7.5,7.5h0Z"/><path class="cls-1" d="M332.78,348.69c-.06-34.33-.09-68.65-.11-102.98-.01-34.22,0-68.43,.03-102.65,.02-19.31,.04-38.62,.08-57.93,0-3.92-3.45-7.68-7.5-7.5s-7.49,3.3-7.5,7.5c-.06,34.41-.09,68.81-.11,103.22-.01,34.19,0,68.39,.03,102.58,.02,19.25,.04,38.51,.08,57.76,0,3.92,3.44,7.68,7.5,7.5s7.51-3.3,7.5-7.5h0Z"/><path class="cls-1" d="M37.11,81.21c35.6,.14,71.2,.23,106.8,.26s70.76,.02,106.14-.05c19.93-.04,39.85-.09,59.78-.16,3.92-.01,7.68-3.44,7.5-7.5s-3.3-7.51-7.5-7.5c-35.52,.12-71.05,.2-106.57,.22-35.4,.02-70.8,0-106.2-.08-19.98-.05-39.97-.11-59.95-.19-3.92-.02-7.68,3.46-7.5,7.5s3.3,7.48,7.5,7.5h0Z"/><path class="cls-1" d="M65.62,111.85h225.19c3.92,0,7.68-3.45,7.5-7.5s-3.3-7.5-7.5-7.5H65.62c-3.92,0-7.68,3.45-7.5,7.5s3.3,7.5,7.5,7.5h0Z"/><path class="cls-1" d="M58.89,103.58v183.83c0,3.92,3.45,7.68,7.5,7.5s7.5-3.3,7.5-7.5V103.58c0-3.92-3.45-7.68-7.5-7.5s-7.5,3.3-7.5,7.5h0Z"/><path class="cls-1" d="M281.01,104.35v177.7c0,3.92,3.45,7.68,7.5,7.5s7.5-3.3,7.5-7.5V104.35c0-3.92-3.45-7.68-7.5-7.5s-7.5,3.3-7.5,7.5h0Z"/><path class="cls-1" d="M67.15,301.04h.77c1.03,.04,2-.18,2.89-.65,.93-.3,1.73-.82,2.41-1.55,.73-.68,1.25-1.48,1.55-2.41,.47-.89,.68-1.86,.65-2.89l-.27-1.99c-.36-1.27-1-2.37-1.93-3.31l-1.52-1.17c-1.17-.68-2.43-1.02-3.79-1.02h-.77c-1.03-.04-2,.18-2.89,.65-.93,.3-1.73,.82-2.41,1.55-.73,.68-1.25,1.48-1.55,2.41-.47,.89-.68,1.86-.65,2.89l.27,1.99c.36,1.27,1,2.37,1.93,3.31l1.52,1.17c1.17,.68,2.43,1.02,3.79,1.02h0Z"/><path class="cls-1" d="M70.22,307.17h212.94c3.92,0,7.68-3.45,7.5-7.5s-3.3-7.5-7.5-7.5H70.22c-3.92,0-7.68,3.45-7.5,7.5s3.3,7.5,7.5,7.5h0Z"/><path class="cls-1" d="M294.48,298.14v-19.15c0-3.92-3.45-7.68-7.5-7.5s-7.5,3.3-7.5,7.5v19.15c0,3.92,3.45,7.68,7.5,7.5s7.5-3.3,7.5-7.5h0Z"/><path class="cls-1" d="M75.58,181.55h206.81c3.92,0,7.68-3.45,7.5-7.5s-3.3-7.5-7.5-7.5H75.58c-3.92,0-7.68,3.45-7.5,7.5s3.3,7.5,7.5,7.5h0Z"/><path class="cls-1" d="M133.45,143.7v-.05l.26,1.99c0-.05,0-.1,0-.16l-.27,1.99c.01-.07,.03-.13,.06-.2l-.76,1.79c.03-.06,.07-.12,.11-.18l-1.17,1.52c.05-.06,.09-.1,.15-.15l-1.52,1.17c.07-.06,.14-.1,.23-.14l-1.79,.76c.07-.03,.13-.04,.2-.06l-1.99,.27c.07,0,.14,0,.21,0l-1.99-.27c.05,.01,.1,.02,.15,.04l-1.79-.76c.06,.03,.11,.06,.16,.09l-1.52-1.17s.09,.08,.12,.13l-1.17-1.52s.07,.1,.09,.16l-.76-1.79c.04,.09,.06,.17,.07,.26l-.27-1.99c0,.08,0,.15,0,.23l.27-1.99c-.01,.08-.03,.15-.06,.22l.76-1.79c-.02,.06-.05,.11-.09,.16l1.17-1.52s-.08,.09-.13,.13l1.52-1.17c-.09,.07-.19,.12-.29,.17l1.79-.76c-.12,.05-.24,.08-.36,.1l1.99-.27c-.14,.02-.28,.02-.42,0l1.99,.27c-.18-.02-.34-.07-.51-.14l1.79,.76c-.15-.07-.29-.15-.42-.24l1.52,1.17c-.13-.1-.24-.21-.34-.33l1.17,1.52c-.09-.11-.16-.23-.22-.36l.76,1.79c-.05-.12-.08-.24-.1-.36l.27,1.99c0-.06-.01-.13-.01-.19l-2.2,5.3c.07-.08,.14-.15,.22-.21l-1.52,1.17c.1-.08,.21-.14,.33-.19l-1.79,.76c.15-.06,.29-.1,.45-.12l-1.99,.27c.19-.02,.37-.02,.56,0l-1.99-.27c.19,.03,.37,.08,.55,.15l-1.79-.76c.17,.07,.33,.17,.48,.28l-1.52-1.17c.11,.09,.21,.19,.3,.3l-1.17-1.52c.08,.1,.14,.21,.19,.32l-.76-1.79c.05,.12,.08,.24,.1,.36l-.27-1.99c.01,.11,.01,.23,0,.34l.27-1.99c-.02,.12-.05,.23-.1,.34l.76-1.79c-.05,.11-.11,.21-.18,.3l1.17-1.52c-.08,.1-.18,.2-.28,.28l1.52-1.17c-.13,.1-.27,.18-.42,.25l1.79-.76c-.18,.07-.36,.13-.56,.15l1.99-.27c-.16,.02-.32,.02-.48,0l1.99,.27c-.14-.02-.28-.05-.41-.11l1.79,.76c-.09-.04-.18-.09-.27-.15l1.52,1.17c-.08-.06-.16-.14-.22-.22l1.17,1.52c-.07-.09-.12-.19-.17-.29l.76,1.79c-.04-.09-.06-.19-.07-.28l.27,1.99c0-.1,0-.19,0-.28l-.27,1.99c.02-.11,.05-.21,.09-.31l-.76,1.79c.06-.13,.13-.25,.21-.36l-1.17,1.52c.11-.14,.23-.26,.37-.36l-1.52,1.17c.13-.1,.26-.18,.41-.24l-1.79,.76c.14-.06,.29-.1,.44-.13l-1.99,.27c.12-.02,.24-.02,.36,0l-1.99-.27c.09,.01,.18,.04,.27,.07l-1.79-.76c.09,.04,.17,.08,.24,.14l-1.52-1.17c.07,.05,.13,.11,.18,.18l5.3-12.8c-.11,0-.23,0-.34-.02l1.99,.27c-.15-.02-.29-.06-.43-.12l1.79,.76c-.18-.08-.34-.17-.49-.29l1.52,1.17c-.15-.12-.28-.25-.4-.41l1.17,1.52c-.11-.15-.21-.32-.29-.49l.76,1.79c-.06-.16-.11-.32-.13-.49l.27,1.99c-.02-.15-.02-.3,0-.45l-.27,1.99s.01-.08,.02-.11l-5.24,5.24c.08-.02,.16-.04,.24-.05l-1.99,.27c.15-.02,.29-.02,.43,0l-1.99-.27c.16,.02,.31,.07,.46,.13l-1.79-.76c.18,.08,.35,.18,.51,.3l-1.52-1.17c.17,.14,.32,.29,.46,.46l-1.17-1.52c.13,.17,.24,.36,.33,.56l-.76-1.79c.07,.18,.13,.37,.16,.57l-.27-1.99c.02,.16,.02,.32,0,.48l.27-1.99c-.02,.14-.06,.28-.11,.42l.76-1.79c-.06,.13-.13,.26-.21,.37l1.17-1.52c-.09,.11-.19,.21-.3,.3l1.52-1.17c-.12,.09-.25,.17-.39,.23l1.79-.76c-.17,.07-.35,.12-.53,.14l1.99-.27c-.23,.03-.46,.03-.69,0l1.99,.27c-.22-.03-.42-.09-.63-.17l1.79,.76c-.18-.08-.36-.18-.52-.3l1.52,1.17c-.13-.1-.25-.22-.36-.35l1.17,1.52c-.09-.12-.17-.25-.23-.4l.76,1.79c-.05-.12-.08-.24-.1-.37l-.76,5.78s.05-.07,.08-.11l-1.17,1.52c.07-.09,.15-.17,.25-.24l-1.52,1.17c.09-.07,.19-.12,.29-.17l-1.79,.76c.15-.06,.3-.1,.45-.13l-1.99,.27c.18-.02,.35-.02,.52,0l-1.99-.27c.19,.03,.37,.08,.55,.15l-1.79-.76c.13,.06,.26,.13,.37,.22l-1.52-1.17c.11,.09,.21,.19,.3,.3l-1.17-1.52c.07,.09,.12,.19,.17,.3l-.76-1.79c.03,.07,.05,.14,.07,.21l1.93-7.3s-.08,.09-.13,.12l1.52-1.17c-.06,.04-.12,.08-.19,.11l1.79-.76c-.08,.03-.16,.05-.25,.07l1.99-.27c-.1,.01-.21,0-.31,0l1.99,.27c-.1-.02-.2-.05-.3-.09l1.79,.76c-.08-.04-.16-.08-.23-.13l1.52,1.17c-.07-.05-.13-.11-.19-.18l1.17,1.52c-.04-.06-.08-.12-.11-.19l.76,1.79c-.02-.06-.04-.11-.05-.17-.23-.98-.68-1.83-1.34-2.55-.53-.82-1.23-1.46-2.1-1.93-.86-.55-1.79-.84-2.79-.89-1-.22-1.99-.18-2.99,.13l-1.79,.76c-1.13,.67-2.02,1.56-2.69,2.69l-.76,1.79c-.36,1.33-.36,2.66,0,3.99,.15,.75,.49,1.49,.9,2.13,.83,1.29,1.63,2.12,2.94,2.93,.65,.4,1.38,.69,2.11,.9,.04,.01,.07,.02,.11,.03,.5,.1,1.53,.22,2.04,.28,.08,0,.16,.01,.24,0,1.75-.06,2.56-.34,4.1-1.1,.69-.34,1.32-.84,1.83-1.41l.59-.76c.66-.72,1.11-1.57,1.34-2.55l.27-1.99-.27-1.99c-.02-.07-.04-.14-.07-.21-.73-1.95-.8-1.99-2.1-3.61-.08-.1-.17-.19-.27-.27-.43-.36-1.1-.87-1.55-1.2-.03-.03-.07-.05-.11-.07-.06-.04-.12-.07-.19-.11-1.82-.89-2.48-1.05-4.5-1.22-.13-.01-.26,0-.39,0-.62,.06-1.64,.1-2.37,.35-.04,.01-.08,.03-.12,.05-.52,.21-1.33,.53-1.83,.77-.06,.03-.11,.06-.17,.09-.03,.02-.06,.04-.09,.06-.43,.31-1.15,.86-1.55,1.2-.06,.05-.12,.1-.17,.16-.47,.51-.87,1.07-1.27,1.64-.11,.15-.72,1.64-.78,1.83-.45,1.38-.27,2.65,0,4.03,.15,.75,.59,1.56,.87,2.16,.05,.11,.11,.22,.19,.32,.39,.54,.87,1.29,1.43,1.8,.27,.25,.63,.49,.89,.69s.59,.48,.9,.68c.12,.08,.25,.14,.38,.2,.44,.19,1.42,.68,2.12,.87,.77,.2,1.59,.25,2.38,.34,.13,.01,.26,.02,.39,.01,.8-.04,1.6-.15,2.37-.32,.43-.09,.88-.34,1.26-.49,.4-.17,.87-.31,1.24-.57,.58-.4,1.27-.85,1.77-1.4,.02-.03,.05-.05,.07-.08,.36-.43,.87-1.1,1.2-1.55,.05-.07,.1-.14,.14-.22,.78-1.46,1.24-2.93,1.22-4.6-.02-1.89-.45-3.01-1.24-4.68-.08-.17-.18-.32-.29-.47-.3-.41-.94-1.37-1.5-1.87-.03-.03-.06-.05-.09-.08-.49-.4-1.08-.86-1.6-1.23-.07-.05-.13-.09-.2-.14-.08-.05-.17-.09-.26-.13-.54-.24-1.28-.57-1.84-.77-.05-.02-.09-.03-.14-.05-1.55-.47-3.39-.44-4.95,0-1.27,.36-2.37,1-3.31,1.93-.93,.94-1.57,2.04-1.93,3.31-.14,.79-.34,1.61-.3,2.42,0,.05,0,.09,.01,.14,.07,.62,.16,1.43,.28,2.05,.02,.08,.03,.17,.06,.25,.23,.75,.54,1.49,.92,2.18,.04,.08,.09,.15,.14,.22,.2,.28,.44,.58,.64,.83s.43,.58,.66,.85c.3,.35,.74,.63,1.09,.9s.73,.63,1.14,.83c.32,.16,.7,.3,1,.42s.65,.29,.97,.41c.08,.03,.16,.05,.24,.07,.04,0,.07,.01,.11,.02,.61,.11,1.44,.22,2.05,.28,.1,0,.19,.01,.28,0l1.99-.27,1.79-.76,1.52-1.17c.73-.68,1.25-1.48,1.55-2.41,.34-.58,.51-1.22,.51-1.89,.18-.66,.18-1.33,0-1.99,0-.68-.17-1.31-.51-1.89-.3-.93-.82-1.73-1.55-2.41-.51-.6-1.18-1.09-1.87-1.46-1.44-.78-2.56-1.07-4.2-1.13s-3.26,.47-4.66,1.24-2.58,2.01-3.41,3.36c-.41,.66-.72,1.42-.92,2.17-.46,1.67-.34,2.77-.04,4.43,.14,.79,.5,1.54,.91,2.23,.02,.04,.04,.07,.07,.1,.23,.34,.93,1.24,1.2,1.55,.06,.07,.12,.13,.19,.19,1.38,1.21,1.91,1.5,3.64,2.12,.77,.28,1.69,.33,2.45,.37s1.94-.2,2.4-.28c.18-.03,.35-.07,.52-.14,1.53-.58,2.91-1.17,4.03-2.44,1.24-1.4,1.48-1.9,2.14-3.64,.29-.77,.35-1.65,.37-2.46,.04-1.44-.46-3.46-1.3-4.65-.38-.53-.9-1.36-1.5-1.85-.43-.35-1.25-1.1-1.94-1.43s-1.46-.73-2.23-.9c-.82-.18-1.67-.34-2.51-.32-1.56,.04-3.34,.42-4.67,1.28-1.25,.81-2.25,1.68-3.01,2.98-.66,1.13-1.13,2.66-1.01,3.98,0,0,.11,1.62,.33,2.27,.24,.71,.51,1.56,.98,2.2,1.16,1.63,1.45,1.91,3.06,3.06,.65,.47,1.6,.77,2.25,1.02,.76,.29,1.87,.34,2.5,.39,.11,0,.22,0,.33,0,.73-.06,1.54-.1,2.27-.32,1.39-.42,2.78-1.14,3.8-2.2,.93-.96,1.89-2.41,2.13-3.75,.35-2.03,.36-2.19,0-4.22-.12-.67-.75-1.9-.83-2.06-.6-1.15-1.9-2.48-3.06-3.07-1.44-.73-2.35-1.03-3.99-1.07-.77-.02-1.56,.09-2.3,.31-.68,.21-1.46,.47-2.07,.91-1.4,1.01-1.94,1.4-2.87,2.89-.4,.63-.69,1.35-.88,2.08-.47,1.8-.27,2.44,0,4.25,.23,.98,.68,1.83,1.34,2.55,.53,.82,1.23,1.46,2.1,1.93,.86,.55,1.79,.84,2.79,.89,1,.22,1.99,.18,2.99-.13l1.79-.76c1.13-.67,2.02-1.56,2.69-2.69l.76-1.79c.36-1.33,.36-2.66,0-3.99h0Z"/><path class="cls-1" d="M186.64,136.68l-3.21-.04,5.3,12.8c.05-.05,.1-.09,.16-.14l-1.52,1.17c.12-.09,.25-.17,.4-.23l-1.79,.76c.17-.07,.34-.11,.52-.14l-1.99,.27c.18-.02,.36-.02,.54,0l-1.99-.27c.18,.03,.35,.07,.52,.14l-1.79-.76c.15,.07,.3,.15,.43,.25l-1.52-1.17c.1,.08,.19,.16,.27,.26l5.3-12.8c-.06,0-.12,0-.18,0l1.99,.27s-.09-.02-.13-.04l1.79,.76c-.05-.02-.1-.05-.14-.08l1.52,1.17c-.05-.04-.1-.09-.14-.14l1.17,1.52c-.05-.06-.09-.13-.12-.21l.76,1.79c-.04-.09-.07-.19-.08-.29l.27,1.99c-.01-.09-.01-.18,0-.27l-.27,1.99c.01-.07,.03-.13,.05-.19l-.76,1.79c.02-.05,.05-.1,.08-.15l-1.17,1.52s.07-.08,.12-.12l-1.52,1.17s.08-.05,.13-.07l-1.79,.76h.03l-5.78-.77,.04,.03-1.52-1.17c.13,.1,.25,.22,.35,.35l-1.17-1.52c.1,.13,.18,.28,.25,.43l-.76-1.79c.08,.18,.13,.37,.16,.57l-.27-1.99c.02,.18,.02,.36,0,.54l.27-1.99c-.02,.11-.04,.21-.07,.31-.31,1-.36,1.99-.13,2.99,.05,1,.34,1.93,.89,2.79,.47,.87,1.12,1.58,1.93,2.1,.72,.66,1.57,1.11,2.55,1.34l1.99,.27c1.35,0,2.62-.35,3.79-1.02l1.52-1.17c.93-.94,1.57-2.04,1.93-3.31,.03-.1,.05-.2,.07-.31,.1-.61,.21-1.42,.27-2.04,0-.02,0-.04,0-.07,0-.06,0-.12,0-.18,0-.05,0-.11,0-.16,0-.03,0-.06,0-.09-.06-.53-.19-1.49-.27-2.02-.02-.11-.04-.22-.07-.33-.02-.06-.04-.11-.06-.17-.24-.6-.52-1.29-.79-1.87-.05-.11-.11-.21-.18-.31-.42-.6-.85-1.19-1.34-1.73-.28-.3-.7-.58-.99-.8,.37,.28-.54-.45-.8-.61l-1.79-.76-1.99-.27c-.07,0-1.95,.26-2.01,.27-.64,.15-1.23,.47-1.82,.77-.03,.02-.06,.03-.09,.05-.25,.15-1.75,1.35-.78,.6,.17-.13-.58,.41-.8,.62-1.03,1-1.7,2.24-2.11,3.6,0,.03-.02,.07-.02,.1-.06,.29-.25,1.72-.27,2.02,0,.01,0,.03,0,.04,0,.08,0,.15,0,.22-.03-.31,.11,1.54,.31,2.17,.01,.04,.03,.08,.04,.11,.08,.21,.67,1.61,.76,1.81,.01,.02,.02,.05,.03,.07,.02,.03,.04,.07,.06,.1,.17,.26,.82,1.06,.6,.78,.02,.02,.4,.57,.62,.8,.48,.52,1.07,.94,1.67,1.3s1.29,.65,1.98,.84c.01,0,.03,0,.04,0l1.99,.27s.03,0,.04,0c.05,0,.09,0,.14,0l1.99-.27,1.79-.76,1.52-1.17c.73-.68,1.25-1.48,1.55-2.41,.34-.58,.51-1.22,.51-1.89,.18-.66,.18-1.33,0-1.99,0-.68-.17-1.31-.51-1.89-.3-.93-.82-1.73-1.55-2.41-.05-.05-.09-.1-.14-.15-.03-.03-.06-.06-.09-.08-.45-.37-1.08-.85-1.55-1.2-.12-.09-.24-.16-.37-.22-.57-.26-1.26-.55-1.85-.78-.03-.01-.06-.03-.1-.04-.07-.02-.13-.04-.2-.06-.07-.02-.15-.03-.23-.04-.62-.09-1.41-.21-2.04-.27-.04,0-.08,0-.13-.01-.07,0-.14,0-.21,0-.03,0-.07,0-.1,0-.65,.05-1.41,.18-2.06,.27-.14,.02-.27,.05-.41,.09-.04,.01-.08,.03-.12,.04-.56,.22-1.29,.52-1.83,.77-.07,.03-.14,.07-.2,.1-.32,.19-.66,.5-.91,.69-.27,.21-.64,.46-.92,.72l-1.17,1.52-.76,1.79-.27,1.99c-.04,1.03,.18,2,.65,2.89,.18,.64,.5,1.19,.96,1.65,.33,.56,.78,1.01,1.35,1.35,.47,.46,1.02,.79,1.65,.96,.89,.47,1.86,.68,2.89,.65l3.21,.04c1.03,.04,2-.18,2.89-.65,.93-.3,1.73-.82,2.41-1.55,.73-.68,1.25-1.48,1.55-2.41,.47-.89,.68-1.86,.65-2.89l-.27-1.99c-.36-1.27-1-2.37-1.93-3.31l-1.52-1.17c-1.17-.68-2.43-1.02-3.79-1.02h0Z"/><path class="cls-1" d="M226.23,146.97c.02-.1,.05-.19,.09-.28l-.76,1.79c.06-.13,.13-.26,.22-.37l-1.17,1.52c.09-.11,.2-.21,.31-.3l-1.52,1.17c.13-.1,.27-.18,.42-.25l-1.79,.76c.17-.07,.34-.12,.52-.15l-1.99,.27c.16-.02,.32-.02,.48,0l-1.99-.27c.14,.02,.28,.06,.42,.11l-1.79-.76c.09,.04,.17,.09,.26,.14l-2.69-10.26c-.05,.08-.1,.16-.16,.24l1.17-1.52c-.1,.13-.21,.24-.34,.34l1.52-1.17c-.15,.12-.32,.21-.49,.29l1.79-.76c-.21,.09-.43,.14-.65,.17l1.99-.27c-.21,.02-.42,.02-.63,0l1.99,.27c-.21-.03-.41-.08-.6-.16l1.79,.76c-.16-.07-.31-.16-.45-.26l1.52,1.17c-.11-.09-.22-.19-.31-.3l2.2,5.3c0-.05,0-.1,.02-.15l-.27,1.99c.03-.2,.08-.39,.16-.58l-.76,1.79c.09-.2,.2-.38,.33-.55l-1.17,1.52c.15-.18,.32-.35,.5-.49l-1.52,1.17c.2-.15,.42-.28,.66-.38l-1.79,.76c.23-.1,.48-.17,.73-.2l-1.99,.27c.22-.03,.43-.03,.65,0l-1.99-.27c.2,.03,.39,.08,.58,.15l-1.79-.76s.09,.04,.14,.06l-3.71-6.48c0,.08,0,.17-.02,.25l.27-1.99c-.03,.18-.08,.35-.15,.52l.76-1.79c-.08,.17-.17,.32-.28,.47l1.17-1.52c-.13,.17-.29,.33-.46,.46l1.52-1.17c-.19,.15-.39,.26-.61,.36l1.79-.76c-.22,.09-.44,.15-.68,.19l1.99-.27c-.2,.02-.39,.02-.59,0l1.99,.27c-.17-.03-.32-.07-.48-.13l1.79,.76c-.15-.06-.28-.14-.41-.24l1.52,1.17c-.1-.08-.19-.17-.27-.28l1.17,1.52c-.05-.07-.09-.14-.12-.21l.76,1.79c-.03-.08-.05-.15-.07-.23l.27,1.99c0-.06,0-.12,0-.18l-.27,1.99c0-.05,.02-.11,.04-.16l-.76,1.79s.03-.07,.05-.1l-1.17,1.52s.07-.07,.11-.11l-1.52,1.17s.09-.05,.13-.08l-1.79,.76c.06-.02,.12-.04,.19-.05l-1.99,.27c.06,0,.13,0,.19,0l-1.99-.27s.09,.02,.14,.04l-1.79-.76s.06,.03,.09,.05l-1.52-1.17s.05,.04,.07,.07l-1.17-1.52s.03,.04,.03,.06l-.76-1.79s.02,.06,.03,.1l-.27-1.99v.04c-.04,1.03,.18,2,.65,2.89,.3,.93,.82,1.73,1.55,2.41,.68,.73,1.48,1.25,2.41,1.55,.89,.47,1.86,.68,2.89,.65l1.99-.27c1.27-.36,2.37-1,3.31-1.93l1.17-1.52c.68-1.17,1.02-2.43,1.02-3.79-.02-.26-.2-1.77-.27-2.03l-.02-.09c-.4-1.45-.63-1.65-1.38-2.62s-.92-1.29-2.18-2c-.6-.34-1.23-.62-1.9-.81-.73-.21-1.51-.32-2.27-.3-.24,0-1.79,.22-2.03,.27-.03,0-.05,0-.08,.01l-.07,.02c-.31,.12-.62,.25-.93,.39-.31,.12-.63,.25-.93,.39-.02,.01-.04,.03-.07,.04-.15,.09-1.41,1.07-1.55,1.19-.27,.26-.42,.52-.69,.87-.77,1-.53,.59-1.02,1.76s-.66,1.48-.68,3.08c-.04,2.23,.94,4.55,2.56,6.09,.03,.03,.06,.06,.1,.08,.45,.38,1.09,.88,1.57,1.21,.07,.05,.14,.1,.22,.13,.69,.36,1.41,.7,2.17,.9s1.57,.27,2.36,.33c.16,.01,.31,0,.47-.01,.71-.08,1.44-.16,2.14-.29,.07-.01,.13-.03,.2-.05,.75-.21,1.51-.59,2.17-.89,.13-.06,.26-.13,.38-.21,.65-.42,1.26-.9,1.84-1.42,.12-.11,.22-.22,.32-.35,.3-.37,1.08-1.24,1.41-1.9s.72-1.44,.91-2.21c.09-.38,.13-.86,.17-1.19,.05-.38,.14-.84,.15-1.25,0-1.35-.35-2.62-1.02-3.79-.67-1.13-1.56-2.02-2.69-2.69-.05-.02-.09-.04-.14-.06-.55-.25-1.27-.56-1.84-.77-.08-.03-.16-.06-.24-.08-.79-.21-1.62-.29-2.44-.34-.17-.01-.33,0-.5,.02-.54,.06-1.69,.14-2.44,.37s-1.5,.57-2.22,.92c-.16,.08-.31,.17-.46,.27-.62,.44-1.29,.9-1.85,1.45s-1.03,1.24-1.48,1.88c-.09,.13-.17,.27-.24,.41-.27,.56-.74,1.48-.91,2.24,0,.04-.02,.08-.02,.12-.11,.61-.21,1.43-.28,2.04,0,.05-.01,.1-.02,.15l.13,1c.05,1,.34,1.93,.89,2.79,.72,1.23,1.23,1.63,2.24,2.41,.33,.26,.71,.62,1.12,.81,.32,.15,.7,.3,.98,.42s.65,.29,.98,.41c.08,.03,.17,.06,.25,.08,.78,.19,1.6,.28,2.4,.33s1.94-.2,2.48-.28c.18-.03,.35-.06,.52-.12,.75-.27,1.54-.54,2.22-.96,1.37-.84,2.58-1.99,3.38-3.4,.55-.86,.84-1.79,.89-2.79,.22-1,.18-1.99-.13-2.99l-.76-1.79c-.67-1.13-1.56-2.02-2.69-2.69-.07-.05-.14-.08-.21-.12-.51-.25-1.3-.57-1.84-.78-.04-.01-.07-.03-.11-.04-.76-.25-1.62-.29-2.39-.35-.08,0-.16,0-.24,0-.04,0-.08,0-.12,.01-.6,.06-1.47,.17-2.07,.28-.15,.03-.3,.07-.45,.13-.5,.2-1.35,.55-1.84,.78-.04,.02-.07,.03-.11,.05-.07,.04-.14,.08-.21,.13-.62,.43-1.31,.87-1.83,1.44-.03,.03-.05,.06-.08,.09-.37,.44-.86,1.09-1.2,1.56-.05,.07-.09,.13-.13,.2-.02,.04-.04,.07-.05,.11-.13,.3-.26,.61-.39,.92-.14,.31-.27,.62-.4,.94-.03,.08-.05,.15-.07,.23-.31,1-.36,1.99-.13,2.99,.05,1,.34,1.93,.89,2.79,.47,.87,1.12,1.58,1.93,2.1,.72,.66,1.57,1.11,2.55,1.34l1.99,.27c1.35,0,2.62-.35,3.79-1.02l1.52-1.17c.93-.94,1.57-2.04,1.93-3.31h0Z"/><path class="cls-1" d="M253.21,133.46l.33,12.25c.05,1.96,.8,3.91,2.2,5.3,1.3,1.3,3.44,2.28,5.3,2.2s3.95-.72,5.3-2.2,2.25-3.29,2.2-5.3l-.33-12.25c-.05-1.96-.8-3.91-2.2-5.3-1.3-1.3-3.44-2.28-5.3-2.2s-3.95,.72-5.3,2.2-2.25,3.29-2.2,5.3h0Z"/><path class="cls-1" d="M87.83,135.59c3.92,0,7.68-3.45,7.5-7.5s-3.3-7.5-7.5-7.5c-3.92,0-7.68,3.45-7.5,7.5s3.3,7.5,7.5,7.5h0Z"/><path class="cls-1" d="M100.01,236.78l31.41-25.26c1.4-1.13,2.2-3.59,2.2-5.3,0-1.84-.82-4.04-2.2-5.3s-3.31-2.29-5.3-2.2c-2.11,.09-3.67,.88-5.3,2.2l-31.41,25.26c-1.4,1.13-2.2,3.59-2.2,5.3,0,1.84,.82,4.04,2.2,5.3s3.31,2.29,5.3,2.2c2.11-.09,3.67-.88,5.3-2.2h0Z"/><path class="cls-1" d="M31.93,89.04l7.58-7.74c.73-.68,1.25-1.48,1.55-2.41,.47-.89,.68-1.86,.65-2.89,.04-1.03-.18-2-.65-2.89-.3-.93-.82-1.73-1.55-2.41-1.43-1.31-3.31-2.29-5.3-2.2l-1.99,.27c-1.27,.36-2.37,1-3.31,1.93l-7.58,7.74c-.73,.68-1.25,1.48-1.55,2.41-.47,.89-.68,1.86-.65,2.89-.04,1.03,.18,2,.65,2.89,.3,.93,.82,1.73,1.55,2.41,1.43,1.31,3.31,2.29,5.3,2.2l1.99-.27c1.27-.36,2.37-1,3.31-1.93h0Z"/><path class="cls-1" d="M310.32,79.42c2.35,1.99,4.49,4.22,6.37,6.66,.68,.73,1.48,1.25,2.41,1.55,.89,.47,1.86,.68,2.89,.65,1.03,.04,2-.18,2.89-.65,.93-.3,1.73-.82,2.41-1.55l1.17-1.52c.68-1.17,1.02-2.43,1.02-3.79l-.27-1.99c-.36-1.27-1-2.37-1.93-3.31-1.88-2.44-4.02-4.67-6.37-6.66-.68-.73-1.48-1.25-2.41-1.55-.89-.47-1.86-.68-2.89-.65-1.03-.04-2,.18-2.89,.65-.93,.3-1.73,.82-2.41,1.55l-1.17,1.52c-.68,1.17-1.02,2.43-1.02,3.79l.27,1.99c.36,1.27,1,2.37,1.93,3.31h0Z"/></svg>