<?xml version="1.0" encoding="UTF-8"?><svg id="Lead_copy" xmlns="http://www.w3.org/2000/svg" viewBox="0 0 282.64 277.97"><defs><style>.cls-1{fill:#231f20;}</style></defs><g id="Layer_7_copy_2"><path class="cls-1" d="M48.87,189.23c3.31-6.85,4.85-14.18,4.98-21.78,.12-7.01-.93-14.05-2.28-20.91-.76-3.86-5.57-6.42-9.23-5.24-4.1,1.33-6.05,5.09-5.24,9.23,.49,2.5,.93,5.02,1.27,7.54l-.27-1.99c.77,5.82,1.05,11.72,.28,17.56l.27-1.99c-.48,3.39-1.32,6.69-2.61,9.85l.76-1.79c-.28,.66-.57,1.31-.89,1.96-.89,1.84-1.32,3.75-.76,5.78,.48,1.74,1.82,3.63,3.45,4.48,3.36,1.77,8.44,1.08,10.26-2.69h0Z"/><path class="cls-1" d="M48.58,154.71c21.9-14.05,44.08-27.65,66.33-41.14s44.49-26.86,66.59-40.52c12.4-7.66,24.75-15.42,37.01-23.31,3.29-2.12,4.95-6.75,2.69-10.26-2.12-3.29-6.73-4.96-10.26-2.69-21.81,14.05-43.91,27.64-66.08,41.1-22.23,13.5-44.52,26.89-66.66,40.53-12.46,7.68-24.87,15.44-37.19,23.34-3.3,2.12-4.95,6.76-2.69,10.26,2.13,3.3,6.73,4.96,10.26,2.69h0Z"/><path class="cls-1" d="M102.08,225.85c2.64-1.47,5.35-2.79,8.13-3.96l-1.79,.76c10.02-4.18,20.69-6.49,31.42-7.93l-1.99,.27c4.54-.6,9.1-1.05,13.67-1.41,2.01-.16,3.84-.73,5.3-2.2,1.3-1.3,2.28-3.44,2.2-5.3-.17-3.8-3.31-7.83-7.5-7.5-19.6,1.54-39.62,4.61-57.01,14.33-3.43,1.92-4.86,6.9-2.69,10.26s6.59,4.74,10.26,2.69h0Z"/><path class="cls-1" d="M160.9,207.95c15.81-21.87,31.62-43.74,47.42-65.62,2.15-2.97,4.26-5.97,6.4-8.95,1.02-1.42,2.05-2.84,3.09-4.25,.57-.77,1.15-1.53,1.72-2.29,.81-1.07-.21,.36-.3,.38,.34-.11,.94-1.2,1.18-1.5,1.29-1.62,2.2-3.15,2.2-5.3,0-1.84-.82-4.04-2.2-5.3s-3.31-2.29-5.3-2.2c-1.85,.08-4.1,.67-5.3,2.2-4.36,5.49-8.4,11.2-12.47,16.9-3.94,5.52-7.94,11-11.91,16.5l-24,33.21-13.47,18.63c-1.08,1.49-1.22,4.08-.76,5.78s1.82,3.63,3.45,4.48c1.74,.92,3.85,1.38,5.78,.76s3.28-1.78,4.48-3.45h0Z"/><path class="cls-1" d="M36.33,181.21L3.41,214.13c-2.78,2.78-2.98,7.87,0,10.61s7.64,2.96,10.61,0l32.92-32.92c2.78-2.78,2.98-7.87,0-10.61s-7.64-2.96-10.61,0h0Z"/><path class="cls-1" d="M92.85,214.13l-37.89,37.89c-2.78,2.78-2.98,7.87,0,10.61s7.64,2.96,10.61,0l37.89-37.89c2.78-2.78,2.98-7.87,0-10.61s-7.64-2.96-10.61,0h0Z"/><path class="cls-1" d="M220.34,48.65c.95-.45,1.91-.89,2.89-1.31l-1.79,.76c4.28-1.8,8.72-3.16,13.33-3.78l-1.99,.27c3.09-.39,6.19-.43,9.28-.04l-1.99-.27c2.92,.4,5.74,1.18,8.46,2.32l-1.79-.76c2.16,.93,4.22,2.05,6.16,3.38,.17,.11,1.26,1.06,1.39,1-.1,.05-1.6-1.27-.47-.35,.2,.16,.39,.32,.59,.48,.92,.78,1.8,1.6,2.64,2.46,.8,.82,1.56,1.67,2.28,2.55,.16,.2,.31,.4,.47,.59-1.41-1.72-.68-.87-.37-.46,.33,.46,.66,.93,.97,1.41,1.27,1.92,2.34,3.96,3.24,6.07l-.76-1.79c1.62,3.86,2.7,7.91,3.29,12.06l-.27-1.99c.51,3.83,.58,7.7,.08,11.53l.27-1.99c-.39,2.79-1.09,5.52-2.19,8.12l.76-1.79c-.53,1.22-1.13,2.41-1.84,3.54-.38,.61-.81,1.18-1.22,1.77,1.6-2.26,.18-.29-.32,.25-.46,.5-.95,.97-1.46,1.42-.24,.21-.48,.41-.72,.62-.98,.84,1.67-1.18,.37-.29-1.42,.96-2.86,1.8-4.44,2.48l1.79-.76c-2.57,1.04-5.26,1.63-8,2.01l1.99-.27c-4.15,.53-8.35,.6-12.51,1.08-5.29,.61-10.22,1.67-14.95,4.21-3.46,1.86-4.83,6.94-2.69,10.26,2.26,3.51,6.56,4.68,10.26,2.69,.71-.38,1.43-.73,2.17-1.04l-1.79,.76c2.57-1.05,5.26-1.65,8.01-2.02l-1.99,.27c5.48-.71,11-.77,16.46-1.61,5.83-.89,11.1-3.26,15.68-6.95,7.43-5.99,10.79-15.4,11.58-24.64s-1.29-18.12-4.96-26.29c-4.18-9.31-12.22-17.41-21.57-21.54-6.62-2.92-13.75-4.34-21-3.56-7.39,.8-14.18,3.03-20.88,6.22-1.61,.77-2.99,2.82-3.45,4.48-.49,1.8-.27,4.19,.76,5.78,2.35,3.65,6.46,4.5,10.26,2.69h0Z"/><path class="cls-1" d="M222.84,122.82c1.56-1.89,3.32-3.61,5.26-5.11l-1.52,1.17c1.8-1.38,3.73-2.58,5.78-3.56,.87-.47,1.58-1.12,2.1-1.93,.66-.72,1.11-1.57,1.34-2.55,.31-1,.36-1.99,.13-2.99-.05-1-.34-1.93-.89-2.79-1.03-1.6-2.57-3.01-4.48-3.45l-1.99-.27c-1.35,0-2.62,.35-3.79,1.02-2.71,1.3-5.09,2.99-7.44,4.84-1.88,1.48-3.59,3.15-5.11,5-.73,.68-1.25,1.48-1.55,2.41-.47,.89-.68,1.86-.65,2.89,0,1.84,.82,4.04,2.2,5.3s3.31,2.29,5.3,2.2c1.88-.08,4.06-.69,5.3-2.2h0Z"/><path class="cls-1" d="M218.51,49.72c.33-.15,.67-.29,1-.43l-1.79,.76c1.38-.58,2.77-1.11,4.19-1.58,.98-.23,1.83-.68,2.55-1.34,.82-.53,1.46-1.23,1.93-2.1,.55-.86,.84-1.79,.89-2.79,.22-1,.18-1.99-.13-2.99l-.76-1.79c-.67-1.13-1.56-2.02-2.69-2.69l-1.79-.76c-1.33-.36-2.66-.36-3.99,0-2.37,.8-4.69,1.76-6.98,2.77-.87,.47-1.58,1.12-2.1,1.93-.66,.72-1.11,1.57-1.34,2.55-.31,1-.36,1.99-.13,2.99,.05,1,.34,1.93,.89,2.79l1.17,1.52c.94,.93,2.04,1.57,3.31,1.93l1.99,.27c1.35,0,2.62-.35,3.79-1.02h0Z"/></g><path class="cls-1" d="M36.04,82.46c-2.89,.44-5.86,2.33-7.69,4.58-2.49,3.05-3.67,6.4-4.08,10.28-.51,4.75,.63,9.94,3.11,14.04,3.07,5.06,8.04,8.27,13.95,8.71s12.12-2.61,16.5-6.51c8.31-7.41,8.79-21.91,.27-29.38-3.94-3.45-9.28-5.78-14.61-5.29-3.01,.28-5.83,.99-8.45,2.56s-4.56,3.6-6.32,6.02c-3.35,4.61-4.28,11.35-2.17,16.65,2.35,5.88,7.16,10.9,13.58,12.19,3.17,.63,6.85-.39,8.47-3.45s1.08-6.45-1.17-9.09c-.35-.41-.67-.89-1.06-1.27,.74,.98,.88,1.15,.42,.53-.16-.22-.32-.45-.48-.68-.62-.91-1.15-1.86-1.59-2.86l.76,1.79c-.36-.89-.63-1.77-.79-2.72l.27,1.99c-.11-.82-.11-1.59-.01-2.41l-.27,1.99c.11-.67,.29-1.31,.53-1.94l-.76,1.79c.13-.31,.27-.61,.44-.9,.11-.19,.23-.38,.35-.56-.83,1.02-1.05,1.32-.67,.88,.24-.2,1.2-1.05,.06-.18s.01,.07,.32-.08l-1.79,.76c.41-.17,.8-.29,1.24-.38l-1.99,.27c.4-.05,.76-.07,1.17-.05l-1.99-.27c.41,.06,.74,.14,1.13,.28l-1.79-.76c.96,.48-.7-.6-.65-.62,.12-.04,1.13,1.31,.09,.01-.77-.97-.27-.3-.12-.02,.14,.27,.26,.54,.38,.81l-.76-1.79c.45,1.16,.79,2.36,1,3.59l-.27-1.99c.07,.61,.1,1.19,.06,1.8l.27-1.99c-.06,.43-.15,.81-.29,1.22l.76-1.79c-.31,.69-.89,1.11,.4-.3-.84,.93,1.53-.94,.38-.34l1.79-.76c-.21,.1-.43,.17-.66,.21l1.99-.27c-.23,.04-.46,.05-.68,.03l1.99,.27c-.22-.02-.43-.07-.64-.15l1.79,.76c-.46-.24-.38-.14,.25,.3,.58,.5,.69,.57,.31,.22l.82,1.05c-.11-.17-.2-.35-.28-.54l.76,1.79c-.15-.4-.25-.79-.31-1.21l.27,1.99c-.04-.43-.04-.84,0-1.27l-.27,1.99c.09-.59,.25-1.13,.47-1.68l-.76,1.79c.11-.23,.23-.45,.34-.67,.53-1.07-1.01,1.01-.4,.46,.22-.2,.91-.79-.07-.03-1.03,.79-.07,.13,.19,0l-1.79,.76c.45-.18,.87-.29,1.35-.36l-1.99,.27c.36-.02,.69-.02,1.05,.01l-1.99-.27c.35,.06,.67,.14,1.01,.26l-1.79-.76c.86,.39,.66,.72-.36-.44l-.72-.99c.13,.19,.24,.39,.33,.6l-.76-1.79c.13,.33,.21,.64,.28,.99l-.27-1.99c.05,.47,.05,.92,0,1.39l.27-1.99c-.09,.48-.21,.91-.39,1.36l.76-1.79c-.09,.22-.2,.43-.32,.63-.4,.61-.24,.4,.49-.6-.14,.06-1.6,1.4-.41,.46,1.09-.86-.33,.13-.58,.27-.47,.25-.96,.47-1.45,.69l1.79-.76c-.69,.28-1.37,.52-2.11,.65l1.99-.27c-.36,.04-.69,.05-1.05,.02l1.99,.27c-.22-.03-.44-.08-.65-.16l1.79,.76c-.67-.35-.44-.15,.7,.61,.79,1.16,1.03,1.41,.71,.75l.76,1.79c-.07-.19-.11-.39-.14-.59l.27,1.99c-.02-.33-.02-.63,0-.96l-.27,1.99c.11-.68,.3-1.32,.56-1.96l-.76,1.79c.97-2.16,2.28-4.18,3.65-6.11,1.07-1.5,1.23-4.07,.76-5.78s-1.82-3.63-3.45-4.48c-3.87-2.04-7.82-.73-10.26,2.69-2.58,3.61-5.56,8.17-5.25,12.8,.29,4.23,2.88,8.02,7.08,9.21,3.32,.93,6.4,0,9.43-1.32,5.07-2.2,9.32-7.05,9.13-12.85-.13-3.86-1.91-7.14-5.08-9.33-2.67-1.84-6.16-2.15-9.25-1.45-5.69,1.28-9.95,7.51-9.57,13.24,.2,2.98,1.24,6.08,3.59,8.06,3.35,2.81,7.84,3.44,11.74,1.28,5.98-3.33,6.74-10.65,4.64-16.55-1.08-3.04-2.67-5.73-5.43-7.53s-6.55-2.15-9.61-1.08c-5.88,2.05-9.47,7.69-9.61,13.83s3.31,10.95,6.96,15.23l7.3-12.54c-.7-.14-1.36-.34-2.03-.59l1.79,.76c-.65-.28-1.27-.6-1.86-.98-.63-.41-.96-1.06,.39,.33-.24-.25-.53-.47-.78-.72-.18-.18-.67-.55-.71-.79l.74,.96c-.14-.19-.27-.38-.4-.58-.39-.6-.71-1.22-.99-1.87l.76,1.79c-.35-.88-.6-1.77-.75-2.71l.27,1.99c-.12-.95-.12-1.87-.01-2.82l-.27,1.99c.16-1.06,.44-2.06,.86-3.04l-.76,1.79c.29-.65,.62-1.27,1.02-1.86s1.08-1-.32,.38c.25-.25,.47-.53,.72-.78,.17-.17,.57-.7,.78-.72l-.96,.73c.19-.14,.38-.28,.58-.41,.59-.39,1.22-.72,1.86-1l-1.79,.76c.88-.36,1.78-.6,2.72-.75l-1.99,.27c1.06-.13,2.1-.13,3.16,0l-1.99-.27c1.06,.16,2.07,.43,3.07,.82l-1.79-.76c.65,.28,1.29,.59,1.9,.96,.3,.18,.58,.42,.88,.59-1.83-1.02-.86-.69-.3-.15,.26,.24,.5,.5,.73,.76,1.02,1.16-.71-1.06-.31-.4s.79,1.32,1.11,2.05l-.76-1.79c.4,1.02,.67,2.05,.83,3.13l-.27-1.99c.14,1.21,.12,2.4-.04,3.61l.27-1.99c-.17,1.08-.46,2.12-.86,3.14l.76-1.79c-.34,.79-.76,1.49-1.2,2.23-.67,1.13,1.23-1.3,.29-.37-.36,.35-.68,.73-1.05,1.08-.16,.15-.32,.29-.48,.43-.61,.49-.44,.37,.5-.38-.33,.07-.79,.54-1.08,.72-.86,.54-1.76,1-2.69,1.41l1.79-.76c-1.21,.5-2.44,.86-3.74,1.06l1.99-.27c-.86,.1-1.69,.12-2.55,.04l1.99,.27c-.88-.12-1.69-.33-2.51-.66l1.79,.76c-.6-.27-1.11-.65-1.69-.95,1.56,.8,1.14,.93,.51,.36-.24-.22-.47-.45-.69-.7-.48-.54-.64-1.34,.35,.49-.16-.29-.38-.55-.55-.83-.35-.58-.65-1.18-.92-1.8l.76,1.79c-.57-1.38-.95-2.81-1.15-4.29l.27,1.99c-.16-1.39-.16-2.77,0-4.16l-.27,1.99c.16-1.14,.43-2.22,.88-3.28l-.76,1.79c.18-.37,.39-.72,.58-1.08,.59-1.18-1.28,1.37-.12,.19,1.1-1.11-.98,.56-.36,.22,.39-.21,.75-.43,1.15-.61l-1.79,.76c.48-.17,.94-.29,1.44-.37,1.73-.26,3.64-2.01,4.48-3.45,.94-1.61,1.34-3.98,.76-5.78s-1.71-3.57-3.45-4.48c-1.9-1-3.67-1.08-5.78-.76h0Z"/><path class="cls-1" d="M80.47,56.18c-2.89,.44-5.86,2.33-7.69,4.58-2.49,3.05-3.67,6.4-4.08,10.28-.51,4.75,.63,9.94,3.11,14.04,3.07,5.06,8.04,8.27,13.95,8.71s12.12-2.61,16.5-6.51c8.31-7.41,8.79-21.91,.27-29.38-3.94-3.45-9.28-5.78-14.61-5.29-3.01,.28-5.83,.99-8.45,2.56s-4.56,3.6-6.32,6.02c-3.35,4.61-4.28,11.35-2.17,16.65,2.35,5.88,7.16,10.9,13.58,12.19,3.17,.63,6.85-.39,8.47-3.45s1.08-6.45-1.17-9.09c-.35-.41-.67-.89-1.06-1.27,.74,.98,.88,1.15,.42,.53-.16-.22-.32-.45-.48-.68-.62-.91-1.15-1.86-1.59-2.86l.76,1.79c-.36-.89-.63-1.77-.79-2.72l.27,1.99c-.11-.82-.11-1.59-.01-2.41l-.27,1.99c.11-.67,.29-1.31,.53-1.94l-.76,1.79c.13-.31,.27-.61,.44-.9,.11-.19,.23-.38,.35-.56-.83,1.02-1.05,1.32-.67,.88,.24-.2,1.2-1.05,.06-.18s.01,.07,.32-.08l-1.79,.76c.41-.17,.8-.29,1.24-.38l-1.99,.27c.4-.05,.76-.07,1.17-.05l-1.99-.27c.41,.06,.74,.14,1.13,.28l-1.79-.76c.96,.48-.7-.6-.65-.62,.12-.04,1.13,1.31,.09,.01-.77-.97-.27-.3-.12-.02,.14,.27,.26,.54,.38,.81l-.76-1.79c.45,1.16,.79,2.36,1,3.59l-.27-1.99c.07,.61,.1,1.19,.06,1.8l.27-1.99c-.06,.43-.15,.81-.29,1.22l.76-1.79c-.31,.69-.89,1.11,.4-.3-.84,.93,1.53-.94,.38-.34l1.79-.76c-.21,.1-.43,.17-.66,.21l1.99-.27c-.23,.04-.46,.05-.68,.03l1.99,.27c-.22-.02-.43-.07-.64-.15l1.79,.76c-.46-.24-.38-.14,.25,.3,.58,.5,.69,.57,.31,.22l.82,1.05c-.11-.17-.2-.35-.28-.54l.76,1.79c-.15-.4-.25-.79-.31-1.21l.27,1.99c-.04-.43-.04-.84,0-1.27l-.27,1.99c.09-.59,.25-1.13,.47-1.68l-.76,1.79c.11-.23,.23-.45,.34-.67,.53-1.07-1.01,1.01-.4,.46,.22-.2,.91-.79-.07-.03-1.03,.79-.07,.13,.19,0l-1.79,.76c.45-.18,.87-.29,1.35-.36l-1.99,.27c.36-.02,.69-.02,1.05,.01l-1.99-.27c.35,.06,.67,.14,1.01,.26l-1.79-.76c.86,.39,.66,.72-.36-.44l-.72-.99c.13,.19,.24,.39,.33,.6l-.76-1.79c.13,.33,.21,.64,.28,.99l-.27-1.99c.05,.47,.05,.92,0,1.39l.27-1.99c-.09,.48-.21,.91-.39,1.36l.76-1.79c-.09,.22-.2,.43-.32,.63-.4,.61-.24,.4,.49-.6-.14,.06-1.6,1.4-.41,.46,1.09-.86-.33,.13-.58,.27-.47,.25-.96,.47-1.45,.69l1.79-.76c-.69,.28-1.37,.52-2.11,.65l1.99-.27c-.36,.04-.69,.05-1.05,.02l1.99,.27c-.22-.03-.44-.08-.65-.16l1.79,.76c-.67-.35-.44-.15,.7,.61,.79,1.16,1.03,1.41,.71,.75l.76,1.79c-.07-.19-.11-.39-.14-.59l.27,1.99c-.02-.33-.02-.63,0-.96l-.27,1.99c.11-.68,.3-1.32,.56-1.96l-.76,1.79c.97-2.16,2.28-4.18,3.65-6.11,1.07-1.5,1.23-4.07,.76-5.78s-1.82-3.63-3.45-4.48c-3.87-2.04-7.82-.73-10.26,2.69-2.58,3.61-5.56,8.17-5.25,12.8,.29,4.23,2.88,8.02,7.08,9.21,3.32,.93,6.4,0,9.43-1.32,5.07-2.2,9.32-7.05,9.13-12.85-.13-3.86-1.91-7.14-5.08-9.33-2.67-1.84-6.16-2.15-9.25-1.45-5.69,1.28-9.95,7.51-9.57,13.24,.2,2.98,1.24,6.08,3.59,8.06,3.35,2.81,7.84,3.44,11.74,1.28,5.98-3.33,6.74-10.65,4.64-16.55-1.08-3.04-2.67-5.73-5.43-7.53s-6.55-2.15-9.61-1.08c-5.88,2.05-9.47,7.69-9.61,13.83s3.31,10.95,6.96,15.23l7.3-12.54c-.7-.14-1.36-.34-2.03-.59l1.79,.76c-.65-.28-1.27-.6-1.86-.98-.63-.41-.96-1.06,.39,.33-.24-.25-.53-.47-.78-.72-.18-.18-.67-.55-.71-.79l.74,.96c-.14-.19-.27-.38-.4-.58-.39-.6-.71-1.22-.99-1.87l.76,1.79c-.35-.88-.6-1.77-.75-2.71l.27,1.99c-.12-.95-.12-1.87-.01-2.82l-.27,1.99c.16-1.06,.44-2.06,.86-3.04l-.76,1.79c.29-.65,.62-1.27,1.02-1.86s1.08-1-.32,.38c.25-.25,.47-.53,.72-.78,.17-.17,.57-.7,.78-.72l-.96,.73c.19-.14,.38-.28,.58-.41,.59-.39,1.22-.72,1.86-1l-1.79,.76c.88-.36,1.78-.6,2.72-.75l-1.99,.27c1.06-.13,2.1-.13,3.16,0l-1.99-.27c1.06,.16,2.07,.43,3.07,.82l-1.79-.76c.65,.28,1.29,.59,1.9,.96,.3,.18,.58,.42,.88,.59-1.83-1.02-.86-.69-.3-.15,.26,.24,.5,.5,.73,.76,1.02,1.16-.71-1.06-.31-.4s.79,1.32,1.11,2.05l-.76-1.79c.4,1.02,.67,2.05,.83,3.13l-.27-1.99c.14,1.21,.12,2.4-.04,3.61l.27-1.99c-.17,1.08-.46,2.12-.86,3.14l.76-1.79c-.34,.79-.76,1.49-1.2,2.23-.67,1.13,1.23-1.3,.29-.37-.36,.35-.68,.73-1.05,1.08-.16,.15-.32,.29-.48,.43-.61,.49-.44,.37,.5-.38-.33,.07-.79,.54-1.08,.72-.86,.54-1.76,1-2.69,1.41l1.79-.76c-1.21,.5-2.44,.86-3.74,1.06l1.99-.27c-.86,.1-1.69,.12-2.55,.04l1.99,.27c-.88-.12-1.69-.33-2.51-.66l1.79,.76c-.6-.27-1.11-.65-1.69-.95,1.56,.8,1.14,.93,.51,.36-.24-.22-.47-.45-.69-.7-.48-.54-.64-1.34,.35,.49-.16-.29-.38-.55-.55-.83-.35-.58-.65-1.18-.92-1.8l.76,1.79c-.57-1.38-.95-2.81-1.15-4.29l.27,1.99c-.16-1.39-.16-2.77,0-4.16l-.27,1.99c.16-1.14,.43-2.22,.88-3.28l-.76,1.79c.18-.37,.39-.72,.58-1.08,.59-1.18-1.28,1.37-.12,.19,1.1-1.11-.98,.56-.36,.22,.39-.21,.75-.43,1.15-.61l-1.79,.76c.48-.17,.94-.29,1.44-.37,1.73-.26,3.64-2.01,4.48-3.45,.94-1.61,1.34-3.98,.76-5.78s-1.71-3.57-3.45-4.48c-1.9-1-3.67-1.08-5.78-.76h0Z"/><path class="cls-1" d="M124.83,29.91c-2.89,.44-5.86,2.33-7.69,4.58-2.49,3.05-3.67,6.4-4.08,10.28-.51,4.75,.63,9.94,3.11,14.04,3.07,5.06,8.04,8.27,13.95,8.71s12.12-2.61,16.5-6.51c8.31-7.41,8.79-21.91,.27-29.38-3.94-3.45-9.28-5.78-14.61-5.29-3.01,.28-5.83,.99-8.45,2.56s-4.56,3.6-6.32,6.02c-3.35,4.61-4.28,11.35-2.17,16.65,2.35,5.88,7.16,10.9,13.58,12.19,3.17,.63,6.85-.39,8.47-3.45s1.08-6.45-1.17-9.09c-.35-.41-.67-.89-1.06-1.27,.74,.98,.88,1.15,.42,.53-.16-.22-.32-.45-.48-.68-.62-.91-1.15-1.86-1.59-2.86l.76,1.79c-.36-.89-.63-1.77-.79-2.72l.27,1.99c-.11-.82-.11-1.59-.01-2.41l-.27,1.99c.11-.67,.29-1.31,.53-1.94l-.76,1.79c.13-.31,.27-.61,.44-.9,.11-.19,.23-.38,.35-.56-.83,1.02-1.05,1.32-.67,.88,.24-.2,1.2-1.05,.06-.18s.01,.07,.32-.08l-1.79,.76c.41-.17,.8-.29,1.24-.38l-1.99,.27c.4-.05,.76-.07,1.17-.05l-1.99-.27c.41,.06,.74,.14,1.13,.28l-1.79-.76c.96,.48-.7-.6-.65-.62,.12-.04,1.13,1.31,.09,.01-.77-.97-.27-.3-.12-.02,.14,.27,.26,.54,.38,.81l-.76-1.79c.45,1.16,.79,2.36,1,3.59l-.27-1.99c.07,.61,.1,1.19,.06,1.8l.27-1.99c-.06,.43-.15,.81-.29,1.22l.76-1.79c-.31,.69-.89,1.11,.4-.3-.84,.93,1.53-.94,.38-.34l1.79-.76c-.21,.1-.43,.17-.66,.21l1.99-.27c-.23,.04-.46,.05-.68,.03l1.99,.27c-.22-.02-.43-.07-.64-.15l1.79,.76c-.46-.24-.38-.14,.25,.3,.58,.5,.69,.57,.31,.22l.82,1.05c-.11-.17-.2-.35-.28-.54l.76,1.79c-.15-.4-.25-.79-.31-1.21l.27,1.99c-.04-.43-.04-.84,0-1.27l-.27,1.99c.09-.59,.25-1.13,.47-1.68l-.76,1.79c.11-.23,.23-.45,.34-.67,.53-1.07-1.01,1.01-.4,.46,.22-.2,.91-.79-.07-.03-1.03,.79-.07,.13,.19,0l-1.79,.76c.45-.18,.87-.29,1.35-.36l-1.99,.27c.36-.02,.69-.02,1.05,.01l-1.99-.27c.35,.06,.67,.14,1.01,.26l-1.79-.76c.86,.39,.66,.72-.36-.44l-.72-.99c.13,.19,.24,.39,.33,.6l-.76-1.79c.13,.33,.21,.64,.28,.99l-.27-1.99c.05,.47,.05,.92,0,1.39l.27-1.99c-.09,.48-.21,.91-.39,1.36l.76-1.79c-.09,.22-.2,.43-.32,.63-.4,.61-.24,.4,.49-.6-.14,.06-1.6,1.4-.41,.46,1.09-.86-.33,.13-.58,.27-.47,.25-.96,.47-1.45,.69l1.79-.76c-.69,.28-1.37,.52-2.11,.65l1.99-.27c-.36,.04-.69,.05-1.05,.02l1.99,.27c-.22-.03-.44-.08-.65-.16l1.79,.76c-.67-.35-.44-.15,.7,.61,.79,1.16,1.03,1.41,.71,.75l.76,1.79c-.07-.19-.11-.39-.14-.59l.27,1.99c-.02-.33-.02-.63,0-.96l-.27,1.99c.11-.68,.3-1.32,.56-1.96l-.76,1.79c.97-2.16,2.28-4.18,3.65-6.11,1.07-1.5,1.23-4.07,.76-5.78s-1.82-3.63-3.45-4.48c-3.87-2.04-7.82-.73-10.26,2.69-2.58,3.61-5.56,8.17-5.25,12.8,.29,4.23,2.88,8.02,7.08,9.21,3.32,.93,6.4,0,9.43-1.32,5.07-2.2,9.32-7.05,9.13-12.85-.13-3.86-1.91-7.14-5.08-9.33-2.67-1.84-6.16-2.15-9.25-1.45-5.69,1.28-9.95,7.51-9.57,13.24,.2,2.98,1.24,6.08,3.59,8.06,3.35,2.81,7.84,3.44,11.74,1.28,5.98-3.33,6.74-10.65,4.64-16.55-1.08-3.04-2.67-5.73-5.43-7.53s-6.55-2.15-9.61-1.08c-5.88,2.05-9.47,7.69-9.61,13.83s3.31,10.95,6.96,15.23l7.3-12.54c-.7-.14-1.36-.34-2.03-.59l1.79,.76c-.65-.28-1.27-.6-1.86-.98-.63-.41-.96-1.06,.39,.33-.24-.25-.53-.47-.78-.72-.18-.18-.67-.55-.71-.79l.74,.96c-.14-.19-.27-.38-.4-.58-.39-.6-.71-1.22-.99-1.87l.76,1.79c-.35-.88-.6-1.77-.75-2.71l.27,1.99c-.12-.95-.12-1.87-.01-2.82l-.27,1.99c.16-1.06,.44-2.06,.86-3.04l-.76,1.79c.29-.65,.62-1.27,1.02-1.86s1.08-1-.32,.38c.25-.25,.47-.53,.72-.78,.17-.17,.57-.7,.78-.72l-.96,.73c.19-.14,.38-.28,.58-.41,.59-.39,1.22-.72,1.86-1l-1.79,.76c.88-.36,1.78-.6,2.72-.75l-1.99,.27c1.06-.13,2.1-.13,3.16,0l-1.99-.27c1.06,.16,2.07,.43,3.07,.82l-1.79-.76c.65,.28,1.29,.59,1.9,.96,.3,.18,.58,.42,.88,.59-1.83-1.02-.86-.69-.3-.15,.26,.24,.5,.5,.73,.76,1.02,1.16-.71-1.06-.31-.4s.79,1.32,1.11,2.05l-.76-1.79c.4,1.02,.67,2.05,.83,3.13l-.27-1.99c.14,1.21,.12,2.4-.04,3.61l.27-1.99c-.17,1.08-.46,2.12-.86,3.14l.76-1.79c-.34,.79-.76,1.49-1.2,2.23-.67,1.13,1.23-1.3,.29-.37-.36,.35-.68,.73-1.05,1.08-.16,.15-.32,.29-.48,.43-.61,.49-.44,.37,.5-.38-.33,.07-.79,.54-1.08,.72-.86,.54-1.76,1-2.69,1.41l1.79-.76c-1.21,.5-2.44,.86-3.74,1.06l1.99-.27c-.86,.1-1.69,.12-2.55,.04l1.99,.27c-.88-.12-1.69-.33-2.51-.66l1.79,.76c-.6-.27-1.11-.65-1.69-.95,1.56,.8,1.14,.93,.51,.36-.24-.22-.47-.45-.69-.7-.48-.54-.64-1.34,.35,.49-.16-.29-.38-.55-.55-.83-.35-.58-.65-1.18-.92-1.8l.76,1.79c-.57-1.38-.95-2.81-1.15-4.29l.27,1.99c-.16-1.39-.16-2.77,0-4.16l-.27,1.99c.16-1.14,.43-2.22,.88-3.28l-.76,1.79c.18-.37,.39-.72,.58-1.08,.59-1.18-1.28,1.37-.12,.19,1.1-1.11-.98,.56-.36,.22,.39-.21,.75-.43,1.15-.61l-1.79,.76c.48-.17,.94-.29,1.44-.37,1.73-.26,3.64-2.01,4.48-3.45,.94-1.61,1.34-3.98,.76-5.78s-1.71-3.57-3.45-4.48c-1.9-1-3.67-1.08-5.78-.76h0Z"/><path class="cls-1" d="M168.82,3.64c-2.89,.44-5.86,2.33-7.69,4.58-2.49,3.05-3.67,6.4-4.08,10.28-.51,4.75,.63,9.94,3.11,14.04,3.07,5.06,8.04,8.27,13.95,8.71s12.12-2.61,16.5-6.51c8.31-7.41,8.79-21.91,.27-29.38-3.94-3.45-9.28-5.78-14.61-5.29-3.01,.28-5.83,.99-8.45,2.56s-4.56,3.6-6.32,6.02c-3.35,4.61-4.28,11.35-2.17,16.65,2.35,5.88,7.16,10.9,13.58,12.19,3.17,.63,6.85-.39,8.47-3.45s1.08-6.45-1.17-9.09c-.35-.41-.67-.89-1.06-1.27,.74,.98,.88,1.15,.42,.53-.16-.22-.32-.45-.48-.68-.62-.91-1.15-1.86-1.59-2.86l.76,1.79c-.36-.89-.63-1.77-.79-2.72l.27,1.99c-.11-.82-.11-1.59-.01-2.41l-.27,1.99c.11-.67,.29-1.31,.53-1.94l-.76,1.79c.13-.31,.27-.61,.44-.9,.11-.19,.23-.38,.35-.56-.83,1.02-1.05,1.32-.67,.88,.24-.2,1.2-1.05,.06-.18s.01,.07,.32-.08l-1.79,.76c.41-.17,.8-.29,1.24-.38l-1.99,.27c.4-.05,.76-.07,1.17-.05l-1.99-.27c.41,.06,.74,.14,1.13,.28l-1.79-.76c.96,.48-.7-.6-.65-.62,.12-.04,1.13,1.31,.09,.01-.77-.97-.27-.3-.12-.02,.14,.27,.26,.54,.38,.81l-.76-1.79c.45,1.16,.79,2.36,1,3.59l-.27-1.99c.07,.61,.1,1.19,.06,1.8l.27-1.99c-.06,.43-.15,.81-.29,1.22l.76-1.79c-.31,.69-.89,1.11,.4-.3-.84,.93,1.53-.94,.38-.34l1.79-.76c-.21,.1-.43,.17-.66,.21l1.99-.27c-.23,.04-.46,.05-.68,.03l1.99,.27c-.22-.02-.43-.07-.64-.15l1.79,.76c-.46-.24-.38-.14,.25,.3,.58,.5,.69,.57,.31,.22l.82,1.05c-.11-.17-.2-.35-.28-.54l.76,1.79c-.15-.4-.25-.79-.31-1.21l.27,1.99c-.04-.43-.04-.84,0-1.27l-.27,1.99c.09-.59,.25-1.13,.47-1.68l-.76,1.79c.11-.23,.23-.45,.34-.67,.53-1.07-1.01,1.01-.4,.46,.22-.2,.91-.79-.07-.03-1.03,.79-.07,.13,.19,0l-1.79,.76c.45-.18,.87-.29,1.35-.36l-1.99,.27c.36-.02,.69-.02,1.05,.01l-1.99-.27c.35,.06,.67,.14,1.01,.26l-1.79-.76c.86,.39,.66,.72-.36-.44l-.72-.99c.13,.19,.24,.39,.33,.6l-.76-1.79c.13,.33,.21,.64,.28,.99l-.27-1.99c.05,.47,.05,.92,0,1.39l.27-1.99c-.09,.48-.21,.91-.39,1.36l.76-1.79c-.09,.22-.2,.43-.32,.63-.4,.61-.24,.4,.49-.6-.14,.06-1.6,1.4-.41,.46,1.09-.86-.33,.13-.58,.27-.47,.25-.96,.47-1.45,.69l1.79-.76c-.69,.28-1.37,.52-2.11,.65l1.99-.27c-.36,.04-.69,.05-1.05,.02l1.99,.27c-.22-.03-.44-.08-.65-.16l1.79,.76c-.67-.35-.44-.15,.7,.61,.79,1.16,1.03,1.41,.71,.75l.76,1.79c-.07-.19-.11-.39-.14-.59l.27,1.99c-.02-.33-.02-.63,0-.96l-.27,1.99c.11-.68,.3-1.32,.56-1.96l-.76,1.79c.97-2.16,2.28-4.18,3.65-6.11,1.07-1.5,1.23-4.07,.76-5.78s-1.82-3.63-3.45-4.48c-3.87-2.04-7.82-.73-10.26,2.69-2.58,3.61-5.56,8.17-5.25,12.8,.29,4.23,2.88,8.02,7.08,9.21,3.32,.93,6.4,0,9.43-1.32,5.07-2.2,9.32-7.05,9.13-12.85-.13-3.86-1.91-7.14-5.08-9.33-2.67-1.84-6.16-2.15-9.25-1.45-5.69,1.28-9.95,7.51-9.57,13.24,.2,2.98,1.24,6.08,3.59,8.06,3.35,2.81,7.84,3.44,11.74,1.28,5.98-3.33,6.74-10.65,4.64-16.55-1.08-3.04-2.67-5.73-5.43-7.53s-6.55-2.15-9.61-1.08c-5.88,2.05-9.47,7.69-9.61,13.83s3.31,10.95,6.96,15.23l7.3-12.54c-.7-.14-1.36-.34-2.03-.59l1.79,.76c-.65-.28-1.27-.6-1.86-.98-.63-.41-.96-1.06,.39,.33-.24-.25-.53-.47-.78-.72-.18-.18-.67-.55-.71-.79l.74,.96c-.14-.19-.27-.38-.4-.58-.39-.6-.71-1.22-.99-1.87l.76,1.79c-.35-.88-.6-1.77-.75-2.71l.27,1.99c-.12-.95-.12-1.87-.01-2.82l-.27,1.99c.16-1.06,.44-2.06,.86-3.04l-.76,1.79c.29-.65,.62-1.27,1.02-1.86s1.08-1-.32,.38c.25-.25,.47-.53,.72-.78,.17-.17,.57-.7,.78-.72l-.96,.73c.19-.14,.38-.28,.58-.41,.59-.39,1.22-.72,1.86-1l-1.79,.76c.88-.36,1.78-.6,2.72-.75l-1.99,.27c1.06-.13,2.1-.13,3.16,0l-1.99-.27c1.06,.16,2.07,.43,3.07,.82l-1.79-.76c.65,.28,1.29,.59,1.9,.96,.3,.18,.58,.42,.88,.59-1.83-1.02-.86-.69-.3-.15,.26,.24,.5,.5,.73,.76,1.02,1.16-.71-1.06-.31-.4s.79,1.32,1.11,2.05l-.76-1.79c.4,1.02,.67,2.05,.83,3.13l-.27-1.99c.14,1.21,.12,2.4-.04,3.61l.27-1.99c-.17,1.08-.46,2.12-.86,3.14l.76-1.79c-.34,.79-.76,1.49-1.2,2.23-.67,1.13,1.23-1.3,.29-.37-.36,.35-.68,.73-1.05,1.08-.16,.15-.32,.29-.48,.43-.61,.49-.44,.37,.5-.38-.33,.07-.79,.54-1.08,.72-.86,.54-1.76,1-2.69,1.41l1.79-.76c-1.21,.5-2.44,.86-3.74,1.06l1.99-.27c-.86,.1-1.69,.12-2.55,.04l1.99,.27c-.88-.12-1.69-.33-2.51-.66l1.79,.76c-.6-.27-1.11-.65-1.69-.95,1.56,.8,1.14,.93,.51,.36-.24-.22-.47-.45-.69-.7-.48-.54-.64-1.34,.35,.49-.16-.29-.38-.55-.55-.83-.35-.58-.65-1.18-.92-1.8l.76,1.79c-.57-1.38-.95-2.81-1.15-4.29l.27,1.99c-.16-1.39-.16-2.77,0-4.16l-.27,1.99c.16-1.14,.43-2.22,.88-3.28l-.76,1.79c.18-.37,.39-.72,.58-1.08,.59-1.18-1.28,1.37-.12,.19,1.1-1.11-.98,.56-.36,.22,.39-.21,.75-.43,1.15-.61l-1.79,.76c.48-.17,.94-.29,1.44-.37,1.73-.26,3.64-2.01,4.48-3.45,.94-1.61,1.34-3.98,.76-5.78s-1.71-3.57-3.45-4.48c-1.9-1-3.67-1.08-5.78-.76h0Z"/></svg>