<svg id="Layer_28" data-name="Layer 28" xmlns="http://www.w3.org/2000/svg" viewBox="0 0 231.22 231.22"><defs><style>.cls-1{fill:#414042;}.cls-2{fill:#6d6e71;}</style></defs><g id="Layer_27" data-name="Layer 27"><path class="cls-1" d="M154.41,154.41,345.59,345.59" transform="translate(-134.39 -134.39)"/><path class="cls-2" d="M140.26,168.55l37.29,37.28,37.28,37.28,37.28,37.29,37.46,37.46,37.29,37.28,4.59,4.6a20.67,20.67,0,0,0,14.14,5.85,22.28,22.28,0,0,0,14.15-5.85c3.5-3.81,6.09-8.82,5.85-14.15a20.85,20.85,0,0,0-5.85-14.14l-37.29-37.28-37.28-37.28L247.89,219.6l-37.46-37.46-37.29-37.28-4.59-4.6a20.67,20.67,0,0,0-14.14-5.85,15,15,0,0,0-7.71,1.72,14.92,14.92,0,0,0-6.44,4.13c-3.5,3.81-6.09,8.82-5.85,14.15a20.85,20.85,0,0,0,5.85,14.14Z" transform="translate(-134.39 -134.39)"/></g><g id="Layer_27_copy" data-name="Layer 27 copy"><path class="cls-1" d="M345.59,154.41,154.41,345.59" transform="translate(-134.39 -134.39)"/><path class="cls-2" d="M331.45,140.26l-37.28,37.29-37.28,37.28L219.6,252.11l-37.46,37.46-37.28,37.29-4.6,4.59a20.67,20.67,0,0,0-5.85,14.14,22.28,22.28,0,0,0,5.85,14.15c3.81,3.5,8.82,6.09,14.15,5.85a20.85,20.85,0,0,0,14.14-5.85l37.28-37.29,37.28-37.28,37.29-37.28,37.46-37.46,37.28-37.29,4.6-4.59a20.67,20.67,0,0,0,5.85-14.14,15,15,0,0,0-1.72-7.71,14.92,14.92,0,0,0-4.13-6.44c-3.81-3.5-8.82-6.09-14.15-5.85a20.85,20.85,0,0,0-14.14,5.85Z" transform="translate(-134.39 -134.39)"/></g></svg>