<svg id="Layer_24" data-name="Layer 24" xmlns="http://www.w3.org/2000/svg" viewBox="0 0 265.7 243.83"><defs><style>.cls-1{fill:none;stroke:#231f20;stroke-miterlimit:10;stroke-width:12px;}.cls-2{fill:#231f20;}</style></defs><circle class="cls-1" cx="66.13" cy="177.7" r="60.13"/><circle class="cls-1" cx="199.57" cy="66.13" r="60.13"/><path class="cls-2" d="M193.71,353.58a220.49,220.49,0,0,0,15.88,16.33,7.83,7.83,0,0,0,5.3,2.2,7.61,7.61,0,0,0,5.3-2.2,7.5,7.5,0,0,0,2.2-5.3,7.6,7.6,0,0,0-2.2-5.3A220.63,220.63,0,0,1,204.31,343a7.5,7.5,0,0,0-12.8,5.31,8.25,8.25,0,0,0,2.2,5.3Z" transform="translate(-110.56 -148.07)"/><path class="cls-2" d="M280.09,209.92,255,214.11a7.49,7.49,0,0,0-4.48,3.45,7.49,7.49,0,0,0,2.69,10.26,8.6,8.6,0,0,0,5.78.75l25.09-4.18a7.52,7.52,0,0,0,4.48-3.45,7.51,7.51,0,0,0-2.69-10.26,8.56,8.56,0,0,0-5.78-.76Z" transform="translate(-110.56 -148.07)"/></svg>