<svg id="Layer_21" data-name="Layer 21" xmlns="http://www.w3.org/2000/svg" viewBox="0 0 351.02 248"><defs><style>.cls-1{fill:#231f20;}</style></defs><path class="cls-1" d="M182.5,285.77v25.17c0,9.65,15,9.67,15,0V285.77c0-9.65-15-9.67-15,0Z" transform="translate(-74.54 -120.35)"/><path class="cls-1" d="M299.74,189.92A286.24,286.24,0,0,1,247.23,216c-9,3.34-5.09,17.84,4,14.46a304.34,304.34,0,0,0,56.09-27.63c8.15-5.13.64-18.11-7.57-13Z" transform="translate(-74.54 -120.35)"/><path class="cls-1" d="M215.68,184.53a202.5,202.5,0,0,1,76.37-41.41c13.45-3.92,27.7-6.88,41.78-6.42,4.87.15,17.4,1,17.9,7.7.73,9.56,15.74,9.64,15,0-2.38-31.39-50.58-22.74-69.84-18.1a218.24,218.24,0,0,0-91.81,47.63c-7.29,6.35,3.35,16.92,10.6,10.6Z" transform="translate(-74.54 -120.35)"/><path class="cls-1" d="M278.7,170.49V127.6c0-9.66-15-9.67-15,0v42.89c0,9.65,15,9.67,15,0Z" transform="translate(-74.54 -120.35)"/><path class="cls-1" d="M263.7,215.68v54.45c0,9.65,15,9.67,15,0V215.68c0-9.65-15-9.67-15,0Z" transform="translate(-74.54 -120.35)"/><path class="cls-1" d="M198.16,313.48C235,270,304.53,265.05,348,301.64c7.34,6.17,18-4.39,10.61-10.61-38.16-32.09-94.13-38-138.24-14.64a111.82,111.82,0,0,0-32.85,26.48c-6.2,7.32,4.36,18,10.61,10.61Z" transform="translate(-74.54 -120.35)"/><path class="cls-1" d="M191.58,297.68a116.68,116.68,0,0,0-23.5,40.81c-3.05,9.19,11.43,13.12,14.46,4a98.32,98.32,0,0,1,19.65-34.19c6.37-7.21-4.2-17.86-10.61-10.61Z" transform="translate(-74.54 -120.35)"/><path class="cls-1" d="M189.24,289.05c9.65,0,9.67-15,0-15s-9.67,15,0,15Z" transform="translate(-74.54 -120.35)"/><path class="cls-1" d="M191.16,272.32A308.69,308.69,0,0,0,80,268.2c-4,.57-6.23,5.68-5.24,9.22C76,281.73,80,283.24,84,282.66a288.28,288.28,0,0,1,103.18,4.13c9.4,2.09,13.42-12.37,4-14.47Z" transform="translate(-74.54 -120.35)"/><path class="cls-1" d="M189.2,285.1l-1.69,1.11h-4l-1.81-2v-4c-.64,4.66-13.53,7.13-17.28,8.08A124.74,124.74,0,0,1,141,291.8c-9.6.55-9.66,15.55,0,15,15.2-.86,33.21-3,46.36-11.36,6-3.79,11.69-10.66,7.84-18-3.39-6.51-11.31-7.36-16.6-2.91-7.38,6.24,3.27,16.8,10.61,10.61Z" transform="translate(-74.54 -120.35)"/><path class="cls-1" d="M227.23,361.86c10.18-25.18,32.76-47.21,58.2-56.67,24.82-9.24,51.9-8.38,76.41,1.39,3.79,1.52,8.2-1.65,9.23-5.23,1.22-4.26-1.49-7.74-5.24-9.23-27.58-11-59.58-11.49-87.21-.3a121.14,121.14,0,0,0-65.86,66.06c-1.53,3.78,1.67,8.2,5.24,9.22,4.27,1.22,7.72-1.5,9.23-5.24Z" transform="translate(-74.54 -120.35)"/><path class="cls-1" d="M352,301.61a91.83,91.83,0,0,1,58.77,61.46c2.65,9.26,17.13,5.32,14.47-4A107.45,107.45,0,0,0,356,287.15c-9.18-3-13.12,11.45-4,14.46Z" transform="translate(-74.54 -120.35)"/><path class="cls-1" d="M325.48,286.83q20.61,8.78,40.75,18.57c8.65,4.21,16.26-8.72,7.58-12.95q-20.15-9.79-40.76-18.57c-3.75-1.6-8-1.09-10.26,2.69-1.88,3.13-1,8.68,2.69,10.26Z" transform="translate(-74.54 -120.35)"/><path class="cls-1" d="M355.46,301.89a153.1,153.1,0,0,1,30.05,19.28c7.39,6.1,18.06-4.45,10.61-10.61A169.28,169.28,0,0,0,363,288.94c-8.63-4.26-16.24,8.68-7.57,12.95Z" transform="translate(-74.54 -120.35)"/><path class="cls-1" d="M370.34,307.87c-.7-.3.28.16.43.25.6.33,1.2.65,1.78,1a12.24,12.24,0,0,1,2.1,1.48,29.6,29.6,0,0,1,2.34,2.28,10.63,10.63,0,0,1,1.76,2.39A7.66,7.66,0,0,0,389,318c3.4-2,4.88-6.83,2.69-10.26a36.52,36.52,0,0,0-17.38-14.3c-3.74-1.56-8.25,1.68-9.22,5.24-1.19,4.32,1.48,7.66,5.24,9.23Z" transform="translate(-74.54 -120.35)"/><path class="cls-1" d="M339.77,299.78c9.65,0,9.66-15,0-15s-9.67,15,0,15Z" transform="translate(-74.54 -120.35)"/><path class="cls-1" d="M295.22,210.52A422.82,422.82,0,0,0,334,183.26c11.18-8.83,25.07-18.39,30.92-31.86,1.62-3.74,1.08-8-2.69-10.26-3.15-1.89-8.65-1-10.26,2.69-5.29,12.19-18.45,20.83-28.57,28.82a390.36,390.36,0,0,1-35.75,24.92c-8.19,5.08-.66,18.06,7.57,13Z" transform="translate(-74.54 -120.35)"/></svg>