<svg id="Layer_15" data-name="Layer 15" xmlns="http://www.w3.org/2000/svg" viewBox="0 0 393.54 377.74"><defs><style>.cls-1{fill:none;stroke:#231f20;stroke-miterlimit:10;stroke-width:15px;}.cls-2{fill:#fff;}.cls-3{fill:#231f20;}</style></defs><g id="Drums_copy" data-name="Drums copy"><g id="Layer_14_copy" data-name="Layer 14 copy"><ellipse class="cls-1" cx="179.81" cy="270.02" rx="170.22" ry="100.22"/><g id="Layer_11_copy" data-name="Layer 11 copy"><path class="cls-2" d="M26.69,270.43l-2.53-1.92,11-8.47a27.09,27.09,0,0,1-12.64-11c-5.05-8.2-18-.7-12.95,7.57l9.18,15,11.78-9.09L18.26,247.75l-1.51,11.78a69.29,69.29,0,0,0,23-18.86c2.54-3.19,3.06-7.48,0-10.61-2.59-2.65-8.09-3.16-10.61,0a59.25,59.25,0,0,1-20,16.52c-4.67,2.34-4.39,8.32-1.52,11.77l12.28,14.8c5.49,6.6,16.16-1.92,11.78-9.09l-9.18-15L9.59,256.6c4.36,7.07,10.34,13,18,16.4,6,2.6,12.53-1.67,11-8.47-1-4.4-3.8-7.08-8-8.56-9.11-3.26-13,11.23-4,14.46Z"/><path class="cls-2" d="M27,234.85a4.15,4.15,0,0,1-1.36-.15c-2.21-.63-3.15,1.18-2.82,5.45l-3.78-1c5.61,2.56,10.69,7.2,15.69,10.79L42.33,237,18.07,222.6l1.52,11.78a65.7,65.7,0,0,1,49.12-15l-3.78-14A79.62,79.62,0,0,1,30,215.14l3.78,14a611.52,611.52,0,0,1,72.85-30.58l-5.78-13.7-45,26,7.57,13a379.58,379.58,0,0,1,96.13-44.16c9.23-2.73,5.32-17.17-4-14.46a473.84,473.84,0,0,0-85.5,34.35c-8.6,4.46-1,17.21,7.57,13a327.12,327.12,0,0,1,130.06-33.89c9.62-.43,9.67-15.44,0-15A345.36,345.36,0,0,0,70.05,199.57l7.57,13a454.16,454.16,0,0,1,81.92-32.84l-4-14.46a394.37,394.37,0,0,0-99.71,45.67c-8.11,5.16-.84,17.81,7.57,13l45-26.05c7.17-4.15,2.44-16.55-5.78-13.71a641,641,0,0,0-76.43,32.09c-6.67,3.32-3.47,14.27,3.79,14A96.75,96.75,0,0,0,72.5,218.31c7.11-3.85,3.06-13.26-3.79-14-21.9-2.29-43,5.53-59.73,19.43-3.79,3.15-2.32,9.5,1.52,11.78l24.25,14.36c8.47,5,15.27-7.42,7.58-12.95-7.13-5.12-22.17-19.57-29.59-7a13.29,13.29,0,0,0,.3,13.12c3,5,8.6,6.35,14,6.77,9.63.75,9.58-14.26,0-15Z"/><path class="cls-2" d="M338,270.48a59.63,59.63,0,0,1,18.46-13.35l-11-8.47c-.84,4.61-2.95,9.24-7.76,10.71l9.49,7.23A116.16,116.16,0,0,1,352.5,239c2.94-9.22-11.54-13.17-14.46-4a133.37,133.37,0,0,0-5.87,31.56c-.32,4.82,5.06,8.58,9.5,7.23,9.67-2.94,16.44-11.34,18.23-21.19,1.22-6.68-4.91-11.31-11-8.47a71.27,71.27,0,0,0-21.5,15.7c-6.64,7,3.95,17.62,10.61,10.61Z"/><path class="cls-2" d="M346.72,240.3l-39-44.37c-2.69-3.07-7.84-2.71-10.6,0-3.17,3.09-2.51,7.45,0,10.6l32.37,40.63,9.09-11.78A280.05,280.05,0,0,1,310.89,211q-3.22-3.24-6.37-6.57c-.72-.76-3-4.65-3.73-5-.08-.23-.16-.47-.25-.7l-3,2.78c0,.15,3.43,1.2,3.75,1.34a60.37,60.37,0,0,1,6.9,3.5,64.68,64.68,0,0,1,12.38,9.32c1.64,1.57,3.65,4.91,5.59,5.93q1.21,2.61,3.36-.66,4.11-1.49,2.33-1.73a19.35,19.35,0,0,0-2.63-1.51,137.54,137.54,0,0,1-27.44-23.33L291.17,205l25.63,21.37c5.94,5,13.79.22,12.54-7.29l-1.62-9.73c-1.58-9.5-16-5.47-14.46,4l1.61,9.72,12.54-7.29-25.63-21.38c-7.34-6.11-17.27,3.41-10.61,10.61,9.43,10.19,20.85,21.22,33.45,27.38,5.73,2.8,13.05,2.37,16.46-3.74,4.16-7.45-1.63-14.81-6.49-20.08-8.67-9.4-21-18.75-33.71-21.63-6.65-1.51-13.41,1.79-15,8.72C284.38,202,288,208.4,292,213.06c11.46,13.18,25.17,24.7,39,35.27,3,2.27,7.63.72,9.67-1.93,2.44-3.16,1.78-6.87-.59-9.84l-32.37-40.63-10.6,10.6,38.95,44.38c6.38,7.27,17-3.38,10.61-10.61Z"/><path class="cls-2" d="M322.33,224.38a541.13,541.13,0,0,1-48.64-48.92L270.38,188c2.63-1.08,5.54,2.36,7.52,4l9.9,8.29,19.8,16.59,9.09-11.77-88.9-44.27-3.79,14c14.57-1.24,27.56,7.64,40.48,13.06a174.07,174.07,0,0,0,43.31,11.9l2-14.73a678.5,678.5,0,0,1-133.08-20c-8-2-13.46,9.58-5.77,13.71,23.72,12.75,50.4,19,77.34,17.13,3-.22,6.68-2.16,7.23-5.51,1.62-9.92-6.52-15-15.52-15.18-7.7-.16-13.47,3.56-18,9.47s-8.72,10.68-15.29,14.28a44.55,44.55,0,0,1-12.46,4.53,37.38,37.38,0,0,1-6.75.73c-1,0-2.17-.13-3.21,0-1.86.16-.69-.56-.32.23l1,3.79c-.65-5.13,2.22-11.55,3.93-16.35a106.06,106.06,0,0,1,7.53-16.44,113.5,113.5,0,0,1,22.12-27.93l-12.8-5.3a145.78,145.78,0,0,1-25.31,97.23c-17.79,25.43-44.31,44.51-73.81,53.92l9.22,9.23c6.48-15.62,15.67-30,25.06-44,10.37-15.45,20.92-30.79,31.39-46.18L188,189.32c4.59-6.75,8.89-13.95,14.36-20a44.86,44.86,0,0,1,4-4c.69-.61,1.7-1.19,2.3-1.84,1.09-1.16,2.09-.19.14-1.5-2.31-1.55-.63,1.44-.33,2.81a51.59,51.59,0,0,1,1,6.66,75.6,75.6,0,0,1-2.16,23.83c-4.59,18.69-14.09,35.67-23.61,52.23-4.82,8.38,8.13,15.94,12.95,7.57,10-17.38,19.94-35.39,24.91-55a89.78,89.78,0,0,0,2.91-28.67c-.63-8.14-1.58-20.43-10.78-23.57-8.84-3-17.81,6-23,12.1-6.43,7.57-11.73,16.13-17.31,24.33l-37.07,54.49c-13.07,19.2-26,38.36-34.93,59.91-2.21,5.33,4.22,10.83,9.23,9.23,53.21-17,94.71-61.3,106.93-116a159.45,159.45,0,0,0,3.2-49.62c-.6-6.42-7.78-10-12.8-5.31a125.71,125.71,0,0,0-27.81,37.37,127.21,127.21,0,0,0-8.56,22.82c-1.93,7.31-3.41,16.1,4.55,20.34,6.32,3.37,15.42,1.94,22.09.56a57.43,57.43,0,0,0,22.12-9.93c5.44-4,9.23-8.82,13.33-14.1,1-1.3,2.08-2.85,3.58-3.44a7.41,7.41,0,0,1,2.73-.27c3.05.06,1.6,1,1.23-.9v-4l-.18,1.07,7.24-5.5a127.55,127.55,0,0,1-69.77-15.08l-5.78,13.71a699.72,699.72,0,0,0,137.06,20.48c8.28.4,10.45-13.56,2-14.74a165,165,0,0,1-44.88-12.61c-13.66-6.13-27.35-14.2-42.89-12.88-6.76.57-11,10.37-3.79,14l88.9,44.26c7.15,3.55,16-6,9.09-11.78l-25.88-21.7c-7-5.87-15.86-15.22-25.93-11.07-5.31,2.19-7.32,8-3.31,12.53A541.24,541.24,0,0,0,311.73,235c7.21,6.37,17.86-4.2,10.6-10.61Z"/><path class="cls-2" d="M348.11,232.13c-5.23-3.95-6.07-13.33-3.4-18.85,4.19-8.65-8.74-16.27-12.95-7.57-6.57,13.58-3.41,30.17,8.78,39.37,3.26,2.46,8.35.49,10.26-2.69,2.29-3.82.53-7.84-2.69-10.26Z"/><path class="cls-2" d="M30.13,221a386.41,386.41,0,0,1,80.69-37.53l-4-14.46-65,22.73c-9,3.16-5.43,17.08,4,14.47Q113.27,187.5,181.51,172l-4-14.47L101,184.34l5.78,13.71c31.73-20.41,68.38-31.58,106.2-30.72l-2-14.74q-57,10.95-114.39,20l8.47,11c7.45-9.64,19.27-14.15,30.73-16.9a234.17,234.17,0,0,1,43.39-5.8,268.92,268.92,0,0,1,90.3,11.32V157.79A311.37,311.37,0,0,1,165.21,170l2,14.73A1090.2,1090.2,0,0,1,289.94,168.1c9.56-.74,9.64-15.75,0-15a1123.64,1123.64,0,0,0-126.72,17.17c-8.66,1.68-6.08,14.3,2,14.73a324.44,324.44,0,0,0,108.25-12.74c7.16-2.1,7.09-12.33,0-14.47a281.4,281.4,0,0,0-99.87-11.53c-28.61,1.94-62.7,5.48-81.49,29.81-4.51,5.84,2.92,11.9,8.47,11q57.35-9.09,114.39-20c8.52-1.64,6.21-14.55-2-14.73-40.3-.91-80,11-113.78,32.77-6.81,4.38-2.61,16.65,5.78,13.71L181.51,172c9.06-3.17,5.51-16.62-4-14.47Q109.29,173,41.85,191.75l4,14.47,65-22.74c9-3.16,5.26-17.5-4-14.46a403.47,403.47,0,0,0-84.27,39c-8.22,5-.69,18,7.57,12.95Z"/><path class="cls-2" d="M128.32,126.8a124.91,124.91,0,0,1,30-2c4.29.23,8.94.33,13.07,1.65a9.66,9.66,0,0,1,3.31,1.55c.55.45.07-.26.1-.69-.07,1-1.2,2.07-1.74,2.77-10.83,14.18-25.42,25.74-40.87,34.48l10.27,10.26A98.52,98.52,0,0,1,177,141.2c3.46-2,7.3-4.38,11.17-5.46,2.49-.7,3.07,0,4.53,2.15,4.06,5.9,6,12.47,11.45,17.47,10.85,10,26.67,12,40.82,11.75a271.65,271.65,0,0,0,58-8c9.37-2.28,5.4-16.75-4-14.47a265.68,265.68,0,0,1-47.41,7.18c-11.06.64-23.72,1.05-33.61-4.78s-10.2-19.34-20.42-24.79c-11.7-6.24-27.5,5-36.8,11.61a116,116,0,0,0-31.21,33.4c-4,6.51,3.88,13.87,10.27,10.26a158.55,158.55,0,0,0,29.7-21.66,145.1,145.1,0,0,0,12.07-12.6c4-4.7,8.26-9.54,8.15-16.08-.2-12.35-14.1-15.64-23.82-16.74a138.42,138.42,0,0,0-41.57,1.9c-9.47,1.8-5.46,16.26,4,14.46Z"/><path class="cls-2" d="M295.59,96.05a62.57,62.57,0,0,1,28.33-20.56c9.06-3.16,5.16-17.66-4-14.46a76.45,76.45,0,0,0-35,24.42c-2.54,3.19-3.06,7.47,0,10.6,2.59,2.65,8.09,3.17,10.61,0Z"/><path class="cls-2" d="M311,107a23.38,23.38,0,0,1,2.71-19.69l-14-3.78a336.64,336.64,0,0,0,.41,39.29c.66,9.58,15.66,9.65,15,0a336.64,336.64,0,0,1-.41-39.29c.37-7.72-10.22-9.82-14-3.79A38.35,38.35,0,0,0,296.51,111c2.72,9.24,17.2,5.31,14.46-4Z"/><path class="cls-2" d="M317.83,75.5a75.46,75.46,0,0,0-32.67,43.88c-2,7.17,7.26,12.68,12.53,7.3C313.06,111,324.92,92.4,336.55,73.86c5.21-8.31-7.43-15.28-13-7.57C311.9,82.62,300.33,99.1,289.51,116c-9.1,14.26-16.26,33.41-5.15,48.75,2.39,3.3,6.49,4.83,10.26,2.69,3.26-1.86,5.06-7,2.69-10.26-9.5-13.12,1.75-28.53,9.13-39.68q14.65-22.11,30.11-43.66l-13-7.57c-11,17.48-22,35-36.51,49.78l12.54,7.3A59.82,59.82,0,0,1,325.4,88.45c8.14-5.14.63-18.12-7.57-13Z"/><path class="cls-2" d="M332.8,62.79l-65.64,58.38,10.61,10.6c18.83-21.92,45-34.81,70.48-47.29L338,74.22a855.69,855.69,0,0,1-55.53,65.48l11.77,9.09,20-31.14,9.71-15.14,4.86-7.57,2.16-3.37c.76-1.17,2.22-2.35.68-2.31l-7.5-7.5c.07,19.47-4.89,38.21-9.9,56.89-2.53,9.42,11.3,13,14.46,4q13.69-39.1,27.38-78.23H341.6a18.74,18.74,0,0,1-1.21,6,39.3,39.3,0,0,1-5.62,9.15c-5.62,7.15-12.63,13.29-19.64,19-13,10.69-27.32,19.61-40.91,29.53l9.09,11.78c22.6-24.11,52.09-41.24,70.1-69.6,4.07-6.41-3.94-14-10.26-10.27a637.38,637.38,0,0,0-62.66,42.51c-3.23,2.49-4.88,6.43-2.69,10.27a7.59,7.59,0,0,0,10.26,2.69L390,53.55c8.24-5,.71-18-7.57-13L280.49,102.52l7.57,13A633.89,633.89,0,0,1,350.72,73L340.46,62.7c-17.19,27.07-46.15,43.52-67.76,66.57-5.54,5.91,1.92,17,9.09,11.78,15.65-11.42,32-21.72,46.84-34.28C342,95.41,358.76,79.7,356.06,60.42c-1.12-8-12.3-6.19-14.46,0q-13.69,39.1-27.38,78.23l14.46,4c5.36-19.92,10.52-40.09,10.44-60.87a7.59,7.59,0,0,0-7.5-7.5c-6.69.15-10.25,4.54-13.63,9.74-4.18,6.42-8.28,12.9-12.42,19.35l-24.29,37.87c-4.58,7.15,6,15.31,11.78,9.08a891.66,891.66,0,0,0,57.88-68.51c5-6.54-4.3-13.18-10.26-10.26-26.62,13-53.89,26.77-73.52,49.64-6.28,7.3,3.34,17.07,10.61,10.6L343.41,73.4c7.23-6.43-3.41-17-10.61-10.61Z"/><path class="cls-2" d="M306,103.46a500.84,500.84,0,0,1,78.22-59.58l-7.57-13q-62.79,44.89-122.19,94.31l10.61,10.61c32.24-28,64.89-56,103.41-75,8.65-4.28,1.06-17.22-7.57-12.95-39.61,19.58-73.29,48.64-106.45,77.39-7.35,6.38,3.27,16.72,10.61,10.61Q323,87.7,384.23,43.88c7.7-5.51.79-18.12-7.57-13A520.51,520.51,0,0,0,295.4,92.85c-7.08,6.59,3.54,17.18,10.61,10.61Z"/></g><path class="cls-3" d="M2.09,156V268.29c0,9.65,15,9.67,15,0V156c0-9.65-15-9.67-15,0Z"/><path class="cls-3" d="M342.54,150.79V270c0,9.65,15,9.67,15,0V150.79c0-9.65-15-9.66-15,0Z"/><ellipse class="cls-1" cx="179.81" cy="152.52" rx="170.22" ry="100.22"/></g><g id="Layer_16_copy_2" data-name="Layer 16 copy 2"><path class="cls-3" d="M89.53,349.46v7.19c0,9.65,15,9.67,15,0V288.18c0-9.65-15-9.67-15,0v68.47c0,9.65,15,9.67,15,0v-7.19c0-9.66-15-9.67-15,0Z"/></g><g id="Layer_16_copy_2-2" data-name="Layer 16 copy 2"><path class="cls-3" d="M257.57,349.46v7.19c0,9.65,15,9.67,15,0V288.18c0-9.65-15-9.67-15,0v68.47c0,9.65,15,9.67,15,0v-7.19c0-9.66-15-9.67-15,0Z"/></g><g id="Layer_13_copy" data-name="Layer 13 copy"><path class="cls-2" d="M271.55,128.28c13-20.32,32.32-35.35,51-50.19l65.74-52.28L377.67,15.2q-48,41.75-99.89,78.58c-7.2,5.1-2.62,14.9,5.78,13.7a14.24,14.24,0,0,0,8.81-5c6.22-7.32-4.34-18-10.61-10.61-1.12,1.32-.47.86-2.19,1.1l5.78,13.71q53.43-37.87,102.92-80.92c3.08-2.68,2.69-7.85,0-10.61-3.1-3.16-7.45-2.5-10.6,0Q344,42,310.36,68.73c-19.25,15.31-38.35,31-51.76,52-5.23,8.15,7.75,15.68,12.95,7.57Z"/><path class="cls-2" d="M274.55,120.85q38.81-32.5,78.52-63.91c3.2-2.53,2.59-7.95,0-10.61-3.11-3.17-7.45-2.5-10.61,0q-39.72,31.4-78.52,63.91c-7.41,6.21,3.25,16.77,10.61,10.61Z"/></g><g id="Layer_12_copy" data-name="Layer 12 copy"><path class="cls-2" d="M378.39,7.58,207.67,137.42"/><path class="cls-3" d="M374.61,1.1,203.89,130.94c-3.25,2.47-4.87,6.44-2.69,10.26,1.81,3.2,7,5.14,10.26,2.69L382.18,14.06c3.25-2.47,4.87-6.44,2.69-10.27-1.82-3.19-7-5.13-10.26-2.69Z"/></g></g><g id="Layer_24" data-name="Layer 24"><path class="cls-3" d="M273,321.88V246.82c0-9.65-15-9.67-15,0v75.06c0,9.65,15,9.67,15,0Z"/><path class="cls-3" d="M325.12,329.54V222.31c0-9.65-15-9.67-15,0V329.54c0,9.65,15,9.67,15,0Z"/><path class="cls-3" d="M98.56,349.3c9.65,0,9.66-15,0-15s-9.67,15,0,15Z"/><path class="cls-3" d="M104.53,315.75V246.82c0-9.65-15-9.67-15,0v68.93c0,9.66,15,9.67,15,0Z"/><path class="cls-3" d="M49.38,321.88V216.18c0-9.65-15-9.67-15,0v105.7c0,9.65,15,9.67,15,0Z"/><path class="cls-3" d="M323.67,222.88l1.53-4.59a7.5,7.5,0,1,0-14.46-4l-1.54,4.6a7.5,7.5,0,0,0,14.47,4Z"/><path class="cls-3" d="M190.31,367.84V254.48c0-9.65-15-9.67-15,0V367.84c0,9.65,15,9.67,15,0Z"/><path class="cls-3" d="M207.33,133c-.21.68-.42,1.35-.65,2-.07.2-.68,1.72-.33.95,0-.05-.95,2-.59,1.31l-.56.61.42-.25c-.71.38-.84.48-.38.31s.31-.12-.45.12a3.88,3.88,0,0,1,1.22.07,3,3,0,0,1,1.41,1.26c.21.37.24,2,.33,1.23.14-1.08-.59,1.73,0-.17.35-1.11-.37,0,.13-.26q.34-.54,0,0c-.33.42-.24.35.26-.19l-.37.33c.75-.38.92-.49.49-.34a13.59,13.59,0,0,0,1.33-.4c.18,0,2-.36,1.36-.28.5-.06,2.72-.13,3.84-.16a7.5,7.5,0,0,0,0-15c-6.07.14-12.28.87-17,5a14.8,14.8,0,0,0-3.91,16.38c2.67,6.32,10,8.88,16.31,6.51,6.69-2.52,9.65-8.64,11.65-15.07a7.5,7.5,0,1,0-14.46-4Z"/><path class="cls-3" d="M286.51,337.11c-4.46-7-3.18-15.46-2.15-23.27a282.37,282.37,0,0,0,2.58-29q.22-7.86-.07-15.73c-.08-2-.18-3.93-.3-5.9-.14-2.13-1.09-5.52-.56-7.58-1,1.13-1,1.4-.19.79l3.33-2.06,6.65-4.11L309.1,242c7.31-4.53,2.52-15.57-5.78-13.71-6.5,1.46-11.68,5.32-16.65,9.57-4.19,3.6-9.58,9.28-15.63,7.52l-4,14.46c15.53,3.59,30.89-2.5,40.18-15.32H294.29c2.37,5.34,2.14,11.5,1.87,17.2-.33,6.69-.9,13.39-1.48,20.06Q292.85,302.92,290,324c-.56,4,1,8,5.23,9.23,3.58,1,8.57-1.25,9.23-5.24A374.87,374.87,0,0,0,309,247.17c-.51-9.61-14.62-9.68-15,0-1,24.06-3.08,48-9,71.43l14.73,2q-1.43-33.58.11-67.18h-15l-1.37,43.45c-.39,12.17,1,26.5-4.52,37.73-2.84,5.74,1.85,12.76,8.47,11,13.73-3.63,24.06-14.42,28.92-27.55,5.73-15.48,2.41-32.31-3.86-47-3.49-8.2-15.31-2-13.7,5.78a252.38,252.38,0,0,1,4.93,40.91h15a682,682,0,0,1-.47-84.22c.32-5.8-6.58-9.2-11.29-6.48L289.61,237.1c-2.49,1.44-11.45,8.3-13.81,6.71-5.73-3.85-12.38,2.5-11,8.47,3.53,15.43,4.23,31.18,3.86,47-.19,7.62-.61,15.23-1.08,22.83-.35,5.66.35,13.44-4.2,17.62-5.89,5.41.43,13.9,7.3,12.53,8.61-1.71,10.68-10.84,12.81-18q4.23-14.2,8.45-28.39c2.76-9.27-11.72-13.24-14.47-4l-6.19,20.82-2.82,9.46c-.49,1.66-1.05,3.32-1.51,5-.24.86-.87.78-.26.66l7.3,12.53c6-5.53,7.51-13.27,8.13-21.08.7-8.7,1.14-17.44,1.43-26.16.61-18.36-.17-36.78-4.28-54.74l-11,8.47c7.4,5,15.49,1.07,22.32-2.88L314.61,240l-11.28-6.47a682,682,0,0,0,.47,84.22c.64,9.54,15.38,9.72,15,0a276.64,276.64,0,0,0-5.47-44.89l-13.71,5.78c7.73,18.14,7,46.44-16.1,52.53l8.47,11c6.38-12.91,6-27.28,6.44-41.35l1.5-47.4c.3-9.67-14.56-9.61-15,0q-1.55,33.59-.11,67.18c.35,8.2,12.6,10.49,14.73,2,6.19-24.66,8.49-50.06,9.49-75.41H294A357.66,357.66,0,0,1,290,324l14.46,4c2.22-16,4.08-32.07,5.43-48.18,1.2-14.38,3.42-29.26-2.61-42.86-2.51-5.67-10-4-12.95,0-5.19,7.16-14.75,10.39-23.25,8.43-9.39-2.17-13.28,11.74-4,14.46,8.16,2.39,16.13-.36,22.79-5.24,5.63-4.12,10.4-10.26,17.45-11.84L301.53,229l-15,9.26c-4.16,2.58-9.51,4.94-12.67,8.78-3.86,4.69-2.68,10.51-2.32,16.11q.58,9.33.44,18.68c-.19,11.43-1.52,22.65-2.91,34-1.22,9.92-1.1,20.15,4.46,28.85,5.18,8.11,18.17.59,12.95-7.57Z"/><path class="cls-3" d="M81.71,323.25c9.65,0,9.66-15,0-15s-9.67,15,0,15Z"/><path class="cls-3" d="M73.34,327.45a36.89,36.89,0,0,1,5.83,15.88l14.47-4a303.82,303.82,0,0,1-2.77-59.52l-14.73,2a249.39,249.39,0,0,1,8.24,66.93l14.73-2c-4.79-22.89-1.21-46.37-2.24-69.51-.41-9.49-.56-21-8.2-27.81-3.9-3.5-8.9-4.76-13.51-7a38.15,38.15,0,0,1-11.58-8.74c-4.44-4.79-12.89-1.06-12.8,5.3l1,76.32h15a684.78,684.78,0,0,1,1.17-80H53a255.76,255.76,0,0,1-2.83,38.5H64.61q-3.75-15.56-7.06-31.2c-.22-1.06-.26-2.87-.8-3.8-.83-1.43.92-2.56-1.83,0s-1.34,1.07.22,1.54c.89.27,1.88.34,2.79.59a20.52,20.52,0,0,1,10.12,6.79l7.3-12.54a23,23,0,0,1-10.85-4.59l-9.09,11.78a116.53,116.53,0,0,1,31.06,20.88l5.3-12.81a49.28,49.28,0,0,1-20.93-5.72,7.6,7.6,0,0,0-11,4.48,298.54,298.54,0,0,0-10.75,60.11l14.74-2a136.24,136.24,0,0,1-3.6-36.28h-15q-.59,21.51-3.15,42.87l14.74-2A109.55,109.55,0,0,1,55.54,287L40.8,289a76.78,76.78,0,0,1,2.69,27h15a88.06,88.06,0,0,0-2.81-28c-2.18-8.29-14.53-6.4-14.73,2a175.89,175.89,0,0,0,5.86,49.34c1.51,5.7,8.43,7,12.53,3.31a16.74,16.74,0,0,0,5.6-13.27l-11.28,6.48,10,5.94,7.57-12.95c-1.85-.85-3.22-1.69-3.89-3.68l-9.22,9.23a44.55,44.55,0,0,1,22.24,10c7.25,6.22,17.75-4,10.61-10.61a53.07,53.07,0,0,1-13.62-19.68l-12.54,7.29a37,37,0,0,1,8.46,12.93c3.35,8.85,17.3,5.42,14.46-4a238,238,0,0,1-10.15-70.54h-15l5.3,56.78,14.73-2a110.8,110.8,0,0,1-4.11-41.25l-14,3.78a47.13,47.13,0,0,1,3.59,15.32c.64,9.55,14.84,9.76,15,0A115.12,115.12,0,0,1,89,258.14l-12.54,3.31a14.38,14.38,0,0,1,3.43,9.86c0,9.65,15,9.67,15,0a30.31,30.31,0,0,0-7.82-20.46c-3.9-4.52-10.9-1.68-12.54,3.3a129.49,129.49,0,0,0-6.38,38.3h15a68.65,68.65,0,0,0-5.64-22.89c-3.23-7.54-13.42-2.72-14,3.79a122.92,122.92,0,0,0,4.65,45.24c2.29,7.77,15.54,6.73,14.73-2l-5.3-56.78c-.88-9.44-14.93-9.83-15,0A252.15,252.15,0,0,0,73.3,334.34l14.46-4a54.74,54.74,0,0,0-12.31-19.54c-5-5-15.33.07-12.54,7.29a69.94,69.94,0,0,0,17.48,26.31L91,333.8a58.85,58.85,0,0,0-28.87-13.87c-5.2-.86-11.22,3.29-9.22,9.23,1.87,5.56,5.36,10.15,10.78,12.64,8.61,4,16-7.93,7.57-12.95l-10-5.94c-4.78-2.84-11.48.76-11.29,6.47.06,1.64.18,1.43-1.2,2.66l12.53,3.31A160.9,160.9,0,0,1,56,290l-14.73,2a74.63,74.63,0,0,1,2.27,24c-.6,9.66,14.3,9.56,15,0a89.68,89.68,0,0,0-3.22-31c-2.37-8.35-14.26-6.34-14.73,2a126.74,126.74,0,0,0,1.79,28.91c.63,3.67,4.87,5.83,8.23,5.38,4-.54,6-3.6,6.5-7.37q2.56-21.36,3.15-42.87c.27-9.66-14.68-9.64-15,0a152.49,152.49,0,0,0,4.13,40.27c2.06,8.63,14.12,6.08,14.73-2a278.72,278.72,0,0,1,10.21-56.12l-11,4.48a66.85,66.85,0,0,0,28.5,7.77c6.46.31,9.94-8.44,5.3-12.8A129.21,129.21,0,0,0,63,229.45c-7.08-3.29-16.19,6-9.08,11.78a37.79,37.79,0,0,0,17.46,8.46c7.42,1.33,12.37-6.69,7.3-12.54-6.9-8-28.5-19.57-35.78-5.92-3.43,6.43.2,15.45,1.63,22q2.67,12.31,5.63,24.57c1.64,6.8,13.32,7.48,14.47,0A282.49,282.49,0,0,0,68,235.32c0-9.75-14.31-9.53-15,0a684.78,684.78,0,0,0-1.17,80c.42,9.6,15.13,9.71,15,0l-1-76.32L53,244.32a53.57,53.57,0,0,0,10.5,8.79c4.07,2.58,8.57,3.91,12.84,6C80,261,80.69,264,81.19,267.84a143.47,143.47,0,0,1,.87,17c.2,22.09-2,44.12,2.59,65.94,1.77,8.44,14.63,6.3,14.73-2a265.54,265.54,0,0,0-8.78-70.92c-2.22-8.4-14.33-6.3-14.73,2a324.44,324.44,0,0,0,3.3,63.51c.59,4,5.67,6.23,9.23,5.23,4.33-1.21,5.78-5.17,5.24-9.22a47,47,0,0,0-7.35-19.47c-5.27-8-18.26-.53-13,7.58Z"/><path class="cls-3" d="M271.62,250.12c5.19,6.66,17.07,4.89,20.75-2.38,1.77-3.5,1-8.3-2.69-10.26-3.42-1.81-8.37-1-10.26,2.69-.1.18-.8,1.37-.06.23.44-.54.45-.61.05-.2l.88-.72c-1,.7,1.36-.48.53-.2-1,.34-.37-.39.62,0a2.68,2.68,0,0,0-.8,0c.9-.32,1.67.32.64,0-.86-.27,1.62.82.56.16.68.42,1.15,1.06.39.08-2.42-3.11-8.1-2.73-10.61,0-3,3.3-2.58,7.29,0,10.61Z"/></g></svg>