<?xml version="1.0" encoding="UTF-8"?><svg id="Layer_13_copy" xmlns="http://www.w3.org/2000/svg" viewBox="0 0 282.64 277.97"><defs><style>.cls-1{fill:#231f20;}</style></defs><path class="cls-1" d="M55.96,130.6c-.22-20.63-.32-41.26-.31-61.89,0-5.88,.02-11.77,.04-17.65,.02-3.92-3.46-7.68-7.5-7.5s-7.48,3.3-7.5,7.5c-.08,20.63-.05,41.26,.1,61.89,.04,5.88,.1,11.76,.16,17.65,.04,3.92,3.42,7.68,7.5,7.5s7.55-3.3,7.5-7.5h0Z"/><path class="cls-1" d="M55.96,269.58c-.32-24.43-.39-48.85-.27-73.28,.03-6.8,.09-13.6,.15-20.4,.04-3.92-3.48-7.68-7.5-7.5s-7.46,3.29-7.5,7.5c-.23,24.35-.28,48.69-.1,73.04,.05,6.88,.12,13.76,.21,20.64,.05,3.92,3.41,7.68,7.5,7.5s7.56-3.3,7.5-7.5h0Z"/><path class="cls-1" d="M148.48,62.16v-11.17c0-1.92-.84-3.94-2.2-5.3s-3.44-2.28-5.3-2.2-3.95,.72-5.3,2.2-2.2,3.27-2.2,5.3v11.17c0,1.92,.84,3.94,2.2,5.3s3.44,2.28,5.3,2.2,3.95-.72,5.3-2.2,2.2-3.27,2.2-5.3h0Z"/><path class="cls-1" d="M148.48,269.58c.03-17.21,.04-34.41,.05-51.62,0-17.12,0-34.24,0-51.36,0-9.73-.01-19.46-.02-29.19,0-3.92-3.45-7.68-7.5-7.5s-7.5,3.3-7.5,7.5c.02,17.21,.03,34.42,.03,51.63,0,17.12,0,34.24-.02,51.36,0,9.73-.02,19.45-.04,29.18,0,3.92,3.45,7.68,7.5,7.5s7.49-3.3,7.5-7.5h0Z"/><path class="cls-1" d="M237.52,161.03c.03-28.48,.03-56.97,.03-85.45,0-8.08,0-16.16,0-24.24,0-3.92-3.45-7.68-7.5-7.5s-7.5,3.3-7.5,7.5c.01,28.59,.01,57.19,0,85.78,0,7.97-.01,15.94-.02,23.91,0,3.92,3.45,7.68,7.5,7.5s7.5-3.3,7.5-7.5h0Z"/><path class="cls-1" d="M237.52,268.59v-57.27c0-3.92-3.45-7.68-7.5-7.5s-7.5,3.3-7.5,7.5v57.27c0,3.92,3.45,7.68,7.5,7.5s7.5-3.3,7.5-7.5h0Z"/><path class="cls-1" d="M23.04,135.98c-5.64,8.35-5.64,18.9-1.57,27.85,3.7,8.15,11.78,14.82,20.67,16.35,5.33,.91,10.86,.83,16.04-.85,5.73-1.86,10.47-5.18,14.06-10.02s5.18-10.84,5.5-16.67-1.02-11.76-3.87-16.71c-6.26-10.84-19.45-15.34-31.31-12.44-3.81,.93-6.46,5.45-5.24,9.23s5.14,6.24,9.23,5.24c.8-.19,1.6-.35,2.41-.47l-1.99,.27c1.94-.25,3.89-.26,5.83-.02l-1.99-.27c1.9,.27,3.74,.76,5.51,1.5l-1.79-.76c1.02,.45,2.01,.96,2.95,1.56,.28,.18,.55,.37,.83,.56,.81,.56-.66-.5-.72-.57,.4,.44,.95,.8,1.38,1.22,.4,.39,.79,.8,1.15,1.23,.39,.45,.75,1.22-.43-.59,.15,.24,.34,.46,.5,.7,.69,1.02,1.27,2.1,1.76,3.22l-.76-1.79c.81,1.96,1.34,3.99,1.64,6.09l-.27-1.99c.28,2.26,.28,4.52,0,6.78l.27-1.99c-.32,2.25-.91,4.43-1.79,6.52l.76-1.79c-.54,1.21-1.15,2.39-1.88,3.5-.13,.2-.27,.39-.41,.59-.76,1.1,.95-1.11,.41-.54-.4,.43-.78,.88-1.2,1.29-.38,.37-.79,.69-1.18,1.05,1.8-1.64,.43-.34-.19,.06-.99,.63-2.03,1.17-3.11,1.63l1.79-.76c-1.98,.82-4.04,1.36-6.16,1.66l1.99-.27c-2.35,.3-4.71,.29-7.05-.02l1.99,.27c-1.79-.26-3.51-.73-5.18-1.42l1.79,.76c-1.32-.56-2.58-1.24-3.76-2.05-.25-.17-.49-.36-.74-.53,2.12,1.42,.83,.65,.33,.22s-.98-.88-1.43-1.35-.88-.97-1.31-1.46c-.79-.92,1.28,1.75,.25,.32-.18-.25-.35-.49-.51-.75-.77-1.18-1.43-2.42-1.99-3.71l.76,1.79c-.77-1.86-1.3-3.78-1.58-5.77l.27,1.99c-.23-1.8-.23-3.6-.01-5.4l-.27,1.99c.24-1.73,.69-3.41,1.35-5.03l-.76,1.79c.55-1.29,1.21-2.5,2-3.66,2.2-3.26,.73-8.45-2.69-10.26-3.79-2-7.91-.79-10.26,2.69h0Z"/><path class="cls-1" d="M34.42,145.4l.13-.31-.76,1.79c.71-1.65,1.62-3.19,2.71-4.62l-1.17,1.52c1.19-1.5,2.54-2.83,4.05-4l-1.52,1.17c1.62-1.22,3.37-2.23,5.23-3.03l-1.79,.76c1.88-.77,3.82-1.29,5.82-1.56l-1.99,.27c1.79-.21,3.57-.21,5.35,.02l-1.99-.27c.22,.03,.44,.06,.67,.1,2.05,.34,3.92,.33,5.78-.76,1.56-.91,3.04-2.69,3.45-4.48,.44-1.92,.34-4.07-.76-5.78-.99-1.54-2.59-3.14-4.48-3.45-3.85-.63-7.31-.64-11.17,.06-3.09,.56-6.14,1.79-8.88,3.32s-5.23,3.47-7.3,5.74c-2.63,2.89-4.38,5.94-5.85,9.52-.69,1.68-.11,4.29,.76,5.78s2.69,3.04,4.48,3.45c1.92,.44,4.07,.34,5.78-.76s2.66-2.57,3.45-4.48h0Z"/><path class="cls-1" d="M115.48,95.71c-5.64,8.35-5.64,18.9-1.57,27.85,3.7,8.15,11.78,14.82,20.67,16.35,5.33,.91,10.86,.83,16.04-.85,5.73-1.86,10.47-5.18,14.06-10.02s5.18-10.84,5.5-16.67-1.02-11.76-3.87-16.71c-6.26-10.84-19.45-15.34-31.31-12.44-3.81,.93-6.46,5.45-5.24,9.23s5.14,6.24,9.23,5.24c.8-.19,1.6-.35,2.41-.47l-1.99,.27c1.94-.25,3.89-.26,5.83-.02l-1.99-.27c1.9,.27,3.74,.76,5.51,1.5l-1.79-.76c1.02,.45,2.01,.96,2.95,1.56,.28,.18,.55,.37,.83,.56,.81,.56-.66-.5-.72-.57,.4,.44,.95,.8,1.38,1.22,.4,.39,.79,.8,1.15,1.23,.39,.45,.75,1.22-.43-.59,.15,.24,.34,.46,.5,.7,.69,1.02,1.27,2.1,1.76,3.22l-.76-1.79c.81,1.96,1.34,3.99,1.64,6.09l-.27-1.99c.28,2.26,.28,4.52,0,6.78l.27-1.99c-.32,2.25-.91,4.43-1.79,6.52l.76-1.79c-.54,1.21-1.15,2.39-1.88,3.5-.13,.2-.27,.39-.41,.59-.76,1.1,.95-1.11,.41-.54-.4,.43-.78,.88-1.2,1.29-.38,.37-.79,.69-1.18,1.05,1.8-1.64,.43-.34-.19,.06-.99,.63-2.03,1.17-3.11,1.63l1.79-.76c-1.98,.82-4.04,1.36-6.16,1.66l1.99-.27c-2.35,.3-4.71,.29-7.05-.02l1.99,.27c-1.79-.26-3.51-.73-5.18-1.42l1.79,.76c-1.32-.56-2.58-1.24-3.76-2.05-.25-.17-.49-.36-.74-.53,2.12,1.42,.83,.65,.33,.22s-.98-.88-1.43-1.35-.88-.97-1.31-1.46c-.79-.92,1.28,1.75,.25,.32-.18-.25-.35-.49-.51-.75-.77-1.18-1.43-2.42-1.99-3.71l.76,1.79c-.77-1.86-1.3-3.78-1.58-5.77l.27,1.99c-.23-1.8-.23-3.6-.01-5.4l-.27,1.99c.24-1.73,.69-3.41,1.35-5.03l-.76,1.79c.55-1.29,1.21-2.5,2-3.66,2.2-3.26,.73-8.45-2.69-10.26-3.79-2-7.91-.79-10.26,2.69h0Z"/><path class="cls-1" d="M126.87,105.13l.13-.31-.76,1.79c.71-1.65,1.62-3.19,2.71-4.62l-1.17,1.52c1.19-1.5,2.54-2.83,4.05-4l-1.52,1.17c1.62-1.22,3.37-2.23,5.23-3.03l-1.79,.76c1.88-.77,3.82-1.29,5.82-1.56l-1.99,.27c1.79-.21,3.57-.21,5.35,.02l-1.99-.27c.22,.03,.44,.06,.67,.1,2.05,.34,3.92,.33,5.78-.76,1.56-.91,3.04-2.69,3.45-4.48,.44-1.92,.34-4.07-.76-5.78-.99-1.54-2.59-3.14-4.48-3.45-3.85-.63-7.31-.64-11.17,.06-3.09,.56-6.14,1.79-8.88,3.32s-5.23,3.47-7.3,5.74c-2.63,2.89-4.38,5.94-5.85,9.52-.69,1.68-.11,4.29,.76,5.78s2.69,3.04,4.48,3.45c1.92,.44,4.07,.34,5.78-.76s2.66-2.57,3.45-4.48h0Z"/><path class="cls-1" d="M204.91,167.3c-5.64,8.35-5.64,18.9-1.57,27.85,3.7,8.15,11.78,14.82,20.67,16.35,5.33,.91,10.86,.83,16.04-.85,5.73-1.86,10.47-5.18,14.06-10.02,3.51-4.75,5.18-10.84,5.5-16.67s-1.02-11.76-3.87-16.71c-6.26-10.84-19.45-15.34-31.31-12.44-3.81,.93-6.46,5.45-5.24,9.23s5.14,6.24,9.23,5.24c.8-.19,1.6-.35,2.41-.47l-1.99,.27c1.94-.25,3.89-.26,5.83-.02l-1.99-.27c1.9,.27,3.74,.76,5.51,1.5l-1.79-.76c1.02,.45,2.01,.96,2.95,1.56,.28,.18,.55,.37,.83,.56,.81,.56-.66-.5-.72-.57,.4,.44,.95,.8,1.38,1.22,.4,.39,.79,.8,1.15,1.23,.39,.45,.75,1.22-.43-.59,.15,.24,.34,.46,.5,.7,.69,1.02,1.27,2.1,1.76,3.22l-.76-1.79c.81,1.96,1.34,3.99,1.64,6.09l-.27-1.99c.28,2.26,.28,4.52,0,6.78l.27-1.99c-.32,2.25-.91,4.43-1.79,6.52l.76-1.79c-.54,1.21-1.15,2.39-1.88,3.5-.13,.2-.27,.39-.41,.59-.76,1.1,.95-1.11,.41-.54-.4,.43-.78,.88-1.2,1.29-.38,.37-.79,.69-1.18,1.05,1.8-1.64,.43-.34-.19,.06-.99,.63-2.03,1.17-3.11,1.63l1.79-.76c-1.98,.82-4.04,1.36-6.16,1.66l1.99-.27c-2.35,.3-4.71,.29-7.05-.02l1.99,.27c-1.79-.26-3.51-.73-5.18-1.42l1.79,.76c-1.32-.56-2.58-1.24-3.76-2.05-.25-.17-.49-.36-.74-.53,2.12,1.42,.83,.65,.33,.22s-.98-.88-1.43-1.35-.88-.97-1.31-1.46c-.79-.92,1.28,1.75,.25,.32-.18-.25-.35-.49-.51-.75-.77-1.18-1.43-2.42-1.99-3.71l.76,1.79c-.77-1.86-1.3-3.78-1.58-5.77l.27,1.99c-.23-1.8-.23-3.6-.01-5.4l-.27,1.99c.24-1.73,.69-3.41,1.35-5.03l-.76,1.79c.55-1.29,1.21-2.5,2-3.66,2.2-3.26,.73-8.45-2.69-10.26-3.79-2-7.91-.79-10.26,2.69h0Z"/><path class="cls-1" d="M216.3,176.72l.13-.31-.76,1.79c.71-1.65,1.62-3.19,2.71-4.62l-1.17,1.52c1.19-1.5,2.54-2.83,4.05-4l-1.52,1.17c1.62-1.22,3.37-2.23,5.23-3.03l-1.79,.76c1.88-.77,3.82-1.29,5.82-1.56l-1.99,.27c1.79-.21,3.57-.21,5.35,.02l-1.99-.27c.22,.03,.44,.06,.67,.1,2.05,.34,3.92,.33,5.78-.76,1.56-.91,3.04-2.69,3.45-4.48,.44-1.92,.34-4.07-.76-5.78-.99-1.54-2.59-3.14-4.48-3.45-3.85-.63-7.31-.64-11.17,.06-3.09,.56-6.14,1.79-8.88,3.32s-5.23,3.47-7.3,5.74c-2.63,2.89-4.38,5.94-5.85,9.52-.69,1.68-.11,4.29,.76,5.78s2.69,3.04,4.48,3.45c1.92,.44,4.07,.34,5.78-.76s2.66-2.57,3.45-4.48h0Z"/><path class="cls-1" d="M140.86,61.42c3.92,0,7.68-3.45,7.5-7.5s-3.3-7.5-7.5-7.5c-3.92,0-7.68,3.45-7.5,7.5s3.3,7.5,7.5,7.5h0Z"/><path class="cls-1" d="M133.36,58.74v26.32h15v-2.23c0-3.92-3.45-7.68-7.5-7.5s-7.5,3.3-7.5,7.5v2.23c0,3.92,3.45,7.68,7.5,7.5s7.5-3.3,7.5-7.5v-26.32c0-3.92-3.45-7.68-7.5-7.5s-7.5,3.3-7.5,7.5h0Z"/></svg>