<?xml version="1.0" encoding="UTF-8"?><svg id="Layer_11" xmlns="http://www.w3.org/2000/svg" viewBox="0 0 282.64 277.97"><defs><style>.cls-1{fill:#231f20;}</style></defs><path class="cls-1" d="M3.49,56.75V219.72c0,7.96,12.37,7.97,12.37,0V56.75c0-7.97-12.37-7.97-12.37,0Z"/><path class="cls-1" d="M13.05,62.09c65.16-.15,130.31-.18,195.45-.11,18.42,0,36.84,.03,55.25,.09,7.96,0,7.97-12.37,0-12.37-65.15-.13-130.3-.16-195.45-.08-18.43,0-36.87,.03-55.3,.1-7.97,0-7.97,12.37,0,12.37h.04Z"/><path class="cls-1" d="M11.36,228.01c61.85-1.39,123.7-.57,185.56-.24,7.96,.05,7.97-12.32,0-12.37-61.85-.33-123.7-1.15-185.56,.24-7.94,.17-7.97,12.54,0,12.37h0Z"/><path class="cls-1" d="M55.03,221.83v-78.35c0-7.97-12.37-7.97-12.37,0v78.35c0,7.96,12.37,7.97,12.37,0Z"/><path class="cls-1" d="M45.47,147.99h8.45c3.23,0,6.33-2.85,6.19-6.19-.06-3.39-2.79-6.13-6.19-6.19h-8.45c-3.23,0-6.33,2.85-6.19,6.19,.06,3.39,2.79,6.13,6.19,6.19Z"/><path class="cls-1" d="M49.55,141.81V63.06c0-7.96-12.37-7.97-12.37,0v78.75c0,7.97,12.37,7.97,12.37,0Z"/><path class="cls-1" d="M60.93,140.13V63.49c0-7.97-12.37-7.97-12.37,0v76.64c0,7.96,12.37,7.97,12.37,0Z"/><path class="cls-1" d="M43.52,63.91c-1,17.12-1.15,34.24-.47,51.38,.32,7.93,12.69,7.97,12.37,0-.68-17.13-.53-34.26,.47-51.38,.47-7.96-11.9-7.93-12.37,0Z"/><path class="cls-1" d="M44.21,148.41h10.54c3.42,0,6.19-2.77,6.19-6.19s-2.77-6.19-6.19-6.19h-10.54c-3.42,0-6.19,2.77-6.19,6.19s2.77,6.19,6.19,6.19Z"/><path class="cls-1" d="M49.13,141.81V61.59c0-7.96-12.37-7.97-12.37,0v80.64c0,7.97,12.37,7.97,12.37,0V61.59c0-7.96-12.37-7.97-12.37,0v80.22c0,7.97,12.37,7.97,12.37,0Z"/><path class="cls-1" d="M92.51,221.4v-71.58c0-7.97-12.37-7.97-12.37,0v71.58c0,7.97,12.37,7.97,12.37,0h0Z"/><path class="cls-1" d="M88.3,145.18V61.74c0-7.96-12.37-7.97-12.37,0v1.75c0,7.96,12.37,7.97,12.37,0v-1.75c0-7.96-12.37-7.97-12.37,0v83.44c0,7.96,12.37,7.97,12.37,0Z"/><path class="cls-1" d="M97.14,144.76V63.49c0-7.97-12.37-7.97-12.37,0v81.27c0,7.96,12.37,7.97,12.37,0Z"/><path class="cls-1" d="M87.88,145.18V58.43c0-7.96-12.37-7.97-12.37,0v86.75c0,7.96,12.37,7.97,12.37,0Z"/><path class="cls-1" d="M129.56,221.4V62.64c0-7.96-12.37-7.97-12.37,0V221.4c0,7.97,12.37,7.97,12.37,0Z"/><path class="cls-1" d="M165.36,219.93v-78.35c0-7.96-12.37-7.97-12.37,0v78.35c0,7.96,12.37,7.97,12.37,0Z"/><path class="cls-1" d="M155.81,146.1h8.42c3.24,0,6.34-2.85,6.19-6.19-.05-3.39-2.79-6.13-6.19-6.19h-8.42c-3.23,0-6.33,2.85-6.19,6.19,.06,3.39,2.79,6.13,6.19,6.19Z"/><path class="cls-1" d="M159.89,139.92V61.17c0-7.96-12.37-7.97-12.37,0v78.75c0,7.96,12.37,7.97,12.37,0Z"/><path class="cls-1" d="M171.26,138.23V61.59c0-7.96-12.37-7.97-12.37,0v76.64c0,7.97,12.37,7.97,12.37,0Z"/><path class="cls-1" d="M153.86,62.01c-1,17.12-1.15,34.24-.47,51.38,.32,7.93,12.69,7.97,12.37,0-.69-17.13-.54-34.25,.47-51.38,.46-7.95-11.91-7.93-12.37,0Z"/><path class="cls-1" d="M154.54,146.53h10.53c3.42,0,6.19-2.77,6.19-6.19s-2.77-6.19-6.19-6.19h-10.53c-3.42,0-6.19,2.77-6.19,6.19s2.77,6.19,6.19,6.19Z"/><path class="cls-1" d="M159.48,139.92V59.69c0-7.96-12.37-7.97-12.37,0v80.65c0,7.96,12.37,7.97,12.37,0V59.69c0-7.96-12.37-7.97-12.37,0v80.23c0,7.96,12.37,7.97,12.37,0Z"/><path class="cls-1" d="M202.84,219.51v-71.59c0-7.96-12.37-7.97-12.37,0v71.59c0,7.96,12.37,7.97,12.37,0Z"/><path class="cls-1" d="M198.63,143.28V59.84c0-7.96-12.37-7.97-12.37,0v1.75c0,7.96,12.37,7.97,12.37,0v-1.75c0-7.96-12.37-7.97-12.37,0v83.44c0,7.96,12.37,7.97,12.37,0Z"/><path class="cls-1" d="M207.47,142.86V61.59c0-7.96-12.37-7.97-12.37,0v81.27c0,7.96,12.37,7.97,12.37,0Z"/><path class="cls-1" d="M198.25,143.28V56.53c0-7.96-12.37-7.97-12.37,0v86.75c0,7.96,12.37,7.97,12.37,0Z"/><path class="cls-1" d="M240.3,219.72v-71.59c0-7.96-12.37-7.97-12.37,0v71.59c0,7.96,12.37,7.97,12.37,0Z"/><path class="cls-1" d="M236.11,143.5V60.06c0-7.96-12.37-7.97-12.37,0v1.74c0,7.96,12.37,7.97,12.37,0v-1.74c0-7.96-12.37-7.97-12.37,0v83.44c0,7.96,12.37,7.97,12.37,0Z"/><path class="cls-1" d="M244.96,143.08V61.8c0-7.96-12.37-7.97-12.37,0v81.28c0,7.96,12.37,7.97,12.37,0Z"/><path class="cls-1" d="M235.69,143.5V56.75c0-7.97-12.37-7.97-12.37,0v86.75c0,7.96,12.37,7.97,12.37,0Z"/><path class="cls-1" d="M263.74,60.77c-.05,7.76-.09,15.52-.13,23.27,0,7.97,12.37,7.97,12.37,0,.04-7.75,.09-15.51,.13-23.27,.06-7.96-12.31-7.97-12.37,0Z"/><path class="cls-1" d="M276.16,62.78c.1-2.98-.34-5.91-2.2-8.33-2.19-2.98-5.98-4.29-9.54-3.3-3.08,.96-5.37,4.35-4.32,7.64,1.01,3.09,4.3,5.35,7.61,4.32,.82-.26-.61,.07-.74,.07-.68,.03-1.35-.13-1.95-.46-.2-.12-.99-.98-.5-.36l-.57-.74c.21,.4,.21,.37,0-.12-.4-.82-.12-.08,0,.14,.21,.67-.04-1.24-.09-.53-.04,.56,0,1.14,0,1.7,.03,3.4,2.78,6.16,6.19,6.19,3.39-.06,6.12-2.8,6.19-6.19l-.07-.04Z"/><path class="cls-1" d="M273.74,53.79c-2.5-2.38-5.83-3.71-9.29-3.7-3.23,0-6.33,2.83-6.19,6.19,.05,3.39,2.79,6.13,6.19,6.19,.32,0,.64,.01,.96,.04l-1.65-.22c.63,.09,1.25,.24,1.84,.47l-1.48-.62c.59,.25,1.14,.57,1.65,.96l-1.26-.99c.17,.13,.33,.27,.48,.41,2.38,2.19,6.42,2.54,8.75,0,2.19-2.38,2.55-6.41,0-8.74v.02Z"/></svg>