<?xml version="1.0" encoding="UTF-8"?><svg id="Layer_7_copy" xmlns="http://www.w3.org/2000/svg" viewBox="0 0 282.64 272.94"><defs><style>.cls-1{fill:#231f20;}</style></defs><path class="cls-1" d="M48.87,184.2c4.14-8.61,5.47-18.07,4.83-27.56-.13-2-.75-3.85-2.2-5.3-1.3-1.3-3.44-2.28-5.3-2.2-3.84,.17-7.78,3.31-7.5,7.5,.26,3.92,.22,7.84-.29,11.74l.27-1.99c-.48,3.47-1.33,6.86-2.65,10.11l.76-1.79c-.27,.65-.56,1.29-.87,1.92-.89,1.84-1.32,3.75-.76,5.78,.48,1.74,1.82,3.63,3.45,4.48,3.35,1.77,8.45,1.08,10.26-2.69h0Z"/><path class="cls-1" d="M36.33,176.18L3.41,209.1c-2.78,2.78-2.98,7.87,0,10.61s7.64,2.96,10.61,0l32.92-32.92c2.78-2.78,2.98-7.87,0-10.61s-7.64-2.96-10.61,0h0Z"/><path class="cls-1" d="M51.3,159.29l44.9-53.15,44.74-52.96,25.27-29.91c1.31-1.55,2.2-3.21,2.2-5.3,0-1.84-.82-4.04-2.2-5.3-2.79-2.56-7.9-3.2-10.61,0l-44.9,53.15-44.74,52.96-25.27,29.91c-1.31,1.55-2.2,3.21-2.2,5.3,0,1.84,.82,4.04,2.2,5.3,2.79,2.56,7.9,3.2,10.61,0h0Z"/><path class="cls-1" d="M161.36,25.77c7.98,.24,16.13-1.14,23.56-4.07,1.88-.74,3.43-1.64,4.48-3.45,.94-1.61,1.34-3.98,.76-5.78s-1.71-3.57-3.45-4.48-3.94-1.48-5.78-.76c-4.11,1.62-8.39,2.74-12.77,3.35l1.99-.27c-2.92,.38-5.86,.53-8.8,.45-3.93-.12-7.68,3.53-7.5,7.5,.19,4.16,3.29,7.38,7.5,7.5h0Z"/><path class="cls-1" d="M186.8,20.39c.13-.06,.26-.12,.39-.17l-1.79,.76c1.12-.46,2.27-.76,3.47-.92l-1.99,.27c1.2-.14,2.4-.14,3.59,0l-1.99-.27c1.27,.17,2.49,.5,3.67,.99l-1.79-.76c.78,.34,1.52,.74,2.23,1.21,1.56,1.04,4.01,1.24,5.78,.76s3.63-1.82,4.48-3.45c.92-1.74,1.38-3.85,.76-5.78s-1.76-3.35-3.45-4.48c-3.08-2.06-6.67-2.99-10.32-3.3-1.81-.15-3.59,.11-5.37,.39s-3.53,1.03-5.23,1.79c-1.61,.72-3,2.86-3.45,4.48-.49,1.8-.27,4.19,.76,5.78s2.57,3.01,4.48,3.45l1.99,.27c1.35,0,2.62-.35,3.79-1.02h0Z"/><path class="cls-1" d="M40.64,90.14l-8.43,9.71,10.61,10.61,1.1-1.27c.73-.68,1.25-1.48,1.55-2.41,.47-.89,.68-1.86,.65-2.89,.04-1.03-.18-2-.65-2.89-.3-.93-.82-1.73-1.55-2.41-1.43-1.31-3.31-2.29-5.3-2.2s-4.01,.7-5.3,2.2l-1.1,1.27c-.73,.68-1.25,1.48-1.55,2.41-.47,.89-.68,1.86-.65,2.89-.04,1.03,.18,2,.65,2.89,.3,.93,.82,1.73,1.55,2.41,1.43,1.31,3.31,2.29,5.3,2.2s4.01-.7,5.3-2.2l8.43-9.71c.73-.68,1.25-1.48,1.55-2.41,.47-.89,.68-1.86,.65-2.89,.04-1.03-.18-2-.65-2.89-.3-.93-.82-1.73-1.55-2.41-1.43-1.31-3.31-2.29-5.3-2.2s-4.01,.7-5.3,2.2h0Z"/><path class="cls-1" d="M40.64,100.74l7.51,6.51c.68,.73,1.48,1.25,2.41,1.55,.89,.47,1.86,.68,2.89,.65,1.03,.04,2-.18,2.89-.65,.93-.3,1.73-.82,2.41-1.55,1.31-1.43,2.29-3.31,2.2-5.3l-.27-1.99c-.36-1.27-1-2.37-1.93-3.31l-7.51-6.51c-.68-.73-1.48-1.25-2.41-1.55-.89-.47-1.86-.68-2.89-.65-1.03-.04-2,.18-2.89,.65-.93,.3-1.73,.82-2.41,1.55-1.31,1.43-2.29,3.31-2.2,5.3l.27,1.99c.36,1.27,1,2.37,1.93,3.31h0Z"/><path class="cls-1" d="M32.49,110.13l7.51,6.51c.68,.73,1.48,1.25,2.41,1.55,.89,.47,1.86,.68,2.89,.65,1.03,.04,2-.18,2.89-.65,.93-.3,1.73-.82,2.41-1.55,1.31-1.43,2.29-3.31,2.2-5.3l-.27-1.99c-.36-1.27-1-2.37-1.93-3.31l-7.51-6.51c-.68-.73-1.48-1.25-2.41-1.55-.89-.47-1.86-.68-2.89-.65-1.03-.04-2,.18-2.89,.65-.93,.3-1.73,.82-2.41,1.55-1.31,1.43-2.29,3.31-2.2,5.3l.27,1.99c.36,1.27,1,2.37,1.93,3.31h0Z"/><path class="cls-1" d="M39.14,112.67l11.39-.81c1.03,.04,2-.18,2.89-.65,.93-.3,1.73-.82,2.41-1.55,1.3-1.3,2.28-3.44,2.2-5.3s-.72-3.95-2.2-5.3-3.33-2.34-5.3-2.2l-11.39,.81c-1.03-.04-2,.18-2.89,.65-.93,.3-1.73,.82-2.41,1.55-1.3,1.3-2.28,3.44-2.2,5.3s.72,3.95,2.2,5.3,3.33,2.34,5.3,2.2h0Z"/><path class="cls-1" d="M32.56,111l6.57,5.7c.68,.73,1.48,1.25,2.41,1.55,.89,.47,1.86,.68,2.89,.65,1.03,.04,2-.18,2.89-.65,.93-.3,1.73-.82,2.41-1.55l1.17-1.52c.68-1.17,1.02-2.43,1.02-3.79l-.27-1.99c-.36-1.27-1-2.37-1.93-3.31l-6.57-5.7c-.68-.73-1.48-1.25-2.41-1.55-.89-.47-1.86-.68-2.89-.65-1.03-.04-2,.18-2.89,.65-.93,.3-1.73,.82-2.41,1.55l-1.17,1.52c-.68,1.17-1.02,2.43-1.02,3.79l.27,1.99c.36,1.27,1,2.37,1.93,3.31h0Z"/><path class="cls-1" d="M50.67,117.51l8.14-9.38c.73-.68,1.25-1.48,1.55-2.41,.47-.89,.68-1.86,.65-2.89,.04-1.03-.18-2-.65-2.89-.3-.93-.82-1.73-1.55-2.41-1.43-1.31-3.31-2.29-5.3-2.2s-4.01,.7-5.3,2.2l-8.14,9.38c-.73,.68-1.25,1.48-1.55,2.41-.47,.89-.68,1.86-.65,2.89-.04,1.03,.18,2,.65,2.89,.3,.93,.82,1.73,1.55,2.41,1.43,1.31,3.31,2.29,5.3,2.2s4.01-.7,5.3-2.2h0Z"/><path class="cls-1" d="M73.92,51.61l-8.3,9.82,10.61,10.61,1.08-1.28c.73-.68,1.25-1.48,1.55-2.41,.47-.89,.68-1.86,.65-2.89,.04-1.03-.18-2-.65-2.89-.3-.93-.82-1.73-1.55-2.41-1.43-1.31-3.31-2.29-5.3-2.2-1.89,.08-4.03,.69-5.3,2.2l-1.08,1.28c-.73,.68-1.25,1.48-1.55,2.41-.47,.89-.68,1.86-.65,2.89-.04,1.03,.18,2,.65,2.89,.3,.93,.82,1.73,1.55,2.41,1.43,1.31,3.31,2.29,5.3,2.2,1.89-.08,4.03-.69,5.3-2.2l8.3-9.82c.73-.68,1.25-1.48,1.55-2.41,.47-.89,.68-1.86,.65-2.89,.04-1.03-.18-2-.65-2.89-.3-.93-.82-1.73-1.55-2.41-1.43-1.31-3.31-2.29-5.3-2.2-1.89,.08-4.03,.69-5.3,2.2h0Z"/><path class="cls-1" d="M73.92,62.22l7.59,6.42c.68,.73,1.48,1.25,2.41,1.55,.89,.47,1.86,.68,2.89,.65,1.03,.04,2-.18,2.89-.65,.93-.3,1.73-.82,2.41-1.55,1.31-1.43,2.29-3.31,2.2-5.3l-.27-1.99c-.36-1.27-1-2.37-1.93-3.31l-7.59-6.42c-.68-.73-1.48-1.25-2.41-1.55-.89-.47-1.86-.68-2.89-.65-1.03-.04-2,.18-2.89,.65-.93,.3-1.73,.82-2.41,1.55-1.31,1.43-2.29,3.31-2.2,5.3l.27,1.99c.36,1.27,1,2.37,1.93,3.31h0Z"/><path class="cls-1" d="M65.72,71.45l7.51,6.51c.68,.73,1.48,1.25,2.41,1.55,.89,.47,1.86,.68,2.89,.65,1.03,.04,2-.18,2.89-.65,.93-.3,1.73-.82,2.41-1.55,1.31-1.43,2.29-3.31,2.2-5.3l-.27-1.99c-.36-1.27-1-2.37-1.93-3.31l-7.51-6.51c-.68-.73-1.48-1.25-2.41-1.55-.89-.47-1.86-.68-2.89-.65-1.03-.04-2,.18-2.89,.65-.93,.3-1.73,.82-2.41,1.55-1.31,1.43-2.29,3.31-2.2,5.3l.27,1.99c.36,1.27,1,2.37,1.93,3.31h0Z"/><path class="cls-1" d="M72.37,73.99l11.39-.81c1.03,.04,2-.18,2.89-.65,.93-.3,1.73-.82,2.41-1.55,1.3-1.3,2.28-3.44,2.2-5.3s-.72-3.95-2.2-5.3-3.33-2.34-5.3-2.2l-11.39,.81c-1.03-.04-2,.18-2.89,.65-.93,.3-1.73,.82-2.41,1.55-1.3,1.3-2.28,3.44-2.2,5.3s.72,3.95,2.2,5.3,3.33,2.34,5.3,2.2h0Z"/><path class="cls-1" d="M65.79,72.32l6.57,5.7c.68,.73,1.48,1.25,2.41,1.55,.89,.47,1.86,.68,2.89,.65,1.03,.04,2-.18,2.89-.65,.93-.3,1.73-.82,2.41-1.55l1.17-1.52c.68-1.17,1.02-2.43,1.02-3.79l-.27-1.99c-.36-1.27-1-2.37-1.93-3.31l-6.57-5.7c-.68-.73-1.48-1.25-2.41-1.55-.89-.47-1.86-.68-2.89-.65-1.03-.04-2,.18-2.89,.65-.93,.3-1.73,.82-2.41,1.55l-1.17,1.52c-.68,1.17-1.02,2.43-1.02,3.79l.27,1.99c.36,1.27,1,2.37,1.93,3.31h0Z"/><path class="cls-1" d="M83.9,78.84l8.14-9.38c.73-.68,1.25-1.48,1.55-2.41,.47-.89,.68-1.86,.65-2.89,.04-1.03-.18-2-.65-2.89-.3-.93-.82-1.73-1.55-2.41-1.43-1.31-3.31-2.29-5.3-2.2s-4.01,.7-5.3,2.2l-8.14,9.38c-.73,.68-1.25,1.48-1.55,2.41-.47,.89-.68,1.86-.65,2.89-.04,1.03,.18,2,.65,2.89,.3,.93,.82,1.73,1.55,2.41,1.43,1.31,3.31,2.29,5.3,2.2s4.01-.7,5.3-2.2h0Z"/><path class="cls-1" d="M110.48,13.4l-8.3,9.82,10.61,10.61,1.08-1.28c.73-.68,1.25-1.48,1.55-2.41,.47-.89,.68-1.86,.65-2.89,.04-1.03-.18-2-.65-2.89-.3-.93-.82-1.73-1.55-2.41-1.43-1.31-3.31-2.29-5.3-2.2-1.89,.08-4.03,.69-5.3,2.2l-1.08,1.28c-.73,.68-1.25,1.48-1.55,2.41-.47,.89-.68,1.86-.65,2.89-.04,1.03,.18,2,.65,2.89,.3,.93,.82,1.73,1.55,2.41,1.43,1.31,3.31,2.29,5.3,2.2,1.89-.08,4.03-.69,5.3-2.2l8.3-9.82c.73-.68,1.25-1.48,1.55-2.41,.47-.89,.68-1.86,.65-2.89,.04-1.03-.18-2-.65-2.89-.3-.93-.82-1.73-1.55-2.41-1.43-1.31-3.31-2.29-5.3-2.2-1.89,.08-4.03,.69-5.3,2.2h0Z"/><path class="cls-1" d="M110.48,24.01l7.59,6.42c.68,.73,1.48,1.25,2.41,1.55,.89,.47,1.86,.68,2.89,.65,1.03,.04,2-.18,2.89-.65,.93-.3,1.73-.82,2.41-1.55,1.31-1.43,2.29-3.31,2.2-5.3l-.27-1.99c-.36-1.27-1-2.37-1.93-3.31l-7.59-6.42c-.68-.73-1.48-1.25-2.41-1.55-.89-.47-1.86-.68-2.89-.65-1.03-.04-2,.18-2.89,.65-.93,.3-1.73,.82-2.41,1.55-1.31,1.43-2.29,3.31-2.2,5.3l.27,1.99c.36,1.27,1,2.37,1.93,3.31h0Z"/><path class="cls-1" d="M102.29,33.24l7.51,6.51c.68,.73,1.48,1.25,2.41,1.55,.89,.47,1.86,.68,2.89,.65,1.03,.04,2-.18,2.89-.65,.93-.3,1.73-.82,2.41-1.55,1.31-1.43,2.29-3.31,2.2-5.3l-.27-1.99c-.36-1.27-1-2.37-1.93-3.31l-7.51-6.51c-.68-.73-1.48-1.25-2.41-1.55-.89-.47-1.86-.68-2.89-.65-1.03-.04-2,.18-2.89,.65-.93,.3-1.73,.82-2.41,1.55-1.31,1.43-2.29,3.31-2.2,5.3l.27,1.99c.36,1.27,1,2.37,1.93,3.31h0Z"/><path class="cls-1" d="M108.94,35.78l11.39-.81c1.03,.04,2-.18,2.89-.65,.93-.3,1.73-.82,2.41-1.55,1.3-1.3,2.28-3.44,2.2-5.3s-.72-3.95-2.2-5.3-3.33-2.34-5.3-2.2l-11.39,.81c-1.03-.04-2,.18-2.89,.65-.93,.3-1.73,.82-2.41,1.55-1.3,1.3-2.28,3.44-2.2,5.3s.72,3.95,2.2,5.3,3.33,2.34,5.3,2.2h0Z"/><path class="cls-1" d="M102.35,34.11l6.57,5.7c.68,.73,1.48,1.25,2.41,1.55,.89,.47,1.86,.68,2.89,.65,1.03,.04,2-.18,2.89-.65,.93-.3,1.73-.82,2.41-1.55l1.17-1.52c.68-1.17,1.02-2.43,1.02-3.79l-.27-1.99c-.36-1.27-1-2.37-1.93-3.31l-6.57-5.7c-.68-.73-1.48-1.25-2.41-1.55-.89-.47-1.86-.68-2.89-.65-1.03-.04-2,.18-2.89,.65-.93,.3-1.73,.82-2.41,1.55l-1.17,1.52c-.68,1.17-1.02,2.43-1.02,3.79l.27,1.99c.36,1.27,1,2.37,1.93,3.31h0Z"/><path class="cls-1" d="M120.46,40.63l8.14-9.38c.73-.68,1.25-1.48,1.55-2.41,.47-.89,.68-1.86,.65-2.89,.04-1.03-.18-2-.65-2.89-.3-.93-.82-1.73-1.55-2.41-1.43-1.31-3.31-2.29-5.3-2.2s-4.01,.7-5.3,2.2l-8.14,9.38c-.73,.68-1.25,1.48-1.55,2.41-.47,.89-.68,1.86-.65,2.89-.04,1.03,.18,2,.65,2.89,.3,.93,.82,1.73,1.55,2.41,1.43,1.31,3.31,2.29,5.3,2.2s4.01-.7,5.3-2.2h0Z"/><path class="cls-1" d="M96.4,227.02c.87-.44,1.76-.86,2.66-1.24l-1.79,.76c3.5-1.43,7.15-2.33,10.89-2.85l-1.99,.27c3.34-.43,6.7-.56,10.06-.47,3.92,.11,7.68-3.53,7.5-7.5s-3.29-7.39-7.5-7.5c-9.46-.25-18.91,1.25-27.4,5.57-3.5,1.78-4.8,6.99-2.69,10.26,2.31,3.58,6.51,4.6,10.26,2.69h0Z"/><path class="cls-1" d="M86.27,216.02l-31.71,32.88c-2.73,2.83-3.02,7.83,0,10.61s7.7,3.02,10.61,0l31.71-32.88c2.73-2.83,3.02-7.83,0-10.61s-7.7-3.02-10.61,0h0Z"/><path class="cls-1" d="M124.2,221.41l51.44-45.1,51.44-45.1,28.91-25.35c2.96-2.6,2.85-7.99,0-10.61-3.16-2.9-7.45-2.77-10.61,0l-51.44,45.1-51.44,45.1-28.91,25.35c-2.96,2.6-2.85,7.99,0,10.61,3.16,2.9,7.45,2.77,10.61,0h0Z"/><path class="cls-1" d="M257.86,100.11c-.23-3.34-.12-6.69,.31-10.01l-.27,1.99c.51-3.71,1.42-7.35,2.71-10.87,.64-1.74,.15-4.23-.76-5.78s-2.69-3.04-4.48-3.45c-1.92-.44-4.07-.34-5.78,.76s-2.74,2.56-3.45,4.48c-2.65,7.23-3.81,15.18-3.29,22.87,.14,2,.74,3.85,2.2,5.3,1.3,1.3,3.44,2.28,5.3,2.2,3.83-.17,7.79-3.31,7.5-7.5h0Z"/><path class="cls-1" d="M261.17,81.13c.58-1.38,.83-2.77,1.03-4.24s.32-2.94,.13-4.45c-.22-1.78-.44-3.48-1.1-5.15s-1.34-3.29-2.42-4.73c-.47-.87-1.12-1.58-1.93-2.1-.72-.66-1.57-1.11-2.55-1.34-1.8-.49-4.19-.27-5.78,.76s-3.01,2.57-3.45,4.48-.43,4.2,.76,5.78c.64,.85,1.17,1.77,1.59,2.75l-.76-1.79c.43,1.04,.73,2.13,.89,3.24l-.27-1.99c.16,1.18,.16,2.37,.01,3.55l.27-1.99c-.16,1.12-.45,2.2-.89,3.24-.31,1-.36,1.99-.13,2.99,.05,1,.34,1.93,.89,2.79,.91,1.56,2.69,3.04,4.48,3.45,1.92,.44,4.07,.34,5.78-.76l1.52-1.17c.93-.94,1.57-2.04,1.93-3.31h0Z"/><path class="cls-1" d="M172.1,208.66l-9.4,8.46c-.73,.68-1.25,1.48-1.55,2.41-.47,.89-.68,1.86-.65,2.89-.04,1.03,.18,2,.65,2.89,.3,.93,.82,1.73,1.55,2.41,1.43,1.31,3.31,2.29,5.3,2.2l1.99-.27c1.27-.36,2.37-1,3.31-1.93l1.23-1.1c.73-.68,1.25-1.48,1.55-2.41,.47-.89,.68-1.86,.65-2.89,.04-1.03-.18-2-.65-2.89-.3-.93-.82-1.73-1.55-2.41-1.43-1.31-3.31-2.29-5.3-2.2l-1.99,.27c-1.27,.36-2.37,1-3.31,1.93l-1.23,1.1,10.61,10.61,9.4-8.46c.73-.68,1.25-1.48,1.55-2.41,.47-.89,.68-1.86,.65-2.89,.04-1.03-.18-2-.65-2.89-.3-.93-.82-1.73-1.55-2.41-1.43-1.31-3.31-2.29-5.3-2.2l-1.99,.27c-1.27,.36-2.37,1-3.31,1.93h0Z"/><path class="cls-1" d="M182.71,208.66l-6.78-6.97c-.68-.73-1.48-1.25-2.41-1.55-.89-.47-1.86-.68-2.89-.65-1.03-.04-2,.18-2.89,.65-.93,.3-1.73,.82-2.41,1.55l-1.17,1.52c-.68,1.17-1.02,2.43-1.02,3.79l.27,1.99c.36,1.27,1,2.37,1.93,3.31l6.78,6.97c.68,.73,1.48,1.25,2.41,1.55,.89,.47,1.86,.68,2.89,.65,1.03,.04,2-.18,2.89-.65,.93-.3,1.73-.82,2.41-1.55l1.17-1.52c.68-1.17,1.02-2.43,1.02-3.79l-.27-1.99c-.36-1.27-1-2.37-1.93-3.31h0Z"/><path class="cls-1" d="M173.62,216.84l-6.78-6.97c-.68-.73-1.48-1.25-2.41-1.55-.89-.47-1.86-.68-2.89-.65-1.03-.04-2,.18-2.89,.65-.93,.3-1.73,.82-2.41,1.55l-1.17,1.52c-.68,1.17-1.02,2.43-1.02,3.79l.27,1.99c.36,1.27,1,2.37,1.93,3.31l6.78,6.97c.68,.73,1.48,1.25,2.41,1.55,.89,.47,1.86,.68,2.89,.65,1.03,.04,2-.18,2.89-.65,.93-.3,1.73-.82,2.41-1.55l1.17-1.52c.68-1.17,1.02-2.43,1.02-3.79l-.27-1.99c-.36-1.27-1-2.37-1.93-3.31h0Z"/><path class="cls-1" d="M175.43,220.86l.4-10.98c.07-1.88-.88-3.99-2.2-5.3s-3.44-2.28-5.3-2.2-3.95,.72-5.3,2.2-2.12,3.25-2.2,5.3l-.4,10.98c-.07,1.88,.88,3.99,2.2,5.3s3.44,2.28,5.3,2.2,3.95-.72,5.3-2.2,2.12-3.25,2.2-5.3h0Z"/><path class="cls-1" d="M172.75,216.81l-5.93-6.1c-.68-.73-1.48-1.25-2.41-1.55-.89-.47-1.86-.68-2.89-.65-1.03-.04-2,.18-2.89,.65-.93,.3-1.73,.82-2.41,1.55l-1.17,1.52c-.68,1.17-1.02,2.43-1.02,3.79l.27,1.99c.36,1.27,1,2.37,1.93,3.31l5.93,6.1c.68,.73,1.48,1.25,2.41,1.55,.89,.47,1.86,.68,2.89,.65,1.03,.04,2-.18,2.89-.65,.93-.3,1.73-.82,2.41-1.55l1.17-1.52c.68-1.17,1.02-2.43,1.02-3.79l-.27-1.99c-.36-1.27-1-2.37-1.93-3.31h0Z"/><path class="cls-1" d="M165.97,220.44l9.08-8.18c.73-.68,1.25-1.48,1.55-2.41,.47-.89,.68-1.86,.65-2.89,.04-1.03-.18-2-.65-2.89-.3-.93-.82-1.73-1.55-2.41-1.43-1.31-3.31-2.29-5.3-2.2l-1.99,.27c-1.27,.36-2.37,1-3.31,1.93l-9.08,8.18c-.73,.68-1.25,1.48-1.55,2.41-.47,.89-.68,1.86-.65,2.89-.04,1.03,.18,2,.65,2.89,.3,.93,.82,1.73,1.55,2.41,1.43,1.31,3.31,2.29,5.3,2.2l1.99-.27c1.27-.36,2.37-1,3.31-1.93h0Z"/><path class="cls-1" d="M209.4,175.22l-9.51,8.35c-.73,.68-1.25,1.48-1.55,2.41-.47,.89-.68,1.86-.65,2.89-.04,1.03,.18,2,.65,2.89,.3,.93,.82,1.73,1.55,2.41,1.43,1.31,3.31,2.29,5.3,2.2l1.99-.27c1.27-.36,2.37-1,3.31-1.93l1.24-1.09c.73-.68,1.25-1.48,1.55-2.41,.47-.89,.68-1.86,.65-2.89,.04-1.03-.18-2-.65-2.89-.3-.93-.82-1.73-1.55-2.41-1.43-1.31-3.31-2.29-5.3-2.2l-1.99,.27c-1.27,.36-2.37,1-3.31,1.93l-1.24,1.09,10.61,10.61,9.51-8.35c.73-.68,1.25-1.48,1.55-2.41,.47-.89,.68-1.86,.65-2.89,.04-1.03-.18-2-.65-2.89-.3-.93-.82-1.73-1.55-2.41-1.43-1.31-3.31-2.29-5.3-2.2l-1.99,.27c-1.27,.36-2.37,1-3.31,1.93h0Z"/><path class="cls-1" d="M220.01,175.22l-6.69-7.05c-.68-.73-1.48-1.25-2.41-1.55-.89-.47-1.86-.68-2.89-.65-1.03-.04-2,.18-2.89,.65-.93,.3-1.73,.82-2.41,1.55l-1.17,1.52c-.68,1.17-1.02,2.43-1.02,3.79l.27,1.99c.36,1.27,1,2.37,1.93,3.31l6.69,7.05c.68,.73,1.48,1.25,2.41,1.55,.89,.47,1.86,.68,2.89,.65,1.03,.04,2-.18,2.89-.65,.93-.3,1.73-.82,2.41-1.55l1.17-1.52c.68-1.17,1.02-2.43,1.02-3.79l-.27-1.99c-.36-1.27-1-2.37-1.93-3.31h0Z"/><path class="cls-1" d="M211.08,183.44l-6.78-6.97c-.68-.73-1.48-1.25-2.41-1.55-.89-.47-1.86-.68-2.89-.65-1.03-.04-2,.18-2.89,.65-.93,.3-1.73,.82-2.41,1.55l-1.17,1.52c-.68,1.17-1.02,2.43-1.02,3.79l.27,1.99c.36,1.27,1,2.37,1.93,3.31l6.78,6.97c.68,.73,1.48,1.25,2.41,1.55,.89,.47,1.86,.68,2.89,.65,1.03,.04,2-.18,2.89-.65,.93-.3,1.73-.82,2.41-1.55l1.17-1.52c.68-1.17,1.02-2.43,1.02-3.79l-.27-1.99c-.36-1.27-1-2.37-1.93-3.31h0Z"/><path class="cls-1" d="M212.88,187.46l.4-10.98c.07-1.88-.88-3.99-2.2-5.3s-3.44-2.28-5.3-2.2-3.95,.72-5.3,2.2-2.12,3.25-2.2,5.3l-.4,10.98c-.07,1.88,.88,3.99,2.2,5.3s3.44,2.28,5.3,2.2,3.95-.72,5.3-2.2,2.12-3.25,2.2-5.3h0Z"/><path class="cls-1" d="M210.2,183.42l-5.93-6.1c-.68-.73-1.48-1.25-2.41-1.55-.89-.47-1.86-.68-2.89-.65-1.03-.04-2,.18-2.89,.65-.93,.3-1.73,.82-2.41,1.55l-1.17,1.52c-.68,1.17-1.02,2.43-1.02,3.79l.27,1.99c.36,1.27,1,2.37,1.93,3.31l5.93,6.1c.68,.73,1.48,1.25,2.41,1.55,.89,.47,1.86,.68,2.89,.65,1.03,.04,2-.18,2.89-.65,.93-.3,1.73-.82,2.41-1.55l1.17-1.52c.68-1.17,1.02-2.43,1.02-3.79l-.27-1.99c-.36-1.27-1-2.37-1.93-3.31h0Z"/><path class="cls-1" d="M203.42,187.05l9.08-8.18c.73-.68,1.25-1.48,1.55-2.41,.47-.89,.68-1.86,.65-2.89,.04-1.03-.18-2-.65-2.89-.3-.93-.82-1.73-1.55-2.41-1.43-1.31-3.31-2.29-5.3-2.2l-1.99,.27c-1.27,.36-2.37,1-3.31,1.93l-9.08,8.18c-.73,.68-1.25,1.48-1.55,2.41-.47,.89-.68,1.86-.65,2.89-.04,1.03,.18,2,.65,2.89,.3,.93,.82,1.73,1.55,2.41,1.43,1.31,3.31,2.29,5.3,2.2l1.99-.27c1.27-.36,2.37-1,3.31-1.93h0Z"/><path class="cls-1" d="M246.27,138.63l-9.51,8.35,10.61,10.61,1.24-1.09c.73-.68,1.25-1.48,1.55-2.41,.47-.89,.68-1.86,.65-2.89,.04-1.03-.18-2-.65-2.89-.3-.93-.82-1.73-1.55-2.41-1.43-1.31-3.31-2.29-5.3-2.2l-1.99,.27c-1.27,.36-2.37,1-3.31,1.93l-1.24,1.09c-.73,.68-1.25,1.48-1.55,2.41-.47,.89-.68,1.86-.65,2.89-.04,1.03,.18,2,.65,2.89,.3,.93,.82,1.73,1.55,2.41,1.43,1.31,3.31,2.29,5.3,2.2l1.99-.27c1.27-.36,2.37-1,3.31-1.93l9.51-8.35c.73-.68,1.25-1.48,1.55-2.41,.47-.89,.68-1.86,.65-2.89,.04-1.03-.18-2-.65-2.89-.3-.93-.82-1.73-1.55-2.41-1.43-1.31-3.31-2.29-5.3-2.2l-1.99,.27c-1.27,.36-2.37,1-3.31,1.93h0Z"/><path class="cls-1" d="M256.87,138.63l-6.69-7.05c-.68-.73-1.48-1.25-2.41-1.55-.89-.47-1.86-.68-2.89-.65-1.03-.04-2,.18-2.89,.65-.93,.3-1.73,.82-2.41,1.55l-1.17,1.52c-.68,1.17-1.02,2.43-1.02,3.79l.27,1.99c.36,1.27,1,2.37,1.93,3.31l6.69,7.05c.68,.73,1.48,1.25,2.41,1.55,.89,.47,1.86,.68,2.89,.65,1.03,.04,2-.18,2.89-.65,.93-.3,1.73-.82,2.41-1.55l1.17-1.52c.68-1.17,1.02-2.43,1.02-3.79l-.27-1.99c-.36-1.27-1-2.37-1.93-3.31h0Z"/><path class="cls-1" d="M247.94,146.86l-6.78-6.97c-.68-.73-1.48-1.25-2.41-1.55-.89-.47-1.86-.68-2.89-.65-1.03-.04-2,.18-2.89,.65-.93,.3-1.73,.82-2.41,1.55l-1.17,1.52c-.68,1.17-1.02,2.43-1.02,3.79l.27,1.99c.36,1.27,1,2.37,1.93,3.31l6.78,6.97c.68,.73,1.48,1.25,2.41,1.55,.89,.47,1.86,.68,2.89,.65,1.03,.04,2-.18,2.89-.65,.93-.3,1.73-.82,2.41-1.55l1.17-1.52c.68-1.17,1.02-2.43,1.02-3.79l-.27-1.99c-.36-1.27-1-2.37-1.93-3.31h0Z"/><path class="cls-1" d="M249.75,150.88l.4-10.98c.07-1.88-.88-3.99-2.2-5.3s-3.44-2.28-5.3-2.2-3.95,.72-5.3,2.2-2.12,3.25-2.2,5.3l-.4,10.98c-.07,1.88,.88,3.99,2.2,5.3s3.44,2.28,5.3,2.2,3.95-.72,5.3-2.2,2.12-3.25,2.2-5.3h0Z"/><path class="cls-1" d="M247.07,146.83l-5.93-6.1c-.68-.73-1.48-1.25-2.41-1.55-.89-.47-1.86-.68-2.89-.65-1.03-.04-2,.18-2.89,.65-.93,.3-1.73,.82-2.41,1.55l-1.17,1.52c-.68,1.17-1.02,2.43-1.02,3.79l.27,1.99c.36,1.27,1,2.37,1.93,3.31l5.93,6.1c.68,.73,1.48,1.25,2.41,1.55,.89,.47,1.86,.68,2.89,.65,1.03,.04,2-.18,2.89-.65,.93-.3,1.73-.82,2.41-1.55l1.17-1.52c.68-1.17,1.02-2.43,1.02-3.79l-.27-1.99c-.36-1.27-1-2.37-1.93-3.31h0Z"/><path class="cls-1" d="M240.29,150.47l9.08-8.18c.73-.68,1.25-1.48,1.55-2.41,.47-.89,.68-1.86,.65-2.89,.04-1.03-.18-2-.65-2.89-.3-.93-.82-1.73-1.55-2.41-1.43-1.31-3.31-2.29-5.3-2.2l-1.99,.27c-1.27,.36-2.37,1-3.31,1.93l-9.08,8.18c-.73,.68-1.25,1.48-1.55,2.41-.47,.89-.68,1.86-.65,2.89-.04,1.03,.18,2,.65,2.89,.3,.93,.82,1.73,1.55,2.41,1.43,1.31,3.31,2.29,5.3,2.2l1.99-.27c1.27-.36,2.37-1,3.31-1.93h0Z"/><path class="cls-1" d="M187.7,17.97c5.02,2.32,9.9,4.92,14.61,7.81,2.33,1.43,4.61,2.92,6.86,4.48,1.09,.76,2.18,1.54,3.25,2.32,.54,.39,1.07,.79,1.6,1.2,.18,.14,1.26,.97,.19,.14s.3,.24,.5,.4c8.57,6.77,16.37,14.51,23.19,23.04,.38,.48,2.07,2.74,.55,.68,.47,.64,.97,1.27,1.44,1.91,.87,1.18,1.73,2.37,2.56,3.57,1.82,2.63,3.55,5.31,5.19,8.06,2.02,3.37,6.83,4.9,10.26,2.69s4.85-6.66,2.69-10.26c-12.06-20.14-28.89-37.31-48.69-49.91-5.34-3.4-10.9-6.43-16.65-9.08-1.87-.87-3.72-1.32-5.78-.76-1.74,.48-3.63,1.82-4.48,3.45-1.75,3.31-1.11,8.5,2.69,10.26h0Z"/></svg>