<?xml version="1.0" encoding="UTF-8"?><svg id="Layer_15" xmlns="http://www.w3.org/2000/svg" viewBox="0 0 282.64 277.97"><defs><style>.cls-1{fill:#231f20;}</style></defs><path class="cls-1" d="M26.73,37.05v45.78c0,3.92,3.45,7.68,7.5,7.5s7.5-3.3,7.5-7.5V37.05c0-3.92-3.45-7.68-7.5-7.5s-7.5,3.3-7.5,7.5h0Z"/><path class="cls-1" d="M80.02,29.55H34.23c-3.92,0-7.68,3.45-7.5,7.5s3.3,7.5,7.5,7.5h45.78c3.92,0,7.68-3.45,7.5-7.5s-3.3-7.5-7.5-7.5h0Z"/><path class="cls-1" d="M34.23,252.45h45.78c3.92,0,7.68-3.45,7.5-7.5s-3.3-7.5-7.5-7.5H34.23c-3.92,0-7.68,3.45-7.5,7.5s3.3,7.5,7.5,7.5h0Z"/><path class="cls-1" d="M26.73,199.17v45.78c0,3.92,3.45,7.68,7.5,7.5s7.5-3.3,7.5-7.5v-45.78c0-3.92-3.45-7.68-7.5-7.5s-7.5,3.3-7.5,7.5h0Z"/><path class="cls-1" d="M251.1,30.03h-45.78c-3.92,0-7.68,3.45-7.5,7.5s3.3,7.5,7.5,7.5h45.78c3.92,0,7.68-3.45,7.5-7.5s-3.3-7.5-7.5-7.5h0Z"/><path class="cls-1" d="M258.6,83.31V37.53c0-3.92-3.45-7.68-7.5-7.5s-7.5,3.3-7.5,7.5v45.78c0,3.92,3.45,7.68,7.5,7.5s7.5-3.3,7.5-7.5h0Z"/><path class="cls-1" d="M258.6,245.43v-45.78c0-3.92-3.45-7.68-7.5-7.5s-7.5,3.3-7.5,7.5v45.78c0,3.92,3.45,7.68,7.5,7.5s7.5-3.3,7.5-7.5h0Z"/><path class="cls-1" d="M205.32,252.93h45.78c3.92,0,7.68-3.45,7.5-7.5s-3.3-7.5-7.5-7.5h-45.78c-3.92,0-7.68,3.45-7.5,7.5s3.3,7.5,7.5,7.5h0Z"/></svg>