<?xml version="1.0" encoding="UTF-8"?><svg id="Layer_2" xmlns="http://www.w3.org/2000/svg" viewBox="0 0 283.32 272.94"><defs><style>.cls-1{fill:#231f20;}</style></defs><path class="cls-1" d="M152.51,69.35c-.35,1.25-.78,2.48-1.28,3.68l.76-1.79c-.69,1.58-1.49,3.09-2.41,4.55-.44,.7-.9,1.38-1.38,2.05-.16,.22-1.17,1.56-.32,.46s-.3,.37-.48,.59c-2.2,2.69-4.61,5.18-7.02,7.68s-4.5,4.87-6.85,7.21c-2.11,2.1-4.21,4.2-6.32,6.3-9.5,9.44-19.04,18.83-28.59,28.23-10.39,10.22-20.79,20.43-31.18,30.65s-20.58,20.26-30.82,30.44c-9.07,9.01-18.12,18.05-27.09,27.17-.99,1-1.97,2.01-2.95,3.01-2.75,2.81-3.01,7.85,0,10.61s7.67,3,10.61,0c8.96-9.15,18.01-18.22,27.09-27.25,10.36-10.3,20.76-20.57,31.18-30.81s21.4-21.03,32.1-31.55c9.82-9.66,19.64-19.33,29.42-29.03,2.2-2.19,4.4-4.38,6.6-6.57,2.36-2.35,4.58-4.82,6.89-7.22,5.21-5.43,10.76-11,14.02-17.87,1-2.1,1.89-4.28,2.51-6.52,1.05-3.78-1.3-8.33-5.24-9.23s-8.1,1.19-9.23,5.24h0Z"/><path class="cls-1" d="M181.6,147.81c3.98-3.8,8.01-7.56,12.21-11.12,.99-.84,1.99-1.67,3-2.49,.53-.43,1.07-.86,1.61-1.29,.12-.09,1.34-1.04,.33-.26-.91,.7-.04,.03,.15-.11,2.25-1.71,4.56-3.35,6.92-4.91,3.27-2.16,4.97-6.73,2.69-10.26-2.1-3.26-6.76-5-10.26-2.69-9.87,6.5-18.73,14.38-27.25,22.53-2.84,2.72-2.94,7.91,0,10.61s7.57,2.9,10.61,0h0Z"/><path class="cls-1" d="M54.44,264.96c15.16-13.94,30.33-27.87,45.52-41.79,4.33-3.97,8.66-7.93,12.99-11.9,2.9-2.66,2.89-7.95,0-10.61-3.1-2.85-7.51-2.83-10.61,0-15.19,13.9-30.37,27.83-45.54,41.76-4.32,3.97-8.65,7.95-12.97,11.92-2.9,2.66-2.9,7.94,0,10.61,3.1,2.84,7.52,2.84,10.61,0h0Z"/><path class="cls-1" d="M168.53,71.25c.08-1.86,.23-3.71,.47-5.56l-.27,1.99c.73-5.43,2.18-10.73,4.3-15.79l-.76,1.79c1.19-2.79,2.56-5.5,4.14-8.09,.78-1.29,1.61-2.55,2.49-3.78,.42-.59,.88-1.15,1.29-1.75,.1-.15-1.15,1.46-.66,.86,.1-.13,.21-.26,.31-.39,.28-.35,.56-.69,.84-1.03,1.88-2.25,3.93-4.37,6.11-6.33,.53-.48,1.08-.95,1.63-1.41,.25-.21,.51-.42,.77-.63,.17-.14,.35-.27,.52-.41,.78-.63-.7,.52-.73,.56,.3-.5,1.26-.94,1.73-1.27,.63-.44,1.27-.88,1.92-1.3,2.82-1.83,5.8-3.4,8.9-4.72l-1.79,.76c4.43-1.85,9.06-3.12,13.81-3.78l-1.99,.27c4.82-.64,9.69-.62,14.51,.02l-1.99-.27c4.85,.68,9.58,1.97,14.09,3.86l-1.79-.76c2.79,1.19,5.49,2.6,8.04,4.25,.66,.43,1.31,.87,1.95,1.32,.34,.25,.68,.5,1.02,.75,1.04,.76-1.44-1.15-.37-.29,1.17,.95,2.32,1.94,3.41,2.98s2.13,2.15,3.12,3.29c.47,.55,.92,1.13,1.38,1.69-1.69-2.02,.07,.14,.45,.69,1.81,2.62,3.32,5.43,4.57,8.36l-.76-1.79c1.75,4.22,2.93,8.63,3.55,13.15l-.27-1.99c.58,4.54,.59,9.11,0,13.65l.27-1.99c-.57,4.12-1.64,8.13-3.22,11.98l.76-1.79c-.76,1.79-1.62,3.54-2.6,5.22-.48,.83-1,1.64-1.53,2.43-.4,.59-2.27,2.91-.57,.87-2.19,2.62-4.45,5.08-7.08,7.28-.32,.27-.65,.54-.98,.8-1.31,1.04,1.33-.98,.23-.18-.68,.5-1.36,1-2.06,1.48-1.4,.96-2.84,1.86-4.31,2.71-3.08,1.78-6.29,3.32-9.56,4.71l1.79-.76c-6.98,2.94-14.23,5.14-21.51,7.19-3.77,1.06-6.49,5.36-5.24,9.23s5.18,6.38,9.23,5.24c17.31-4.87,35.9-11,48.22-24.85,6.88-7.73,11.47-17.31,12.9-27.57,1.5-10.78,.32-21.62-3.93-31.69-7.51-17.81-24.46-30.47-43.44-33.67-9.18-1.55-18.49-1.3-27.49,1.2s-16.49,6.74-23.49,12.32c-13.15,10.49-22.27,26.55-24.56,43.21-.35,2.57-.66,5.13-.76,7.72-.16,3.92,3.56,7.68,7.5,7.5,4.2-.19,7.33-3.3,7.5-7.5h0Z"/><path class="cls-1" d="M159.46,80.3c2.95,.77,5.83,1.75,8.64,2.93l-1.79-.76c3.37,1.44,6.62,3.16,9.69,5.17,.75,.49,1.49,1,2.22,1.52,.34,.24,.67,.49,1,.74,1.16,.85-1.44-1.15-.04-.03s2.86,2.4,4.21,3.69c2.84,2.71,7.82,3.03,10.61,0s3.03-7.71,0-10.61c-8.55-8.15-19.11-14.13-30.55-17.11-3.79-.99-8.32,1.25-9.23,5.24s1.18,8.17,5.24,9.23h0Z"/><path class="cls-1" d="M197.7,110.07c.7,1.03,1.3,2.11,1.79,3.26l-.76-1.79c.65,1.54,1.09,3.16,1.32,4.82l-.27-1.99,.02,.14c-.04,1.03,.18,2,.65,2.89,.3,.93,.82,1.73,1.55,2.41,.68,.73,1.48,1.25,2.41,1.55,.89,.47,1.86,.68,2.89,.65l1.99-.27c1.27-.36,2.37-1,3.31-1.93l1.17-1.52c.68-1.17,1.02-2.43,1.02-3.79-.28-2.16-.56-4.25-1.34-6.29s-1.6-3.95-2.81-5.71c-.47-.87-1.12-1.58-1.93-2.1-.72-.66-1.57-1.11-2.55-1.34-1-.31-1.99-.36-2.99-.13-1,.05-1.93,.34-2.79,.89-1.6,1.03-3.01,2.57-3.45,4.48l-.27,1.99c0,1.35,.35,2.62,1.02,3.79h0Z"/><path class="cls-1" d="M168.56,70.73c-.15-.51-.26-1.03-.33-1.56l.27,1.99c-.13-.98-.13-1.96,0-2.93l-.27,1.99c.12-.81,.32-1.6,.61-2.37,.31-1,.36-1.99,.13-2.99-.05-1-.34-1.93-.89-2.79-.47-.87-1.12-1.58-1.93-2.1-.72-.66-1.57-1.11-2.55-1.34l-1.99-.27c-1.35,0-2.62,.35-3.79,1.02l-1.52,1.17c-.93,.94-1.57,2.04-1.93,3.31-1.17,2.78-1.68,5.82-1.85,8.82-.04,1.03,.18,2,.65,2.89,.3,.93,.82,1.73,1.55,2.41,.68,.73,1.48,1.25,2.41,1.55,.89,.47,1.86,.68,2.89,.65l1.99-.27c1.27-.36,2.37-1,3.31-1.93l1.17-1.52c.68-1.17,1.02-2.43,1.02-3.79,.03-.54,.08-1.09,.16-1.63l-.27,1.99c.25-1.79,.73-3.53,1.43-5.2l-14.46-3.99c-.22,.57-.39,1.16-.51,1.76-.23,1.19-.41,2.42-.46,3.63-.02,.59,0,1.18,.07,1.77,.14,1.23,.27,2.48,.62,3.67,.23,.98,.68,1.83,1.34,2.55,.53,.82,1.23,1.46,2.1,1.93,.86,.55,1.79,.84,2.79,.89,1,.22,1.99,.18,2.99-.13l1.79-.76c1.13-.67,2.02-1.56,2.69-2.69l.76-1.79c.36-1.33,.36-2.66,0-3.99h0Z"/><path class="cls-1" d="M205.56,127.58c7.22-2.37,14.5-4.52,21.85-6.46,3.79-1,6.48-5.4,5.24-9.23s-5.16-6.31-9.23-5.24c-7.35,1.94-14.63,4.09-21.85,6.46-1.85,.61-3.48,1.74-4.48,3.45-.94,1.61-1.34,3.98-.76,5.78,1.2,3.71,5.23,6.55,9.23,5.24h0Z"/><path class="cls-1" d="M89.53,196.75l13.14,10.44c.68,.73,1.48,1.25,2.41,1.55,.89,.47,1.86,.68,2.89,.65,1.84,0,4.04-.82,5.3-2.2s2.29-3.31,2.2-5.3c-.08-1.85-.67-4.09-2.2-5.3l-13.14-10.44c-.68-.73-1.48-1.25-2.41-1.55-.89-.47-1.86-.68-2.89-.65-1.84,0-4.04,.82-5.3,2.2s-2.29,3.31-2.2,5.3c.08,1.85,.67,4.09,2.2,5.3h0Z"/><path class="cls-1" d="M158.11,160.88l-6.33,14.28c-2.14,4.84-4.74,9.74-5.67,15-.98,5.53-.54,10.84,.05,16.37l1.69,15.82c.22,2.04,.69,3.8,2.2,5.3,1.3,1.3,3.44,2.28,5.3,2.2,3.71-.17,7.95-3.32,7.5-7.5l-1.58-14.83c-.5-4.71-1.16-9.47-.6-14.2l-.27,1.99c.42-3.05,1.42-5.91,2.61-8.73l-.76,1.79c2.85-6.67,5.87-13.27,8.81-19.91,.84-1.91,1.33-3.69,.76-5.78-.48-1.74-1.82-3.63-3.45-4.48-1.74-.92-3.85-1.38-5.78-.76-1.74,.56-3.71,1.7-4.48,3.45h0Z"/><path class="cls-1" d="M101.67,205.54c3.2,4.16,5.84,8.69,7.9,13.51l-.76-1.79c2.14,5.09,3.61,10.43,4.37,15.9l-.27-1.99c.29,2.24,.47,4.5,.53,6.76,.1,3.92,3.38,7.68,7.5,7.5s7.6-3.3,7.5-7.5c-.35-14.28-5.09-28.6-13.82-39.95-1.25-1.62-2.43-2.88-4.48-3.45-1.8-.49-4.19-.27-5.78,.76s-3.01,2.57-3.45,4.48-.44,4.22,.76,5.78h0Z"/><path class="cls-1" d="M165.11,170.88c3.92,0,7.68-3.45,7.5-7.5s-3.3-7.5-7.5-7.5c-3.92,0-7.68,3.45-7.5,7.5s3.3,7.5,7.5,7.5h0Z"/><path class="cls-1" d="M171.37,167.04l5.3-11.23c1.49-3.16,3.2-6.22,2.22-9.86-.75-2.78-2.75-4.67-4.75-6.58-5.71-5.47-11.61-10.74-17.68-15.8-1.56-1.3-3.2-2.2-5.3-2.2-1.84,0-4.04,.82-5.3,2.2-2.54,2.77-3.22,7.92,0,10.61,3.58,2.99,7.11,6.04,10.56,9.18,1.7,1.54,3.38,3.09,5.05,4.67,.81,.76,1.61,1.52,2.4,2.29,.46,.44,.92,.87,1.36,1.32,.18,.17,.35,.35,.51,.53-.73-1.07-.94-1.27-.61-.6l-.76-1.79,.08,.35-.27-1.99v.43l.26-1.99c-.05,.29-.13,.57-.25,.83l.76-1.79c-2.12,4.66-4.36,9.26-6.55,13.88-.88,1.86-1.32,3.73-.76,5.78,.48,1.74,1.82,3.63,3.45,4.48,3.33,1.76,8.47,1.1,10.26-2.69h0Z"/><path class="cls-1" d="M101.75,194.4l41.25-45.95,11.64-12.97c2.62-2.92,3.09-7.77,0-10.61-2.86-2.63-7.81-3.12-10.61,0l-41.25,45.95-11.64,12.97c-2.62,2.92-3.09,7.77,0,10.61,2.86,2.63,7.81,3.12,10.61,0h0Z"/><path class="cls-1" d="M175.02,45.28c1.81,.1,3.62,.26,5.42,.5l-1.99-.27c6.36,.87,12.54,2.61,18.46,5.09l-1.79-.76c3.85,1.64,7.57,3.56,11.13,5.77,1.78,1.1,3.51,2.27,5.2,3.5,.34,.25,.67,.49,1.01,.75,.22,.17,.44,.34,.67,.51-.97-.75-1.14-.88-.53-.4,.87,.7,1.73,1.4,2.58,2.12,1.54,1.31,3.22,2.2,5.3,2.2,1.84,0,4.04-.82,5.3-2.2,2.57-2.8,3.19-7.89,0-10.61-14.32-12.19-31.84-20.18-50.75-21.19-3.92-.21-7.67,3.6-7.5,7.5,.19,4.24,3.3,7.28,7.5,7.5h0Z"/><path class="cls-1" d="M4.93,227.43c.6,9.32,4.03,17.81,9.93,25.03,5.39,6.58,13.35,11.35,21.58,13.39,2.61,.65,5.33,1.05,8.01,1.19,1.37,.07,2.81-.08,4.14-.44,2.56-.7,4.32-2.32,5.86-4.41,1.08-1.47,1.22-4.1,.76-5.78s-1.82-3.63-3.45-4.48c-1.74-.92-3.85-1.38-5.78-.76s-3.26,1.79-4.48,3.45c2.27-1.89,2.86-2.52,1.76-1.89l1.79-.76c-.41,.17-.81,.26-1.25,.32l1.99-.27c-1.25,.1-2.52-.06-3.76-.22l1.99,.27c-2.96-.42-5.83-1.21-8.6-2.34l1.79,.76c-2-.85-3.92-1.85-5.73-3.04-.45-.3-.89-.62-1.34-.92-.62-.46-.44-.32,.55,.44-.21-.17-.42-.34-.63-.51-.78-.65-1.54-1.33-2.26-2.04s-1.41-1.46-2.06-2.24c-.17-.21-.35-.42-.51-.63,.75,.99,.9,1.17,.43,.55-.31-.44-.63-.88-.94-1.33-1.21-1.8-2.23-3.72-3.09-5.71l.76,1.79c-1.21-2.88-2.04-5.88-2.47-8.98l.27,1.99c-.1-.81-.18-1.61-.23-2.43-.25-3.91-3.27-7.69-7.5-7.5-3.85,.17-7.77,3.31-7.5,7.5h0Z"/></svg>