<?xml version="1.0" encoding="UTF-8"?><svg id="Layer_10" xmlns="http://www.w3.org/2000/svg" viewBox="0 0 282.64 277.97"><defs><style>.cls-1{fill:#231f20;}</style></defs><path class="cls-1" d="M22.86,149.59c.26,.32,.5,.66,.78,.96-1.46-1.63-.53-.68-.21-.23,.49,.69,.96,1.4,1.4,2.13,.81,1.34,1.52,2.74,2.14,4.18l-.76-1.79c1.16,2.78,1.92,5.68,2.33,8.66l-.27-1.99c.54,4.2,.39,8.44-.17,12.63l.27-1.99c-1.76,12.77-6.87,24.74-9.72,37.26-1.53,6.71-2.46,13.66-1.59,20.53,.97,7.61,3.3,14.88,7.33,21.45s9.35,12.31,15.68,16.67c6.2,4.26,13.47,6.5,20.91,7.15,14.32,1.25,28.59-4.86,40.09-12.94,12.15-8.54,22.16-19.5,30.57-31.69,.95-1.38,1.88-2.79,2.79-4.2,2.13-3.31,.79-8.42-2.69-10.26-3.72-1.97-7.99-.84-10.26,2.69-2.12,3.3-4.37,6.51-6.73,9.63-.73,.96,.38-.48,.43-.55-.16,.22-.34,.43-.5,.64-.25,.32-.51,.64-.76,.96-.68,.85-1.38,1.69-2.08,2.53-1.28,1.51-2.59,3-3.94,4.45-2.69,2.9-5.54,5.66-8.53,8.24-.72,.62-1.45,1.23-2.19,1.84-.37,.3-.74,.6-1.11,.89-.94,.75,.49-.37,.55-.42-.2,.18-.43,.33-.65,.49-1.62,1.23-3.29,2.4-4.99,3.51-3.74,2.44-7.67,4.6-11.78,6.35l1.79-.76c-4.23,1.76-8.63,3.04-13.17,3.65l1.99-.27c-3.49,.44-7,.48-10.48,.03l1.99,.27c-3.1-.43-6.11-1.23-9.01-2.42l1.79,.76c-2.51-1.06-4.9-2.39-7.11-3.99-.22-.16-.43-.33-.65-.48,1.84,1.25,.64,.5,.23,.16-.54-.44-1.06-.89-1.57-1.36-1.04-.95-2.04-1.94-2.99-2.98-.9-.97-1.75-1.99-2.58-3.02-.57-.71,1.07,1.44,.33,.42-.23-.32-.47-.64-.69-.96-.38-.53-.74-1.08-1.1-1.63-1.49-2.3-2.76-4.72-3.83-7.23l.76,1.79c-1.5-3.61-2.54-7.36-3.08-11.23l.27,1.99c-.52-4-.47-7.99,.05-11.98l-.27,1.99c2.9-21.19,15.23-41.15,10.72-63.08-1.39-6.77-4.76-12.79-9.13-18.07-1.16-1.4-3.56-2.2-5.3-2.2-1.84,0-4.04,.82-5.3,2.2s-2.29,3.31-2.2,5.3,.86,3.69,2.2,5.3h0Z"/><path class="cls-1" d="M16.77,150.23l50.35-39.1,14.16-11c1.41-1.09,2.2-3.62,2.2-5.3,0-1.84-.82-4.04-2.2-5.3s-3.31-2.29-5.3-2.2c-2.12,.1-3.64,.91-5.3,2.2l-50.35,39.1-14.16,11c-1.41,1.09-2.2,3.62-2.2,5.3,0,1.84,.82,4.04,2.2,5.3s3.31,2.29,5.3,2.2c2.12-.1,3.64-.91,5.3-2.2h0Z"/><path class="cls-1" d="M63.77,109.78c1.11,.92,2.17,1.9,3.17,2.96,.51,.54,1,1.09,1.48,1.67,.21,.25,.49,.51,.64,.8l-.76-.98c.14,.18,.27,.36,.4,.55,1.66,2.3,3.03,4.79,4.16,7.4l-.76-1.79c1.62,3.84,2.66,7.87,3.23,11.99l-.27-1.99c.66,5.06,.6,10.18-.06,15.23l.27-1.99c-.53,3.89-1.41,7.72-2.65,11.44-1.46,4.37-3.6,8.48-4.94,12.89-1.51,4.95-1.98,10.44-.38,15.44,1.81,5.66,5.56,10.15,11.16,12.3s11.61,.68,16.77-1.25c4.7-1.76,9.1-4.08,13.15-7.03,7.88-5.74,14.66-12.76,20.95-20.18,12.47-14.69,22.81-30.98,32.47-47.62,9.49-16.35,18.35-33.1,28.52-49.05,2.51-3.94,5.12-7.82,7.88-11.58,.68-.92,1.39-1.82,2.07-2.75-1.33,1.84-.2,.27,.15-.18,.4-.5,.8-1.01,1.21-1.51,1.49-1.83,3.03-3.61,4.62-5.35,3.18-3.47,6.59-6.74,10.23-9.73,.43-.35,.86-.77,1.33-1.06-.08,.05-1.5,1.13-.52,.4,.22-.17,.45-.34,.67-.5,.9-.67,1.82-1.32,2.75-1.95,1.98-1.34,4.03-2.58,6.13-3.73,1.98-1.07,4.01-2.05,6.08-2.94l-1.79,.76c5.02-2.11,10.26-3.63,15.66-4.37l-1.99,.27c4.41-.57,8.85-.62,13.26-.05l-1.99-.27c.41,.06,.83,.12,1.24,.18,2.06,.32,3.91,.34,5.78-.76,1.56-.91,3.04-2.69,3.45-4.48,.44-1.92,.34-4.07-.76-5.78-.99-1.53-2.6-3.15-4.48-3.45-8.95-1.39-17.9-.91-26.63,1.58-8.08,2.3-15.86,6.09-22.73,10.92-14.18,9.98-24.94,23.71-34.22,38.2-8.77,13.68-16.53,27.99-24.57,42.11-8.05,14.13-16.33,28.18-25.94,41.31-.59,.81-1.18,1.61-1.78,2.41-.3,.4-.6,.8-.9,1.19-.19,.25-1.22,1.59-.46,.6s-.28,.36-.47,.59c-.31,.39-.62,.78-.93,1.17-.67,.84-1.34,1.67-2.02,2.49-2.54,3.09-5.17,6.1-7.91,9.02s-5.49,5.69-8.47,8.29c-.73,.63-1.46,1.25-2.21,1.86-.42,.34-1.77,1.34,.06-.02-.44,.33-.87,.66-1.32,.98-1.54,1.12-3.13,2.18-4.78,3.13s-3.33,1.8-5.07,2.54l1.79-.76c-2.72,1.13-5.55,2.02-8.47,2.44l1.99-.27c-1.24,.14-2.45,.17-3.69,0l1.99,.27c-.79-.14-1.54-.35-2.27-.65l1.79,.76c-.17-.08-1.73-.88-1.67-.97,.07-.11,1.59,1.47,.65,.45-.22-.23-.45-.47-.68-.69-.98-.98,.51,.61,.46,.63-.05,.01-.51-.78-.54-.83-.35-.57-.63-1.17-.9-1.79l.76,1.79c-.51-1.27-.84-2.58-1.03-3.94l.27,1.99c-.17-1.46-.13-2.89,.05-4.35l-.27,1.99c.84-5.83,3.76-11,5.67-16.5,1.79-5.14,2.79-10.48,3.36-15.88,1.1-10.59-.57-21.5-5.25-31.09-2.51-5.14-6.18-9.9-10.58-13.56-1.57-1.3-3.19-2.2-5.3-2.2-1.84,0-4.04,.82-5.3,2.2-2.54,2.77-3.22,7.93,0,10.61h0Z"/><path class="cls-1" d="M130.57,231.54c9.19-12.39,18.6-24.66,27.35-37.36,8.27-12.01,15.61-24.63,22.44-37.51,13.5-25.43,25.03-51.94,39.42-76.9,1.77-3.07,3.61-6.1,5.6-9.03,.96-1.41,1.95-2.78,2.97-4.15,.89-1.19-1.15,1.44-.22,.28,.33-.4,.65-.81,.98-1.21,.49-.6,1-1.19,1.51-1.77,1.19-1.35,2.43-2.65,3.74-3.89,.56-.53,1.12-1.04,1.7-1.55,.29-.25,.58-.5,.87-.74,.43-.36,1.98-1.45-.03-.02,2.87-2.05,5.77-3.9,9.02-5.32l-1.79,.76c3.37-1.41,6.88-2.36,10.49-2.88l-1.99,.27c2.41-.32,4.83-.46,7.26-.41,3.92,.07,7.68-3.5,7.5-7.5s-3.29-7.42-7.5-7.5c-8.73-.16-17.48,1.84-25.14,6.07-6.25,3.45-11.73,8.39-16.26,13.88-9.61,11.65-16.45,25.38-23.29,38.74-7.25,14.15-14.09,28.5-21.28,42.69-7.17,14.15-14.69,28.14-23.25,41.51-9.03,14.11-19.3,27.4-29.28,40.85l-3.8,5.13c-1.09,1.46-1.22,4.1-.76,5.78s1.82,3.63,3.45,4.48c1.74,.92,3.85,1.38,5.78,.76s3.26-1.79,4.48-3.45h0Z"/><path class="cls-1" d="M112.99,119.49l-.06,.02h3.94l3.31,1.92-.04-.03,1.17,1.52-.02-.05,.76,1.79v-.06l.26,1.99v-.06l-.27,1.99s.02-.09,.04-.12l-.76,1.79,.04-.05-2.69,2.69,.05-.03-1.79,.76h-3.82l-1.79-.75,.09,.05-1.52-1.17,.08,.07-1.17-1.52c.07,.1,.12,.18,.17,.3l-.76-1.79c.24,.68,.39,1.39,.49,2.1l-.27-1.99c.08,.62,.12,1.25,.1,1.88l3.71-6.48c-.18,.11-.36,.21-.56,.3l1.79-.76c-.33,.13-.66,.22-1.01,.27l1.99-.27c-.39,.05-.77,.04-1.15,0l1.99,.27c-.42-.06-.83-.18-1.22-.34l1.79,.76c-.36-.16-.69-.35-1-.59l1.52,1.17c-.28-.22-.52-.46-.74-.74l1.17,1.52c-.19-.26-.35-.53-.48-.82l.76,1.79c-.12-.3-.21-.62-.26-.94l.27,1.99c-.05-.4-.05-.79,0-1.18l-.27,1.99c.06-.4,.17-.78,.32-1.15l-.76,1.79c.17-.4,.39-.78,.66-1.13l-1.17,1.52c.23-.28,.48-.54,.77-.77l-1.52,1.17c.29-.22,.6-.4,.93-.55l-1.79,.76c.31-.13,.63-.21,.96-.26l-1.99,.27c.37-.05,.74-.05,1.11,0l-1.99-.27c.45,.06,.87,.18,1.29,.36l-1.79-.76c.38,.17,.73,.38,1.06,.63l-1.52-1.17c.33,.26,.62,.54,.87,.87l-1.17-1.52c.23,.3,.41,.62,.57,.96l-.76-1.79c.13,.31,.22,.63,.27,.96l-.27-1.99c.05,.37,.04,.73,0,1.09l.27-1.99c-.06,.37-.15,.72-.29,1.06l.76-1.79c-.16,.37-.36,.72-.6,1.04l1.17-1.52c-.2,.25-.43,.48-.68,.69l1.52-1.17c-.25,.19-.52,.36-.81,.48l1.79-.76c-.23,.09-.46,.16-.71,.2l1.99-.27c-.27,.04-.54,.04-.81,0l1.99,.27c-.21-.04-.4-.09-.6-.17l1.79,.76c-.19-.09-.37-.19-.54-.31l1.52,1.17c-.22-.17-.41-.35-.58-.57l1.17,1.52c-.21-.27-.37-.55-.5-.86l.76,1.79c-.11-.28-.19-.57-.23-.87l.27,1.99c-.03-.26-.03-.52,0-.78l-.27,1.99c.03-.2,.08-.38,.16-.57l-.76,1.79c.07-.16,.15-.3,.25-.44l-1.17,1.52c.11-.14,.23-.26,.37-.37l-1.52,1.17,.07-.06c.87-.47,1.58-1.12,2.1-1.93,.66-.72,1.11-1.57,1.34-2.55,.31-1,.36-1.99,.13-2.99-.05-1-.34-1.93-.89-2.79-1.03-1.6-2.57-3.01-4.48-3.45l-1.99-.27c-1.35,0-2.62,.35-3.79,1.02-1.45,1.08-2.29,1.67-3.23,3.26-.47,.79-.85,1.67-1.06,2.57-.41,1.83-.46,3.89,.2,5.67,.26,.72,.65,1.82,1.17,2.55,.43,.61,.9,1.24,1.4,1.8,.12,.14,.25,.26,.39,.37,1.55,1.29,2.07,1.61,3.96,2.31,.92,.34,1.95,.45,2.93,.45,1.9,0,4.09-.55,5.65-1.67,.8-.57,1.65-1.15,2.28-1.93s1.31-1.55,1.73-2.46c.86-1.87,1.54-3.77,1.38-5.88s-.61-4.09-1.82-5.78-2.53-3.17-4.39-4.13-3.68-1.51-5.83-1.56c-2.01-.05-4.17,.54-5.9,1.57s-3.06,2.43-4.16,4.12c-1.17,1.8-1.55,3.73-1.77,5.82-.04,.36-.03,.71,0,1.08,.24,2.11,.4,2.9,1.32,4.82,.87,1.81,2.37,3.08,3.95,4.22,.56,.4,1.17,.63,1.81,.9,.67,.28,1.3,.58,2.01,.7,1.01,.17,2.1,.4,3.15,.3,.98-.09,2.14-.17,3.1-.55,.64-.25,1.57-.59,2.26-1,2.41-1.43,3.77-3.92,3.81-6.69,.02-1.24-.19-2.5-.38-3.72-.09-.62-.22-1.24-.41-1.84-.26-.81-.55-1.63-1.02-2.34-1.15-1.75-2.7-3.04-4.76-3.58-1.34-.36-2.71-.36-4.05,.01s-2.38,1.06-3.36,1.96c-1.53,1.4-2.18,3.47-2.27,5.48s.85,4.09,2.25,5.49c1.9,1.9,4.82,2.72,7.42,1.94,1.83-.55,3.51-1.78,4.48-3.45,.55-.86,.84-1.79,.89-2.79,.22-1,.18-1.99-.13-2.99-.59-1.81-1.71-3.57-3.45-4.48s-3.82-1.34-5.78-.76h0Z"/><path class="cls-1" d="M140.49,96.7c.04-.06,.08-.12,.12-.18l-1.17,1.52c.07-.09,.15-.16,.23-.24l-1.52,1.17c.1-.08,.21-.14,.32-.19l-1.79,.76c.14-.06,.28-.09,.43-.11l-1.99,.27c.18-.02,.35-.01,.53,0l-1.99-.27c.23,.04,.46,.1,.67,.19l-1.79-.76c.25,.11,.48,.25,.69,.41l-1.52-1.17c.19,.16,.37,.33,.52,.53l-1.17-1.52c.13,.18,.24,.36,.33,.57l-.76-1.79c.07,.19,.12,.37,.15,.57l-.27-1.99c.03,.27,.03,.53,0,.8l.27-1.99c-.04,.26-.11,.51-.21,.76l.76-1.79c-.13,.29-.29,.56-.48,.81l1.17-1.52c-.23,.29-.5,.55-.79,.79l1.52-1.17c-.32,.24-.67,.44-1.04,.6l1.79-.76c-.32,.13-.65,.22-1,.28l1.99-.27c-.31,.04-.63,.05-.94,.01l1.99,.27c-.26-.04-.52-.1-.76-.2l1.79,.76c-.23-.1-.44-.22-.64-.37l1.52,1.17c-.2-.16-.38-.34-.54-.54l1.17,1.52c-.15-.2-.27-.41-.37-.63l.76,1.79c-.12-.29-.2-.59-.24-.9l.27,1.99c-.04-.34-.04-.68,0-1.02l-.27,1.99c.06-.41,.17-.81,.33-1.2l-.76,1.79c.15-.34,.33-.66,.55-.95l-1.17,1.52c.21-.27,.44-.51,.71-.72l-1.52,1.17c.21-.16,.44-.29,.69-.4l-1.79,.76c.23-.09,.46-.16,.71-.2l-1.99,.27c.32-.04,.63-.03,.95,.01l-1.99-.27c.39,.06,.75,.17,1.12,.32l-1.79-.76c.5,.22,.95,.5,1.38,.83l-1.52-1.17c.26,.2,.5,.41,.74,.63,.68,.73,1.48,1.25,2.41,1.55,.89,.47,1.86,.68,2.89,.65,1.03,.04,2-.18,2.89-.65,.93-.3,1.73-.82,2.41-1.55l1.17-1.52c.68-1.17,1.02-2.43,1.02-3.79l-.27-1.99c-.36-1.27-1-2.37-1.93-3.31-.47-.44-.98-.82-1.5-1.22s-1.01-.81-1.57-1.13c-.16-.09-.31-.17-.48-.24-.69-.32-1.42-.63-2.14-.9-.91-.33-1.92-.38-2.86-.49-.28-.03-.56-.05-.84-.02-.8,.07-1.77,.13-2.59,.4-1.89,.62-2.79,1.22-4.29,2.47-.79,.66-1.43,1.58-1.98,2.42-.58,.89-.97,1.92-1.28,2.92-.07,.21-.12,.42-.15,.64-.14,.85-.31,1.74-.32,2.61-.01,.82,.2,1.84,.3,2.53,.03,.22,.08,.44,.15,.65,.26,.78,.58,1.55,.96,2.28,.05,.09,.1,.17,.15,.26,.41,.6,.89,1.2,1.35,1.76,.14,.16,.29,.3,.46,.43,.58,.46,1.33,1.16,2.09,1.51,.7,.33,1.53,.75,2.34,.94,.42,.09,.88,.13,1.28,.18,.43,.06,.91,.15,1.36,.16,.82,.02,1.94-.2,2.57-.3,.24-.04,.48-.09,.72-.17,.8-.27,1.59-.61,2.35-.98,.23-.11,.44-.24,.65-.39,.68-.48,1.37-.98,1.98-1.55s1.18-1.42,1.62-2.01c.64-.86,1.06-1.93,1.36-2.94,.55-1.86,.4-3.35,.09-5.21-.02-.14-.05-.27-.09-.4-.02-.06-.04-.11-.06-.17-.24-.63-.52-1.31-.82-1.92-.05-.11-.11-.22-.18-.32-.41-.61-.89-1.23-1.38-1.78-1.22-1.39-2.8-2.11-4.47-2.75s-3.58-.53-5.25-.16c-.42,.09-.82,.31-1.2,.47-.4,.17-.81,.29-1.17,.53-.6,.4-1.22,.82-1.71,1.34-.24,.26-.52,.66-.67,.86-.22,.29-.5,.61-.7,.93-.55,.86-.84,1.79-.89,2.79-.22,1-.18,1.99,.13,2.99,.23,.98,.68,1.83,1.34,2.55,.53,.82,1.23,1.46,2.1,1.93l1.79,.76c1.33,.36,2.66,.36,3.99,0l1.79-.76c1.13-.67,2.02-1.56,2.69-2.69h0Z"/><path class="cls-1" d="M161,66.48l1.59-1.67-9.09,1.17,.08,.06-1.52-1.17c.21,.16,.39,.34,.55,.55l-1.17-1.52c.16,.21,.28,.43,.39,.67l-.76-1.79c.13,.31,.22,.62,.27,.94l-.27-1.99c.05,.36,.05,.73,0,1.09l.27-1.99c-.05,.32-.12,.62-.24,.92l.76-1.79c-.13,.31-.3,.6-.5,.87l1.17-1.52c-.23,.29-.48,.54-.77,.76l1.52-1.17c-.32,.24-.66,.44-1.02,.6l1.79-.76c-.42,.18-.86,.3-1.31,.36l1.99-.27c-.42,.05-.84,.05-1.26,0l1.99,.27c-.36-.05-.71-.15-1.05-.29l1.79,.76c-.28-.13-.55-.28-.8-.47l1.52,1.17c-.25-.19-.46-.41-.66-.66l1.17,1.52c-.2-.27-.37-.56-.5-.87l.76,1.79c-.15-.37-.25-.74-.31-1.13l.27,1.99c-.06-.45-.06-.91,0-1.36l-.27,1.99c.06-.42,.17-.83,.33-1.23l-.76,1.79c.16-.36,.35-.7,.59-1.01l-1.17,1.52c.19-.24,.41-.46,.65-.65l-1.52,1.17c.26-.2,.53-.35,.83-.48l-1.79,.76c.31-.12,.62-.21,.95-.26l-1.99,.27c.39-.05,.78-.05,1.17,0l-1.99-.27c.36,.06,.7,.15,1.03,.29l-1.79-.76c.27,.12,.52,.27,.75,.44l-1.52-1.17c.21,.16,.39,.34,.56,.55l-1.17-1.52c.14,.19,.26,.39,.36,.6l-.76-1.79c.09,.21,.15,.43,.18,.66l-.27-1.99c.03,.26,.03,.51,0,.77l.27-1.99c-.04,.29-.12,.56-.23,.83l.76-1.79c-.12,.27-.26,.51-.44,.74l1.17-1.52c-.16,.2-.34,.38-.54,.54l1.52-1.17c-.18,.13-.37,.24-.57,.33l1.79-.76c-.18,.07-.36,.12-.55,.15l1.99-.27c-.2,.02-.39,.02-.59,0-1.03-.04-2,.18-2.89,.65-.93,.3-1.73,.82-2.41,1.55-.73,.68-1.25,1.48-1.55,2.41-.47,.89-.68,1.86-.65,2.89l.27,1.99c.36,1.27,1,2.37,1.93,3.31l1.52,1.17c1.17,.68,2.43,1.02,3.79,1.02,.14,.02,.28,.02,.42,.02,.38-.02,.84-.11,1.16-.15s.79-.08,1.16-.16c.13-.03,.26-.08,.39-.12,.69-.27,1.44-.53,2.09-.9,1.53-.9,2.84-2.24,3.74-3.77,1.87-3.17,2.03-7.4,.06-10.57-.39-.62-.89-1.21-1.35-1.77-.09-.11-.19-.22-.29-.32-.66-.63-1.39-1.21-2.18-1.67-1.79-1.02-3.29-1.32-5.3-1.51-.29-.03-.57-.03-.86,0-.78,.07-1.58,.18-2.35,.32-.16,.03-.32,.07-.48,.12-.71,.23-1.41,.56-2.09,.86-.14,.06-.27,.12-.4,.2s-.24,.15-.36,.23c-.61,.44-1.25,.9-1.81,1.41-.64,.59-1.14,1.35-1.65,2.04-.17,.24-.33,.49-.45,.75-.38,.8-.76,1.61-1.01,2.46s-.34,1.96-.43,2.78c-.13,1.2,.09,2.49,.34,3.64,.05,.25,.13,.49,.22,.72,.3,.76,.64,1.78,1.15,2.53,1.08,1.62,2.12,2.7,3.77,3.75,.73,.46,1.63,.77,2.39,1.06,.29,.11,.58,.19,.89,.25,.83,.14,1.78,.32,2.66,.32,.95,0,1.93-.18,2.84-.34,.25-.04,.5-.1,.74-.18,.88-.29,1.75-.65,2.57-1.09s1.57-1.1,2.22-1.64c.24-.2,.46-.41,.65-.65,.51-.62,1.25-1.45,1.64-2.26s.88-1.76,1.05-2.71c.37-1.98,.53-3.99-.14-5.95-.31-.91-.65-1.86-1.2-2.66-1.14-1.66-1.75-2.19-3.38-3.37l-1.79-.76c-1-.31-1.99-.36-2.99-.13-.68,0-1.31,.17-1.89,.51-.93,.3-1.73,.82-2.41,1.55l-1.59,1.67c-.73,.68-1.25,1.48-1.55,2.41-.47,.89-.68,1.86-.65,2.89-.04,1.03,.18,2,.65,2.89,.3,.93,.82,1.73,1.55,2.41l1.52,1.17c1.17,.68,2.43,1.02,3.79,1.02l1.99-.27c1.27-.36,2.37-1,3.31-1.93h0Z"/></svg>