<svg id="Layer_22" data-name="Layer 22" xmlns="http://www.w3.org/2000/svg" viewBox="0 0 277.6 295.94"><defs><style>.cls-1{fill:#231f20;}</style></defs><path class="cls-1" d="M305.15,213.16a18.32,18.32,0,0,0-1.6-15.56c-2-3.35-6.82-4.91-10.26-2.69a7.62,7.62,0,0,0-2.69,10.26c.32.53.74,1.78.38.55a10.32,10.32,0,0,1,.33,1.21c-.1-.87-.12-1-.09-.45,0,.25-.25,2.14,0,1.19s-.45,1.29-.52,1.51c-1.3,3.7,1.47,8.36,5.24,9.22a7.69,7.69,0,0,0,9.22-5.24Z" transform="translate(-104.58 -101.95)"/><path class="cls-1" d="M196.63,134.62c3.42-.56,6.78-.85,10-2.28,3.87-1.73,6.84-5,9.94-7.85,4.51-4.11,9.62-8.7,16.18-7.33,5.69,1.18,10,6.14,12.8,10.93a25.15,25.15,0,0,1,3.14,7.35c.9,4.31,2.26,8.39,2.45,12.81.72,16.66-4.69,32.56-9.47,48.29-4.87,16-9.54,32.1-11.78,48.71-2.55,18.89-1.56,38.08,5.7,55.88,1.52,3.74,5,6.42,9.22,5.24,3.55-1,6.79-5.44,5.24-9.23-14.19-34.79-1.58-71.25,8.72-105.26,5-16.54,10.83-36.62,5.95-53.82-2.07-7.3-3.64-14.11-8.11-20.49-4.25-6.06-9.78-11.19-16.76-13.87A27.5,27.5,0,0,0,215,106.57a80,80,0,0,0-10.3,8.44c-1.62,1.49-3.11,3.22-5.18,4s-4.66.79-6.88,1.16c-9.51,1.54-5.47,16,4,14.46Z" transform="translate(-104.58 -101.95)"/><path class="cls-1" d="M348,240.25a218.23,218.23,0,0,1,17.67,15.9c6.82,6.84,17.43-3.76,10.61-10.61a216.25,216.25,0,0,0-17.67-15.89c-3.15-2.54-7.53-3.08-10.61,0-2.62,2.62-3.17,8,0,10.6Z" transform="translate(-104.58 -101.95)"/><path class="cls-1" d="M277.88,377.52c-24.32,11.32-54,4.91-72.56-14-6.76-6.91-17.36,3.7-10.6,10.6a80.23,80.23,0,0,0,90.73,16.38c8.74-4.07,1.13-17-7.57-13Z" transform="translate(-104.58 -101.95)"/><path class="cls-1" d="M212.4,199.65c2.3-5.68,5.32-11.05,7.84-16.63s6.33-12.61,5.22-18.91a12.05,12.05,0,0,0-11.05-10A16.28,16.28,0,0,0,206,155.7c-1.7.78-4,3-5.79,2.91-9.65-.38-9.63,14.62,0,15,4.28.17,7.32-1.71,10.92-3.67a6,6,0,0,1,1.94-1c-1.27-.1-2-1-2.33-2.64-.47.09-1.58,4.65-1.83,5.3-3.12,8.22-7.64,15.86-10.95,24-1.53,3.78,1.67,8.21,5.24,9.23,4.27,1.22,7.71-1.5,9.23-5.24Z" transform="translate(-104.58 -101.95)"/><path class="cls-1" d="M140.05,110c-9.13,3.28-18.26,7.25-28,8.29-4.9.52-8.45,4.36-7.23,9.49,1.87,7.87,8.42,12.49,14.69,16.9a73,73,0,0,0,25.73,10.93c9.42,2,13.44-12.42,4-14.46-6.87-1.48-12.94-4.28-19.11-7.56-3.67-2-9.81-5.46-10.84-9.8l-7.23,9.5c11.26-1.21,21.41-5,32-8.82,9-3.25,5.13-17.74-4-14.47Z" transform="translate(-104.58 -101.95)"/><path class="cls-1" d="M159.45,124.23c.93,14.91,1.91,31.4,14.65,41.24,3.23,2.5,8.37.47,10.26-2.69,2.31-3.84.5-7.8-2.69-10.26-3.62-2.8-4.82-8.64-5.65-12.83a116,116,0,0,1-1.57-15.46c-.6-9.59-15.61-9.65-15,0Z" transform="translate(-104.58 -101.95)"/><path class="cls-1" d="M140.64,124.12,163,131.48c9.19,3,13.13-11.46,4-14.47l-22.31-7.35c-9.19-3-13.13,11.45-4,14.46Z" transform="translate(-104.58 -101.95)"/><path class="cls-1" d="M349.79,222.1c-7-6-13.92-12-20.91-18-5.43-4.65-10.76-9.81-16.7-13.82-5.43-3.66-12.71-5.78-18.53-1.72a10.54,10.54,0,0,0-4.48,10.73,11.81,11.81,0,0,0,3.77,6.55q1.74,1.82.18-.39c3.39,8.94,17.9,5.06,14.47-4a14.87,14.87,0,0,0-2.38-4.48,13.56,13.56,0,0,0-1.58-1.67v4q-4.31,1.6-2.11,2.16a10.48,10.48,0,0,1,1.9,1,30.41,30.41,0,0,1,4,3q4.67,3.94,9.32,7.93c7.49,6.4,14.93,12.86,22.41,19.27,7.29,6.26,17.95-4.3,10.6-10.6Z" transform="translate(-104.58 -101.95)"/><path class="cls-1" d="M356.66,228l-4.22-3.62a8,8,0,0,0-5.31-2.2,7.51,7.51,0,0,0-7.5,7.5,7.46,7.46,0,0,0,2.2,5.31l4.22,3.62a8,8,0,0,0,5.31,2.2,7.63,7.63,0,0,0,5.3-2.2,7.55,7.55,0,0,0,2.2-5.3,7.46,7.46,0,0,0-2.2-5.31Z" transform="translate(-104.58 -101.95)"/><path class="cls-1" d="M371.46,262l.63.19-3.31-1.93-.43-.41-1-3.79q5-4.83,2-3.6a18.8,18.8,0,0,1-1.8.57,19,19,0,0,1-2.7.56,19.73,19.73,0,0,1-5.74-.19c-4-.74-8.09,1.09-9.22,5.24-1,3.64,1.23,8.48,5.23,9.22,7.06,1.3,15.39,1.26,21.81-2.46,7.34-4.25,7.11-15.3-1.48-17.86-9.28-2.76-13.24,11.71-4,14.46Z" transform="translate(-104.58 -101.95)"/><path class="cls-1" d="M178.37,246.49c-6,24.4-10.53,49.84-7.09,75,3.39,24.76,15.34,48.53,36.85,62.21,8.17,5.2,15.7-7.77,7.57-12.95-40-25.46-32.45-81.21-22.86-120.26,2.3-9.37-12.16-13.37-14.47-4Z" transform="translate(-104.58 -101.95)"/><path class="cls-1" d="M191.14,259.06a509.77,509.77,0,0,1,24.24-66.94c1.66-3.73,1.05-8-2.69-10.26-3.18-1.91-8.62-1-10.26,2.69a535.69,535.69,0,0,0-25.75,70.52c-2.66,9.3,11.81,13.27,14.46,4Z" transform="translate(-104.58 -101.95)"/><path class="cls-1" d="M279.09,296.31c5.33-16-1.27-33.48,7.61-48.52,8.42-14.23,20.21-25.79,19.92-43.52-.15-9.64-15.15-9.67-15,0,.26,15.93-13.68,26.78-20.16,40.19-3.66,7.58-4.89,15.5-4.91,23.86,0,8.16.69,16.14-1.92,24-3.06,9.18,11.43,13.12,14.46,4Z" transform="translate(-104.58 -101.95)"/><path class="cls-1" d="M238.1,305.23c4.89,7.71,13,13.87,22.46,10.24,3.79-1.44,6.39-5.05,5.24-9.23-1-3.62-5.42-6.69-9.22-5.23a11.54,11.54,0,0,1-1.69.56c.75-.16,0,.07-.38,0,.9.21.13.1-.17-.12.84.61-.16-.11-.51-.36-1-.71.63.63-.25-.24-.37-.37-.74-.74-1.09-1.13-.85-.95.46.68-.32-.36-.4-.54-.76-1.12-1.12-1.69A7.65,7.65,0,0,0,240.79,295c-3.41,2-4.87,6.83-2.69,10.26Z" transform="translate(-104.58 -101.95)"/><path class="cls-1" d="M264.4,314.93a30.53,30.53,0,0,0,14.35-19c2.31-9.37-12.15-13.37-14.46-4A15,15,0,0,1,256.83,302c-8.35,4.85-.81,17.81,7.57,12.95Z" transform="translate(-104.58 -101.95)"/><path class="cls-1" d="M357.33,253.71c-6.23,1.37-12.47,3.19-17.55,7.2-5.82,4.58-8.06,11.13-9.91,18-4.13,15.4-7.54,31-10.35,46.67-1.69,9.44,12.76,13.49,14.46,4q3.54-19.77,8.43-39.26c1.24-4.91,1.94-12.16,5.14-16.27,3.06-3.95,9.22-4.91,13.77-5.9,9.42-2.07,5.43-16.53-4-14.47Z" transform="translate(-104.58 -101.95)"/><path class="cls-1" d="M301.7,277.79l-.17-.06,1.79.75a1.75,1.75,0,0,1-.29-.18l1.52,1.17a1.13,1.13,0,0,1-.23-.26l1.17,1.52a1.87,1.87,0,0,1-.17-.31l.76,1.79a2.19,2.19,0,0,1-.1-.34l.27,2a3.17,3.17,0,0,1,0-.53l-.26,2a1.3,1.3,0,0,1,.08-.34l-.76,1.79a1.3,1.3,0,0,1,.16-.31L304.27,288a1.48,1.48,0,0,1,.24-.26L303,288.89a1.06,1.06,0,0,1,.33-.18l-1.79.75.18,0-2,.27a1.22,1.22,0,0,1,.38,0l-2-.26a1.24,1.24,0,0,1,.38.09l-1.79-.76a3.25,3.25,0,0,1,.51.3l-1.51-1.17a1.86,1.86,0,0,1,.27.29l-1.17-1.52a1.63,1.63,0,0,1,.19.34l-.75-1.79a1.66,1.66,0,0,1,.09.37l-.27-2v.2l.27-2,0,.2,1.93-3.31a1.43,1.43,0,0,1-.26.23l1.52-1.17a1.51,1.51,0,0,1-.28.15l1.79-.76a1.67,1.67,0,0,1-.3.08l2-.27a1.85,1.85,0,0,1-.47,0l2,.27a2.79,2.79,0,0,1-.47-.14l1.79.75a3.13,3.13,0,0,1-.58-.36l1.52,1.17a2.16,2.16,0,0,1-.37-.37l1.17,1.52a3.13,3.13,0,0,1-.36-.58l.76,1.79a2.52,2.52,0,0,1-.13-.47l.27,2a1.71,1.71,0,0,1,0-.32l-.27,2a2,2,0,0,1,.14-.48l-.76,1.79a2.49,2.49,0,0,1,.19-.3l-1.17,1.52a1.36,1.36,0,0,1,.24-.24l-1.52,1.17a3.66,3.66,0,0,1,.42-.26l-1.79.76a2.85,2.85,0,0,1,.48-.13l-2,.27a3.09,3.09,0,0,1,.68,0l-2-.27a3.79,3.79,0,0,1,.68.19l-1.79-.76a3.79,3.79,0,0,1,.62.35l-1.52-1.17a3.24,3.24,0,0,1,.49.49l-1.17-1.52a2.46,2.46,0,0,1,.25.45l-.75-1.8a2.36,2.36,0,0,1,.12.51l-.27-2a1.63,1.63,0,0,1,0,.38l.26-2a2.17,2.17,0,0,1-.13.56l.76-1.8a3.37,3.37,0,0,1-.39.66l1.18-1.52a4,4,0,0,1-.42.4l1.52-1.17a4.14,4.14,0,0,1-.67.41l1.79-.76a3.94,3.94,0,0,1-1,.26l2-.27a3.48,3.48,0,0,1-.79,0l2,.27a3.58,3.58,0,0,1-.56-.16l1.79.75a2.31,2.31,0,0,1-.35-.18l2.69,2.69-.1-.2.76,1.79a1.48,1.48,0,0,1-.12-.41l.27,2a2.36,2.36,0,0,1,0-.65l-.27,2a3.31,3.31,0,0,1,.12-.42l-.75,1.79a2,2,0,0,1,.2-.38l-1.17,1.51a2.5,2.5,0,0,1,.46-.46c1.41-1.1,2.2-3.61,2.2-5.3a7.61,7.61,0,0,0-2.2-5.3A7.52,7.52,0,0,0,299,275l-2,.27a7.46,7.46,0,0,0-3.31,1.93,9.32,9.32,0,0,0,.19,13.72,10.23,10.23,0,0,0,11.16.61,10,10,0,0,0,5.13-8.79c-.05-4.32-3.09-7.61-7-9a9.58,9.58,0,0,0-9.75,2.3,9.06,9.06,0,0,0-1.07,11.31,10.58,10.58,0,0,0,3.64,3.43,9.68,9.68,0,0,0,6.88.88,8.49,8.49,0,0,0,5.92-5.66A9,9,0,0,0,292.41,279a9.23,9.23,0,0,0-.79,7.16,9.82,9.82,0,0,0,2.2,3.75,9,9,0,0,0,3.89,2.3,7.55,7.55,0,0,0,5.78-.76,7.49,7.49,0,0,0,2.69-10.26,8.33,8.33,0,0,0-4.48-3.44Z" transform="translate(-104.58 -101.95)"/><path class="cls-1" d="M293.71,321.15l0-.11-.76,1.79,0-.08-1.18,1.52.06,0-3.31,1.93.08,0-2,.27a.28.28,0,0,1,.18,0l-2-.27.1,0-1.8-.76a1.17,1.17,0,0,1,.27.15l-1.51-1.17a.64.64,0,0,1,.13.15L280.87,323l0,.08-.75-1.8,0,.08-.26-2v.08l.27-2,0,.07.76-1.79-.06.07,2.7-2.69-.09.06,1.79-.75-.16,0,2-.27a.8.8,0,0,1-.31,0l2,.27-.15-.05,1.79.76a1.17,1.17,0,0,1-.27-.15l1.52,1.17a1.26,1.26,0,0,1-.24-.22l1.18,1.52a1.55,1.55,0,0,1-.25-.41l.76,1.79a1.09,1.09,0,0,1-.07-.3l.27,2v-.15l-.26,2a.82.82,0,0,1,.07-.3l-.76,1.8.08-.14L288,325.19a2.17,2.17,0,0,1,.35-.07l-2,.27a2.35,2.35,0,0,1,.53,0l-2-.27a3.11,3.11,0,0,1,.68.19l-1.79-.75a3.13,3.13,0,0,1,.6.37l-1.52-1.18a4.44,4.44,0,0,1,.37.38L282,322.61a2.66,2.66,0,0,1,.34.59l-.75-1.79a1.68,1.68,0,0,1,.09.32l-.27-2a2.09,2.09,0,0,1,0,.5l.27-2a2.26,2.26,0,0,1-.11.43l.75-1.8a1.61,1.61,0,0,1-.2.33l1.18-1.52a2.37,2.37,0,0,1-.28.27l1.52-1.17a2.59,2.59,0,0,1-.46.26l1.8-.76a2.35,2.35,0,0,1-.52.14l2-.27a2.92,2.92,0,0,1-.66,0l2,.27a2.64,2.64,0,0,1-.48-.14l1.79.75a3.37,3.37,0,0,1-.32-.19l1.52,1.17a1.37,1.37,0,0,1-.17-.17l1.17,1.52a2.23,2.23,0,0,1-.2-.33l.76,1.8a1.64,1.64,0,0,1-.1-.38l.27,2a1,1,0,0,1,0-.24l-.27,2a.9.9,0,0,1,.06-.22l-.76,1.79a2.38,2.38,0,0,1,.17-.31L291,325a1.82,1.82,0,0,1,.34-.34l-1.51,1.17a3.62,3.62,0,0,1,.43-.24l-1.79.75a2.85,2.85,0,0,1,.48-.13l-2,.26a2.46,2.46,0,0,1,.47,0l-2-.27a1.7,1.7,0,0,1,.32.1l-1.79-.76a.76.76,0,0,1,.19.12l-1.52-1.18a.81.81,0,0,1,.16.16l-1.17-1.52a.82.82,0,0,1,.12.2l-.75-1.79,0,.12,1.92-7.29a1.47,1.47,0,0,1-.26.23l1.52-1.17a1.49,1.49,0,0,1-.3.18l1.79-.76a2.88,2.88,0,0,1-.5.15l2-.27a3.09,3.09,0,0,1-.53,0l2,.26a2.93,2.93,0,0,1-.51-.13l1.79.76a3.07,3.07,0,0,1-.31-.17,7.49,7.49,0,0,0-10.26,2.69,7.54,7.54,0,0,0-.75,5.78,8.09,8.09,0,0,0,3.44,4.48,9.37,9.37,0,0,0,2.44,1,7.62,7.62,0,0,0,2.69.28,9.73,9.73,0,0,0,6.37-2.76,7.5,7.5,0,0,0,1.93-7.3,8.62,8.62,0,0,0-1.51-2.87,8.24,8.24,0,0,0-2.36-2.15,8.63,8.63,0,0,0-4.62-1.17,9.63,9.63,0,0,0-7.92,4.64,8.71,8.71,0,0,0,1.53,10.53,9.51,9.51,0,0,0,9.08,2.18,9.13,9.13,0,0,0,6.47-6.58,9.66,9.66,0,0,0-.9-6.69,10,10,0,0,0-3.5-3.68,11.11,11.11,0,0,0-2.25-1,8.81,8.81,0,0,0-2.67-.46,10.18,10.18,0,0,0-2.52.26,7.72,7.72,0,0,0-4.83,3.52c-2.61,4-.68,9.64,3.3,11.91a8.89,8.89,0,0,0,4.31,1.11,9.77,9.77,0,0,0,2.15-.3,7.78,7.78,0,0,0,4.57-11.46,8.26,8.26,0,0,0-7-4,7.48,7.48,0,0,0-4.79,1.64,7.29,7.29,0,0,0-2.82,4.13,8,8,0,0,0,.76,5.78,7.51,7.51,0,0,0,13.71-1.79Z" transform="translate(-104.58 -101.95)"/></svg>